<?xml version="1.0" encoding="utf-8"?><svg width="192" height="192" viewBox="0 0 192 192" xmlns="http://www.w3.org/2000/svg" xmlns:xlink="http://www.w3.org/1999/xlink"><svg width="24" height="24" viewBox="0 0 24 24" id="account_face" xmlns="http://www.w3.org/2000/svg"><path fill="rgba(0, 0, 0, 0.56)" d="M12 20.016c4.406 0 8.016-3.609 8.016-8.016 0-.797-.141-1.547-.328-2.25-.703.188-1.453.234-2.25.234-3.375 0-6.328-1.641-8.156-4.219a10.179 10.179 0 0 1-5.25 5.391c-.047.281-.047.563-.047.844 0 4.406 3.609 8.016 8.016 8.016zm0-18c5.531 0 9.984 4.453 9.984 9.984S17.531 21.984 12 21.984 2.016 17.531 2.016 12 6.469 2.016 12 2.016zm3 9.75c.703 0 1.266.516 1.266 1.219s-.563 1.266-1.266 1.266-1.266-.563-1.266-1.266.563-1.219 1.266-1.219zm-6 0c.703 0 1.266.516 1.266 1.219S9.703 14.251 9 14.251s-1.266-.563-1.266-1.266.563-1.219 1.266-1.219z"/></svg><svg width="24" height="24" viewBox="0 0 24 24" id="add" x="24" xmlns="http://www.w3.org/2000/svg"><path fill="rgba(0,0,0,.54)" d="M19 13h-6v6h-2v-6H5v-2h6V5h2v6h6v2z"/></svg><svg width="24" height="24" viewBox="0 0 24 24" id="add_white" y="24" xmlns="http://www.w3.org/2000/svg"><path fill="#fff" d="M19 13h-6v6h-2v-6H5v-2h6V5h2v6h6v2z"/></svg><svg width="24" height="24" viewBox="0 0 24 24" id="arrow_back" x="24" y="24" xmlns="http://www.w3.org/2000/svg"><path d="M20.016 11.016v1.969H7.828l5.578 5.625L12 20.016 3.984 12 12 3.984l1.406 1.406-5.578 5.625h12.188z"/></svg><svg width="24" height="24" viewBox="0 0 24 24" id="arrow_back_white" x="48" xmlns="http://www.w3.org/2000/svg"><path fill="#fff" d="M20.016 11.016v1.969H7.828l5.578 5.625L12 20.016 3.984 12 12 3.984l1.406 1.406-5.578 5.625h12.188z"/></svg><svg width="24" height="24" viewBox="0 0 24 24" id="arrow_drop_down" x="48" y="24" xmlns="http://www.w3.org/2000/svg"><path fill="#7F7B7B" d="M6.984 9.984h10.031L11.999 15z"/></svg><svg width="24" height="24" viewBox="0 0 24 24" id="arrow_drop_down_white" y="48" xmlns="http://www.w3.org/2000/svg"><path fill="#fff" d="M6.984 9.984h10.031L11.999 15z"/></svg><svg width="24" height="24" viewBox="0 0 24 24" id="arrow_drop_down_white_dim" x="24" y="48" xmlns="http://www.w3.org/2000/svg"><path fill="rgba(255, 255, 255, 0.3)" d="M6.984 9.984h10.031L11.999 15z"/></svg><svg width="24" height="24" viewBox="0 0 24 24" id="check" x="48" y="48" xmlns="http://www.w3.org/2000/svg"><path fill="#7F7B7B" d="M9 16.172 19.594 5.578 21 6.984l-12 12-5.578-5.578L4.828 12z"/></svg><svg width="24" height="24" viewBox="0 0 24 24" id="check_box_outline_blank_white" x="72" xmlns="http://www.w3.org/2000/svg"><path fill="#fff" d="M18.984 3C20.062 3 21 3.938 21 5.016v13.969c0 1.078-.938 2.016-2.016 2.016H5.015c-1.078 0-2.016-.938-2.016-2.016V5.016C2.999 3.938 3.937 3 5.015 3h13.969zm0 2.016H5.015v13.969h13.969V5.016z"/></svg><svg width="24" height="24" viewBox="0 0 24 24" id="close" x="72" y="24" xmlns="http://www.w3.org/2000/svg"><path fill="#7F7B7B" d="M18.984 6.422 13.406 12l5.578 5.578-1.406 1.406L12 13.406l-5.578 5.578-1.406-1.406L10.594 12 5.016 6.422l1.406-1.406L12 10.594l5.578-5.578z"/></svg><svg width="24" height="24" viewBox="0 0 24 24" id="close_white" x="72" y="48" xmlns="http://www.w3.org/2000/svg"><path fill="#fff" d="M18.984 6.422 13.406 12l5.578 5.578-1.406 1.406L12 13.406l-5.578 5.578-1.406-1.406L10.594 12 5.016 6.422l1.406-1.406L12 10.594l5.578-5.578z"/></svg><svg width="24" height="24" viewBox="0 0 24 24" id="cloud_download" y="72" xmlns="http://www.w3.org/2000/svg"><path fill="rgba(0,0,0,.54)" d="M17.016 12.984h-3V9H9.985v3.984h-3L12.001 18zm2.343-2.953C21.937 10.219 24 12.375 24 15a5.021 5.021 0 0 1-5.016 5.016H6c-3.328 0-6-2.672-6-6 0-3.094 2.344-5.625 5.344-5.953C6.61 5.672 9.094 3.985 12 3.985c3.656 0 6.656 2.578 7.359 6.047z"/></svg><svg width="24" height="24" viewBox="0 0 24 24" id="colored_overlay" x="24" y="72" xmlns="http://www.w3.org/2000/svg"><path fill="#fff" d="M20 4H4c-1.11 0-1.99.89-1.99 2L2 18c0 1.11.89 2 2 2h16c1.11 0 2-.89 2-2V6c0-1.11-.89-2-2-2zm0 14H4v-4h16v4zm0-8H4V6h16v4z"/></svg><svg width="24" height="24" viewBox="0 0 24 24" id="colored_overlay_active" x="48" y="72" xmlns="http://www.w3.org/2000/svg"><path fill="#18FFFF" d="M20 4H4c-1.11 0-1.99.89-1.99 2L2 18c0 1.11.89 2 2 2h16c1.11 0 2-.89 2-2V6c0-1.11-.89-2-2-2zm0 14H4v-4h16v4zm0-8H4V6h16v4z"/></svg><svg width="24" height="24" viewBox="0 0 24 24" id="content_copy" x="72" y="72" xmlns="http://www.w3.org/2000/svg"><path d="M18.984 21V6.984H8.015V21h10.969zm0-15.984c1.078 0 2.016.891 2.016 1.969v14.016c0 1.078-.938 2.016-2.016 2.016H8.015c-1.078 0-2.016-.938-2.016-2.016V6.985c0-1.078.938-1.969 2.016-1.969h10.969zm-3-4.032V3h-12v14.016H2.015V3c0-1.078.891-2.016 1.969-2.016h12z"/></svg><svg width="24" height="24" viewBox="0 0 24 24" id="create_new_folder_white" x="96" xmlns="http://www.w3.org/2000/svg"><path fill="#fff" d="M18.984 14.016V12h-3V9h-1.969v3h-3v2.016h3v3h1.969v-3h3zM20.016 6c1.125 0 1.969.891 1.969 2.016V18c0 1.125-.844 2.016-1.969 2.016H3.985c-1.125 0-1.969-.891-1.969-2.016V6c0-1.125.844-2.016 1.969-2.016h6L12.001 6h8.016z"/></svg><svg width="24" height="24" viewBox="0 0 24 24" id="delete" x="96" y="24" xmlns="http://www.w3.org/2000/svg"><path fill="rgba(0,0,0,.54)" d="M18.984 3.984V6H5.015V3.984h3.469L9.515 3h4.969l1.031.984h3.469zM6 18.984v-12h12v12C18 20.062 17.062 21 15.984 21H8.015c-1.078 0-2.016-.938-2.016-2.016z"/></svg><svg width="24" height="24" viewBox="0 0 24 24" id="developer_mode" x="96" y="48" xmlns="http://www.w3.org/2000/svg"><path fill="rgba(0, 0, 0, 0.56)" d="M17.016 18.984v-1.969h1.969v3.984c0 1.078-.891 2.016-1.969 2.016H6.985c-1.078 0-1.969-.938-1.969-2.016v-3.984h1.969v1.969h10.031zm-7.032-3.796-1.406 1.406L3.984 12l4.594-4.594 1.406 1.406L6.843 12zm5.438 1.406-1.406-1.406L17.157 12l-3.141-3.188 1.406-1.406L20.016 12zM6.984 5.016v1.969H5.015V3.001c0-1.078.891-2.016 1.969-2.016l10.031.047c1.078 0 1.969.891 1.969 1.969v3.984h-1.969V5.016H6.984z"/></svg><svg width="24" height="24" viewBox="0 0 24 24" id="directions_run" x="96" y="72" xmlns="http://www.w3.org/2000/svg"><path fill="#7F7B7B" d="M9.891 19.359 2.907 18l.375-2.016 4.922.984 1.594-8.109-1.828.703v3.422H6.001V8.296l5.203-2.203c.281 0 .516-.094.797-.094.703 0 1.266.375 1.688.984l.984 1.594c.797 1.406 2.391 2.391 4.313 2.391v2.016a7.289 7.289 0 0 1-5.484-2.484l-.609 3 2.109 1.969v7.5h-2.016v-6L10.877 15zM13.5 5.484c-1.078 0-2.016-.938-2.016-2.016s.938-1.969 2.016-1.969 1.969.891 1.969 1.969-.891 2.016-1.969 2.016z"/></svg><svg width="24" height="24" viewBox="0 0 24 24" id="dji_add_outline_template" y="96" xmlns="http://www.w3.org/2000/svg"><path fill="rgba(0,0,0,.54)" d="M21 9H7V7h14v2zm0 4H7v-2h14v2zm0 4H7v-2h14v2zM5 17H3v-2h2v2zM5 7v2H3V7h2zm0 6H3v-2h2v2z"/></svg><svg width="24" height="24" viewBox="0 0 24 24" id="dji_add_outline_template_white" x="24" y="96" xmlns="http://www.w3.org/2000/svg"><path fill="#fff" d="M21 9H7V7h14v2zm0 4H7v-2h14v2zm0 4H7v-2h14v2zM5 17H3v-2h2v2zM5 7v2H3V7h2zm0 6H3v-2h2v2z"/></svg><svg width="24" height="24" viewBox="0 0 24 24" id="dji_add_topic_white" x="48" y="96" xmlns="http://www.w3.org/2000/svg"><path fill="#fff" d="M2 11h2V9H2v2zm0 4h2v-2H2v2zm0-8h2V5H2v2zm4 4h8V9H6v2zm0 4h4v-2H6v2zm12-2V9h-2v4h-4v2h4v4h2v-4h4v-2h-4zM6 5v2h8V5H6z"/></svg><svg width="24" height="24" viewBox="0 0 24 24" id="dji_list_outline_white" x="72" y="96" xmlns="http://www.w3.org/2000/svg"><path fill="#fff" d="M3.99 2h16c1.1 0 2 .98 2 2.179L22 19.822c0 1.198-.9 2.179-2 2.179H4c-1.1 0-2-.98-2-2.179V4.179C2 2.981 2.89 2 3.99 2zm9.007 8.03h-6.88v7.72h6.88v-1.834H8.029v-4.178h4.968V10.03zM7.093 8.295c1.156 0 2.093-.961 2.093-2.147s-.937-2.147-2.093-2.147S5 4.962 5 6.148s.937 2.147 2.093 2.147zm9.497 4.743c1.154 0 2.09-.96 2.09-2.144s-.936-2.144-2.09-2.144-2.09.96-2.09 2.144.936 2.144 2.09 2.144zm.003 6c1.154 0 2.09-.96 2.09-2.144s-.936-2.144-2.09-2.144-2.09.96-2.09 2.144.936 2.144 2.09 2.144z"/></svg><svg width="24" height="24" viewBox="0 0 24 24" id="dji_move_to_folder" x="96" y="96" xmlns="http://www.w3.org/2000/svg"><path fill="rgba(0,0,0,.54)" d="M10 4H4c-1.1 0-1.99.9-1.99 2L2 18c0 1.1.9 2 2 2h16c1.1 0 2-.9 2-2V8c0-1.1-.9-2-2-2h-8l-2-2zm5.1 10.7h-3.2v-3.2h3.2V9.1l4 4-4 4v-2.4z"/></svg><svg width="24" height="24" viewBox="0 0 24 24" id="dji_recents_active" x="120" xmlns="http://www.w3.org/2000/svg"><path fill="rgba(0,0,0,.54)" d="M12 22C6.477 22 2 17.523 2 12S6.477 2 12 2s10 4.477 10 10-4.477 10-10 10zm.5-15H11v6l5.25 3.15.75-1.23-4.5-2.67V7z"/></svg><svg width="24" height="24" viewBox="0 0 24 24" id="dji_sign_out" x="120" y="24" xmlns="http://www.w3.org/2000/svg"><path fill="rgba(0, 0, 0, 0.56)" d="M14.09 15.59 15.5 17l5-5-5-5-1.41 1.41L16.67 11H7v2h9.67l-2.58 2.59zM19 3a2 2 0 0 1 2 2v3h-2V5H5v14h14v-3h2v3a2 2 0 0 1-2 2H5c-1.1 0-2-.9-2-2V5c0-1.1.9-2 2-2h14z"/></svg><svg width="24" height="24" viewBox="0 0 24 24" id="exit_to_app" x="120" y="48" xmlns="http://www.w3.org/2000/svg"><path fill="#7F7B7B" d="M18.984 3C20.062 3 21 3.938 21 5.016v13.969c0 1.078-.938 2.016-2.016 2.016H5.015c-1.125 0-2.016-.938-2.016-2.016v-3.984h2.016v3.984h13.969V5.016H5.015V9H2.999V5.016C2.999 3.938 3.89 3 5.015 3h13.969zm-8.906 12.609 2.578-2.625H3v-1.969h9.656L10.078 8.39l1.406-1.406L16.5 12l-5.016 5.016z"/></svg><svg width="24" height="24" viewBox="0 0 24 24" id="expand_less" x="120" y="72" xmlns="http://www.w3.org/2000/svg"><path d="m12 8.016 6 6-1.406 1.406L12 10.828l-4.594 4.594L6 14.016z"/></svg><svg width="24" height="24" viewBox="0 0 24 24" id="expand_more" x="120" y="96" xmlns="http://www.w3.org/2000/svg"><path d="M16.594 8.578 18 9.984l-6 6-6-6 1.406-1.406L12 13.172z"/></svg><svg width="24" height="24" viewBox="0 0 24 24" id="folder_white" y="120" xmlns="http://www.w3.org/2000/svg"><path fill="#fff" d="M9.984 3.984 12 6h8.016c1.078 0 1.969.938 1.969 2.016V18c0 1.078-.891 2.016-1.969 2.016H3.985c-1.078 0-1.969-.938-1.969-2.016V6c0-1.078.891-2.016 1.969-2.016h6z"/></svg><svg width="24" height="24" viewBox="0 0 24 24" id="group_add" x="24" y="120" xmlns="http://www.w3.org/2000/svg"><path fill="#7F7B7B" d="M12.984 12.984c2.016 0 6 .984 6 3V18h-12v-2.016c0-2.016 3.984-3 6-3zm6.657.188C21.657 13.5 24 14.438 24 15.985v2.016h-3v-2.016c0-1.172-.516-2.063-1.359-2.813zm-6.657-2.156c-1.641 0-3-1.359-3-3s1.359-3 3-3 3 1.359 3 3-1.359 3-3 3zm5.016 0c-.328 0-.609-.047-.891-.141.563-.797.891-1.781.891-2.859s-.328-2.063-.891-2.859c.281-.094.563-.141.891-.141 1.641 0 3 1.359 3 3s-1.359 3-3 3zM8.016 9.984V12h-3v3H3v-3H0V9.984h3v-3h2.016v3h3z"/></svg><svg width="24" height="24" viewBox="0 0 24 24" id="hide_outline" x="48" y="120" xmlns="http://www.w3.org/2000/svg"><path fill="rgba(0, 0, 0, 0.56)" d="M4 19a2 2 0 0 0 2 2h12a2 2 0 0 0 2-2v-2h-2v2H8V5h10v2h2V5c0-1.1-.9-2-2-2H6a2 2 0 0 0-2 2v14zm16-7-4 4v-3h-6v-2h6V8l4 4z"/></svg><svg width="24" height="24" viewBox="0 0 24 24" id="home_white" x="72" y="120" xmlns="http://www.w3.org/2000/svg"><path fill="#fff" d="M9.984 20.016H5.015V12h-3l9.984-9 9.984 9h-3v8.016h-4.969v-6H9.983v6z"/></svg><svg width="24" height="24" viewBox="0 0 24 24" id="invert_colors" x="96" y="120" xmlns="http://www.w3.org/2000/svg"><path fill="#7F7B7B" d="M12 19.594V5.11L7.781 9.329A6.073 6.073 0 0 0 6 13.595c0 3.225 2.775 6 6 6zm5.672-11.672a7.95 7.95 0 0 1 0 11.297c-1.547 1.547-3.609 2.344-5.672 2.344s-4.125-.797-5.672-2.344a7.95 7.95 0 0 1 0-11.297L12 2.25z"/></svg><svg width="24" height="24" viewBox="0 0 24 24" id="invert_colors_off" x="120" y="120" xmlns="http://www.w3.org/2000/svg"><path fill="#7F7B7B" d="m12 5.109-2.297 2.25-1.406-1.406L12 2.25l5.672 5.672c2.438 2.438 2.953 6.047 1.594 9L12 9.703V5.109zm0 14.485v-4.828L7.219 9.985A5.883 5.883 0 0 0 6 13.594c0 3.225 2.775 6 6 6zm8.672 1.265.328.375-1.266 1.266-2.719-2.719a8.003 8.003 0 0 1-5.016 1.781 8.021 8.021 0 0 1-5.672-2.344c-2.906-2.953-3.094-7.547-.563-10.688L2.998 5.764l1.266-1.266C9.725 9.959 15.156 15.451 20.67 20.857z"/></svg><svg width="24" height="24" viewBox="0 0 24 24" id="keyboard_arrow_down" x="144" xmlns="http://www.w3.org/2000/svg"><path d="M7.406 7.828 12 12.422l4.594-4.594L18 9.234l-6 6-6-6z"/></svg><svg width="24" height="24" viewBox="0 0 24 24" id="keyboard_arrow_up" x="144" y="24" xmlns="http://www.w3.org/2000/svg"><path d="M7.406 15.422 6 14.016l6-6 6 6-1.406 1.406L12 10.828z"/></svg><svg width="24" height="24" viewBox="0 0 24 24" id="lock" x="144" y="48" xmlns="http://www.w3.org/2000/svg"><path fill="#7F7B7B" d="M15.094 8.016V6c0-1.688-1.406-3.094-3.094-3.094S8.906 4.312 8.906 6v2.016h6.188zm-3.094 9c1.078 0 2.016-.938 2.016-2.016s-.938-2.016-2.016-2.016-2.016.938-2.016 2.016.938 2.016 2.016 2.016zm6-9c1.078 0 2.016.891 2.016 1.969v10.031c0 1.078-.938 1.969-2.016 1.969H6c-1.078 0-2.016-.891-2.016-1.969V9.985c0-1.078.938-1.969 2.016-1.969h.984V6C6.984 3.234 9.234.984 12 .984S17.016 3.234 17.016 6v2.016H18z"/></svg><svg width="24" height="24" viewBox="0 0 24 24" id="mode_edit" x="144" y="72" xmlns="http://www.w3.org/2000/svg"><path fill="rgba(0,0,0,.54)" d="m20.719 7.031-1.828 1.828-3.75-3.75 1.828-1.828a1.02 1.02 0 0 1 1.406 0l2.344 2.344a1.02 1.02 0 0 1 0 1.406zM3 17.25 14.063 6.187l3.75 3.75L6.75 21H3v-3.75z"/></svg><svg width="24" height="24" viewBox="0 0 24 24" id="mode_edit" x="144" y="96" xmlns="http://www.w3.org/2000/svg"><path fill="rgba(0,0,0,.54)" d="m20.719 7.031-1.828 1.828-3.75-3.75 1.828-1.828a1.02 1.02 0 0 1 1.406 0l2.344 2.344a1.02 1.02 0 0 1 0 1.406zM3 17.25 14.063 6.187l3.75 3.75L6.75 21H3v-3.75z"/></svg><svg width="24" height="24" viewBox="0 0 24 24" id="more_vert_white" x="144" y="120" xmlns="http://www.w3.org/2000/svg"><path fill="#fff" d="M12 15.984c1.078 0 2.016.938 2.016 2.016s-.938 2.016-2.016 2.016S9.984 19.078 9.984 18s.938-2.016 2.016-2.016zm0-6c1.078 0 2.016.938 2.016 2.016s-.938 2.016-2.016 2.016S9.984 13.078 9.984 12 10.922 9.984 12 9.984zm0-1.968c-1.078 0-2.016-.938-2.016-2.016S10.922 3.984 12 3.984s2.016.938 2.016 2.016S13.078 8.016 12 8.016z"/></svg><svg width="24" height="24" viewBox="0 0 24 24" id="music_note" y="144" xmlns="http://www.w3.org/2000/svg"><path fill="#7F7B7B" d="M12 3h6v3.984h-3.984v10.031c0 2.203-1.828 3.984-4.031 3.984s-3.984-1.781-3.984-3.984 1.781-4.031 3.984-4.031c.75 0 1.406.234 2.016.563V3z"/></svg><svg width="24" height="24" viewBox="0 0 24 24" id="pdf" x="24" y="144" xmlns="http://www.w3.org/2000/svg"><path fill="rgba(0, 0, 0, 0.56)" d="M20 2H8c-1.1 0-2 .9-2 2v12c0 1.1.9 2 2 2h12c1.1 0 2-.9 2-2V4c0-1.1-.9-2-2-2zm-8.5 7.5c0 .83-.67 1.5-1.5 1.5H9v2H7.5V7H10c.83 0 1.5.67 1.5 1.5v1zm5 2c0 .83-.67 1.5-1.5 1.5h-2.5V7H15c.83 0 1.5.67 1.5 1.5v3zm4-3H19v1h1.5V11H19v2h-1.5V7h3v1.5zM9 9.5h1v-1H9v1zM4 6H2v14c0 1.1.9 2 2 2h14v-2H4V6zm10 5.5h1v-3h-1v3z"/></svg><svg width="24" height="24" viewBox="0 0 24 24" id="person_add" x="48" y="144" xmlns="http://www.w3.org/2000/svg"><path d="M15 14.016c2.672 0 8.016 1.313 8.016 3.984v2.016H6.985V18c0-2.672 5.344-3.984 8.016-3.984zM6 9.984h3V12H6v3H3.984v-3h-3V9.984h3v-3H6v3zM15 12c-2.203 0-3.984-1.781-3.984-3.984S12.797 3.985 15 3.985s3.984 1.828 3.984 4.031S17.203 12 15 12z"/></svg><svg width="24" height="24" viewBox="0 0 24 24" id="power_settings_new" x="72" y="144" xmlns="http://www.w3.org/2000/svg"><path fill="rgba(0, 0, 0, 0.56)" d="M17.813 5.156c1.922 1.641 3.188 4.125 3.188 6.844 0 4.969-4.031 9-9 9s-9-4.031-9-9c0-2.719 1.266-5.203 3.188-6.844l1.406 1.406A7.042 7.042 0 0 0 5.017 12c0 3.891 3.094 6.984 6.984 6.984S18.985 15.89 18.985 12c0-2.203-.984-4.125-2.578-5.391zM12.984 3v9.984h-1.969V3h1.969z"/></svg><svg width="24" height="24" viewBox="0 0 24 24" id="print" x="96" y="144" xmlns="http://www.w3.org/2000/svg"><path fill="rgba(0,0,0,.54)" d="M18 3v3.984H6V3h12zm.984 9c.563 0 1.031-.422 1.031-.984s-.469-1.031-1.031-1.031-.984.469-.984 1.031.422.984.984.984zm-3 6.984v-4.969H8.015v4.969h7.969zm3-10.968c1.641 0 3 1.359 3 3v6H18V21H6v-3.984H2.016v-6c0-1.641 1.359-3 3-3h13.969z"/></svg><svg width="24" height="24" viewBox="0 0 24 24" id="remove_distractions" x="120" y="144" xmlns="http://www.w3.org/2000/svg"><path fill="rgba(0, 0, 0, 0.56)" d="M8.5 11.5h7V13h-7v-1.5zm0-2.5h7v1.5h-7V9zm0 5h7v1.5h-7V14zm-3-8.5v13a2 2 0 0 0 2 2h9a2 2 0 0 0 2-2v-13a2 2 0 0 0-2-2h-9a2 2 0 0 0-2 2zm11 13h-9v-13h9v13z"/></svg><svg width="24" height="24" viewBox="0 0 24 24" id="scanner" x="144" y="144" xmlns="http://www.w3.org/2000/svg"><path fill="#fff" d="M18.984 17.016V15H9v2.016h9.984zm-12 0V15H5.015v2.016h1.969zm12.797-6.328c.703.188 1.219 1.031 1.219 1.828V18c0 1.078-.938 2.016-2.016 2.016H5.015c-1.078 0-2.016-.938-2.016-2.016v-3.984c0-1.078.938-2.016 2.016-2.016h12.563L3.515 6.891l.703-1.875z"/></svg><svg width="24" height="24" viewBox="0 0 24 24" id="scanner_active" x="168" xmlns="http://www.w3.org/2000/svg"><path fill="#18FFFF" d="M18.984 17.016V15H9v2.016h9.984zm-12 0V15H5.015v2.016h1.969zm12.797-6.328c.703.188 1.219 1.031 1.219 1.828V18c0 1.078-.938 2.016-2.016 2.016H5.015c-1.078 0-2.016-.938-2.016-2.016v-3.984c0-1.078.938-2.016 2.016-2.016h12.563L3.515 6.891l.703-1.875z"/></svg><svg width="24" height="24" viewBox="0 0 24 24" id="scanner_black" x="168" y="24" xmlns="http://www.w3.org/2000/svg"><path fill="rgba(0, 0, 0, 0.56)" d="M18.984 17.016V15H9v2.016h9.984zm-12 0V15H5.015v2.016h1.969zm12.797-6.328c.703.188 1.219 1.031 1.219 1.828V18c0 1.078-.938 2.016-2.016 2.016H5.015c-1.078 0-2.016-.938-2.016-2.016v-3.984c0-1.078.938-2.016 2.016-2.016h12.563L3.515 6.891l.703-1.875z"/></svg><svg width="24" height="24" viewBox="0 0 24 24" id="search" x="168" y="48" xmlns="http://www.w3.org/2000/svg"><path fill="rgba(0,0,0,.54)" d="M9.516 14.016c2.484 0 4.5-2.016 4.5-4.5s-2.016-4.5-4.5-4.5-4.5 2.016-4.5 4.5 2.016 4.5 4.5 4.5zm6 0 4.969 4.969-1.5 1.5-4.969-4.969v-.797l-.281-.281c-1.125.984-2.625 1.547-4.219 1.547C5.907 15.985 3 13.126 3 9.516S5.906 3 9.516 3s6.469 2.906 6.469 6.516c0 1.594-.563 3.094-1.547 4.219l.281.281h.797z"/></svg><svg width="24" height="24" viewBox="0 0 24 24" id="search_white" x="168" y="72" xmlns="http://www.w3.org/2000/svg"><path fill="#fff" d="M9.516 14.016c2.484 0 4.5-2.016 4.5-4.5s-2.016-4.5-4.5-4.5-4.5 2.016-4.5 4.5 2.016 4.5 4.5 4.5zm6 0 4.969 4.969-1.5 1.5-4.969-4.969v-.797l-.281-.281c-1.125.984-2.625 1.547-4.219 1.547C5.907 15.985 3 13.126 3 9.516S5.906 3 9.516 3s6.469 2.906 6.469 6.516c0 1.594-.563 3.094-1.547 4.219l.281.281h.797z"/></svg><svg width="24" height="24" viewBox="0 0 24 24" id="settings" x="168" y="96" xmlns="http://www.w3.org/2000/svg"><path fill="rgba(0, 0, 0, 0.56)" d="M12 15.516c1.922 0 3.516-1.594 3.516-3.516S13.922 8.484 12 8.484 8.484 10.078 8.484 12s1.594 3.516 3.516 3.516zm7.453-2.532 2.109 1.641c.188.141.234.422.094.656L19.64 18.75c-.141.234-.375.281-.609.188l-2.484-.984c-.516.375-1.078.75-1.688.984l-.375 2.625c-.047.234-.234.422-.469.422H9.984c-.234 0-.422-.188-.469-.422l-.375-2.625a6.145 6.145 0 0 1-1.688-.984l-2.484.984c-.234.094-.469.047-.609-.188l-2.016-3.469c-.141-.234-.094-.516.094-.656l2.109-1.641c-.047-.328-.047-.656-.047-.984s0-.656.047-.984L2.437 9.375c-.188-.141-.234-.422-.094-.656L4.359 5.25c.141-.234.375-.281.609-.188l2.484.984c.516-.375 1.078-.75 1.688-.984l.375-2.625c.047-.234.234-.422.469-.422h4.031c.234 0 .422.188.469.422l.375 2.625a6.145 6.145 0 0 1 1.688.984l2.484-.984c.234-.094.469-.047.609.188l2.016 3.469c.141.234.094.516-.094.656l-2.109 1.641c.047.328.047.656.047.984s0 .656-.047.984z"/></svg><svg width="24" height="24" viewBox="0 0 24 24" id="show_original" x="168" y="120" xmlns="http://www.w3.org/2000/svg"><path fill="rgba(0, 0, 0, 0.56)" d="M18.5 18.8V5.2c0-.935-.731-1.692-1.625-1.692l-9.75-.009c-.894 0-1.625.765-1.625 1.7v13.6c0 .935.731 1.7 1.625 1.7h9.75c.894 0 1.625-.765 1.625-1.7zm-11-5.3v-8h4v8h-4zm5 0v-8h4v8h-4zm-5 5v-4h9v4h-9z"/></svg><svg width="24" height="24" viewBox="0 0 24 24" id="show_outline" x="168" y="144" xmlns="http://www.w3.org/2000/svg"><path fill="rgba(0, 0, 0, 0.56)" d="M4 5v14a2 2 0 0 0 2 2h12a2 2 0 0 0 2-2v-4h-2v4H8V5h10v4h2V5c0-1.1-.9-2-2-2H6a2 2 0 0 0-2 2zm6 7 4 4v-3h6v-2h-6V8l-4 4z"/></svg><svg width="23" height="22.524" data-name="Group 737" viewBox="0 0 23 22.524" id="simplify" x="48" y="168" xmlns="http://www.w3.org/2000/svg"><defs><clipPath id="awa"><path d="M0 0h23v22.524H0z" data-name="Rectangle 311"/></clipPath></defs><g clip-path="url(#awa)" data-name="Group 736" fill="#7F7B7B"><path d="M9.967 13.057H1.456A1.457 1.457 0 0 0 0 14.513v6.546a1.457 1.457 0 0 0 1.456 1.456h8.511a1.457 1.457 0 0 0 1.456-1.456v-6.546a1.457 1.457 0 0 0-1.456-1.456m-1.491 6.518H2.947v-3.578h5.529Z" data-name="Path 11358"/><path d="M21.593 0a1.421 1.421 0 0 0-1.408 1.434v14.644h-3.131l1.649-1.65a1.043 1.043 0 0 0-1.459-1.491l-.016.016-3.9 3.9a1.022 1.022 0 0 0-.3.738 1.071 1.071 0 0 0 .3.738l3.887 3.9a1.078 1.078 0 0 0 .737.3 1.064 1.064 0 0 0 .738-.3 1.046 1.046 0 0 0 0-1.475L16.844 18.9h4.831a1.323 1.323 0 0 0 1.324-1.323V1.434A1.421 1.421 0 0 0 21.593 0" data-name="Path 11359"/><path d="M15.526 0H1.456A1.456 1.456 0 0 0 0 1.456V8a1.456 1.456 0 0 0 1.456 1.458h14.07A1.456 1.456 0 0 0 16.982 8V1.456A1.456 1.456 0 0 0 15.526 0" data-name="Path 11360"/></g></svg><svg width="24" height="24" viewBox="0 0 24 24" id="sort_by_alpha" y="168" xmlns="http://www.w3.org/2000/svg"><path fill="rgba(0,0,0,.54)" d="M15.75 16.125h6.094v1.594h-8.531v-1.266l5.906-8.578H13.36V6.281h8.297v1.266zM4.969 13.641H8.86L6.891 8.438zm1.125-7.36h1.641l4.5 11.438h-1.828l-.938-2.438H4.36l-.938 2.438H1.594zm4.172 13.078h4.641l-2.344 2.344zm4.687-14.718h-4.734l2.344-2.344z"/></svg><svg width="24" height="24" viewBox="0 0 24 24" id="volume_up" x="24" y="168" xmlns="http://www.w3.org/2000/svg"><path fill="#7F7B7B" d="M14.016 3.234C18.047 4.125 21 7.734 21 12s-2.953 7.875-6.984 8.766v-2.063c2.906-.844 4.969-3.516 4.969-6.703s-2.063-5.859-4.969-6.703V3.234zM16.5 12a4.451 4.451 0 0 1-2.484 4.031V7.968c1.5.75 2.484 2.25 2.484 4.031zM3 9h3.984L12 3.984v16.031l-5.016-5.016H3v-6z"/></svg></svg>