<?xml version="1.0" encoding="UTF-8"?>
<svg width="24px" height="24px" viewBox="0 0 24 24" version="1.1" xmlns="http://www.w3.org/2000/svg" xmlns:xlink="http://www.w3.org/1999/xlink">
    <title>loading_image</title>
    <defs>
        <path d="M1.0987854,0.216644287 L9,8.12387741 L16.9040679,0.217381605 C17.5530235,0.548928106 18,1.2248 18,2 L18,2 L18,16 C18,17.1 17.1,18 16,18 L16,18 L2,18 C0.9,18 0,17.1 0,16 L0,16 L0,2 C0,1.25 0.41838843,0.592975207 1.03329264,0.250798272 L1.0987854,0.216644287 Z M11.5,9 L8,13.51 L5.5,10.5 L2,15 L16,15 L11.5,9 Z" id="path-1"></path>
        <polygon id="path-3" points="10 4 5 9 0 4 3 4 3 0 7 0 7 4"></polygon>
    </defs>
    <g id="loading_image" stroke="none" stroke-width="1" fill="none" fill-rule="evenodd">
        <g id="Group" transform="translate(3.000000, 2.000000)">
            <g id="ic/image" transform="translate(0.000000, 3.000000)">
                <mask id="mask-2" fill="white">
                    <use xlink:href="#path-1"></use>
                </mask>
                <g id="Shape" fill-rule="nonzero"></g>
                <g id="Group" mask="url(#mask-2)">
                    <g transform="translate(-3.000000, -3.000000)" id="🎨-Color">
                        <rect id="Shape" fill="#80868B" x="0" y="0" width="24" height="24"></rect>
                    </g>
                </g>
            </g>
            <g id="ic/cloud_download" transform="translate(4.000000, 0.000000)">
                <mask id="mask-4" fill="white">
                    <use xlink:href="#path-3"></use>
                </mask>
                <use id="Shape" fill="#80868B" fill-rule="nonzero" xlink:href="#path-3"></use>
            </g>
        </g>
    </g>
</svg>