<svg width="242" height="111" viewBox="0 0 242 111" xmlns="http://www.w3.org/2000/svg" xmlns:xlink="http://www.w3.org/1999/xlink"><title>no-outlines</title><defs><path d="M20.07 1.903c11.842 7.76 20.594 19.35 29.297 28.82-.437 1.41-1.3 2.56-2.794 1.956-.892-.36-1.204-1.61-1.803-2.234-1.986-2.06-4.826-3.788-7.313-5.887-6.622-5.59-14.91-12.725-19.476-18.627-1.1.924-2.966 3.794-3.3 5.714.44 1.695.765 3.418 1.077 5.145 2.71-.33 1.547 3.363 1.82 5.096 1.635.6 2.448 2.027 3.822 2.445 1.23.374 1.992-.494 3.248-.265.195 3.733-5.513 2.132-6.724-.312 2.998 10.596 9.15 18.493 18.29 27.693 7.163 7.21 15.604 12.343 25.185 11.21 4.21-.494 8.298-.446 11.357-1.537 1.44-.516 3.15-2.554 4.28-2.05 1.38.618.62 2.738.472 2.89-.78.82-3.533 1.274-5.276 1.716-3.23.82-5.213.836-7.706 2.215-4.95-.132-9.58.26-14.59-1.523-3.517-1.245-7.147-3.134-10.486-5.338-1.17-.777-3.286-2.178-3.59-3.266-1.506.172-2.254-1.61-3.263-2.595-1.947-1.92-4.015-3.44-5.678-5.42-4.98-5.922-8.158-13.39-11.543-19.997-.023-.22-.03-.444.205-.356-1.278-1.62-2.605-5.708-3.466-8.428-1.475 3.344-1.747 7.908-2.586 12.313-.75 3.944-2.652 7.655-3.602 10.775-.7 2.293-1.526 5.596-4.67 3.967-.166-1.463.347-3.11.556-4.675-.796.71-.932-.243-1.502-1.107C3.438 31.04 3.79 19.52 9.246 9.935c.022-.76-.166-1.464.137-2.3 1.517-.305 1.164-1.758 1.47-2.96 3.072-2.25 3.79-6.328 9.216-2.772z" id="b"/><filter x="-50%" y="-50%" width="200%" height="200%" filterUnits="objectBoundingBox" id="a"><feOffset dy="12" in="SourceAlpha" result="shadowOffsetOuter1"/><feGaussianBlur stdDeviation="6" in="shadowOffsetOuter1" result="shadowBlurOuter1"/><feComposite in="shadowBlurOuter1" in2="SourceAlpha" operator="out" result="shadowBlurOuter1"/><feColorMatrix values="0 0 0 0 0 0 0 0 0 0 0 0 0 0 0 0 0 0 0.24 0" in="shadowBlurOuter1" result="shadowMatrixOuter1"/><feOffset in="SourceAlpha" result="shadowOffsetOuter2"/><feGaussianBlur stdDeviation="6" in="shadowOffsetOuter2" result="shadowBlurOuter2"/><feComposite in="shadowBlurOuter2" in2="SourceAlpha" operator="out" result="shadowBlurOuter2"/><feColorMatrix values="0 0 0 0 0 0 0 0 0 0 0 0 0 0 0 0 0 0 0.12 0" in="shadowBlurOuter2" result="shadowMatrixOuter2"/><feMerge><feMergeNode in="shadowMatrixOuter1"/><feMergeNode in="shadowMatrixOuter2"/></feMerge></filter></defs><g fill="#000" fill-rule="evenodd"><path d="M121.44 49.26l-.5.94-.46.06h-.62l-.34.06-.26-.06-1.26.1-.36-.08-.08.02c-.133.053-.36.107-.68.16h-.72l-.16-.06h-.06c-.133 0-.327.033-.58.1-.2.053-.447.08-.74.08l-.32-.08-.06.24H114l-.06.94.1.16-.04.3v.52c0 .547-.053.913-.16 1.1l.16.22-.12.58.12.16-.22.32v.16l-.12.22.08.44-.06.84-.12.38c.013.013.02.047.02.1 0-.027-.02.06-.06.26 0 .013.007.04.02.08v.1c0 .147-.047.287-.14.42l.06.28c0 .093-.007.153-.02.18l-.02.06c-.027.08-.04.16-.04.24 0 .253.027.467.08.64-.293.053-.46.08-.5.08-.12 0-.22-.013-.3-.04l-.04-.02c-.347-.08-.52-.4-.52-.96.013-.067.02-.16.02-.28 0-.107-.013-.257-.04-.45-.027-.193-.04-.337-.04-.43 0-.133.02-.247.06-.34l.08-.82c-.107-.147-.16-.267-.16-.36 0-.027.013-.08.04-.16-.053-.107-.08-.187-.08-.24 0-.107.033-.193.1-.26 0-.12.053-.287.16-.5-.027-.107-.04-.22-.04-.34.093 0 .14-.047.14-.14 0-.027-.013-.07-.04-.13-.027-.06-.04-.123-.04-.19l.06.08-.08-.18c0-.253.033-.473.1-.66v-.58l-.1-.42.1-.78-.1-.58.04-.2-.3.02-.22.12-.16-.02v.08c-.28 0-.553-.02-.82-.06l-.06.16-.78-.26-1.04-.02-.66.18c-.533-.453-.8-.78-.8-.98 0-.12.02-.24.06-.36v.06l.44-.38.38.02 1.34.24.34-.1 1.02.02.8.1.52-.2.18-.52.8.2.04-.04.04.06.28.34.08.02.28-.1.58.14c.573-.107.913-.16 1.02-.16.16 0 .327.033.5.1.04 0 .12.007.24.02.187-.027.307-.04.36-.04h.14l.68-.08.58.1.08.04.3-.1.42.1 1-.04.44.06h1.06zm6.4 5.06l-.12.36c0 .347-.02.62-.06.82l-.12.2v.22l-.1.14-.06.28-.22.22-.14.5-.16.06-.08.22-.24.14-.16.34-.24.12-.02.24-.38.14c-.173.24-.387.393-.64.46l-.08.02c-.187.28-.433.42-.74.42-.133.08-.287.12-.46.12l-.2.14-.2.06-.26.2-.26-.02-.28.08-.34-.14-.86-.06-.3-.46-.44-.46.1-.32-.3-.68.14-.26-.1-.48.1-.3c-.027-.187-.04-.32-.04-.4 0-.253.067-.44.2-.56.013-.133.1-.353.26-.66h.1l-.04-.14.06-.28v-.3c.107-.12.167-.2.18-.24l-.06-.28v-.08c.093-.187.14-.38.14-.58l.42-.58.05-.04c.033-.027.063-.053.09-.08l-.02-.08h.08l.3-.34.02-.46.5-.18c.187-.12.307-.32.36-.6h.26c.147-.08.28-.12.4-.12s.233.027.34.08l.22.02.52-.2.28.26.22.14h.16l.3.16h.16c.173.16.373.38.6.66l.04.1.14.08.42.54.38.94v.2l.18.7zm-1.32.48l-.02-.1c-.093-.093-.147-.193-.16-.3l.06-.1-.18-.38.04-.38-.08-.1c-.173-.133-.267-.24-.28-.32-.12-.053-.18-.187-.18-.4l-.12-.02-.24-.4-.18-.14-.42-.16-.16-.04c-.08 0-.133-.027-.16-.08l-.4.44-.26.56-.42.22-.06.22-.2.1-.08.52-.24.12c-.053.187-.08.36-.08.52l-.32.3.1.06c0 .16-.06.3-.18.42-.04.12-.093.253-.16.4v.16l-.06.08.02.24-.22.54.04.1v.56l-.08.28.02.28.18.26.28.1.1.04.16-.08.52.04.08-.2h.08c.08 0 .127.02.14.06l.18-.06.16.06.26-.18.04-.06.18-.04c.093-.147.313-.293.66-.44l.04-.1.4-.28.22-.32.32-.16.02-.1.1-.22v-.26l.24-.2.08-.14.1-.12c-.053-.16-.08-.273-.08-.34 0-.12.04-.247.12-.38l.08-.08zm15.94 1.08l-.38.36-.02.12c-.04.24-.153.433-.34.58-.32.6-.767 1.04-1.34 1.32l-.3.24-.26.04-.32.24-.22.02-.5.32-.32-.04-.36.16-.28-.08-.14.12-.38-.06-.38.06-.14-.12-.4-.08-.58-.44-.32-.4c-.2-.253-.3-.467-.3-.64v-.06l-.2-.3v-.26c-.04-.16-.06-.307-.06-.44v-.14l-.1-.34.1-.24-.08-.16.24-.38-.06-.32.16-.52.08-.12.08-.48-.04-.08.24-.26.04-.2.16-.46.26-.56.36-.32.08-.18.12-.22.04-.2.32-.38c.08-.027.173-.053.28-.08.053-.253.387-.4 1-.44.52.107.853.247 1 .42.147.027.26.087.34.18l.42.02.28.36c.067.133.113.267.14.4l.16.16-.06.3c.013.093.02.24.02.44l.1.08v.3l.08.62c-.28.28-.6.44-.96.48-.187-.347-.42-.607-.7-.78l-.04-.66-.12-.22v-.16l-.2-.24-.1-.08-.18.06h-.26c-.173.04-.34.167-.5.38-.16.213-.32.44-.48.68l-.02.2-.12.1v.36l-.26.28-.32.88.02.24-.16.36.06.44-.12.06-.04.56.02.1.24.24.1.42.28.08.02.16.34.06.26.06c.093-.053.207-.08.34-.08h.14c.16-.067.307-.1.44-.1.093-.04.213-.08.36-.12.16-.213.387-.32.68-.32h.12c.067 0 .113-.033.14-.1.147-.227.38-.373.7-.44.373-.333.587-.6.64-.8.187-.107.307-.273.36-.5l.12-.08.06-.46c.613.093.92.4.92.92v.16zm9.1-4.32l-.16.66-.74.1-.4.26-.26-.12-.28.16-.3.12-.2.14v.08l-.42.2-.28.36h-.14c-.213.227-.367.367-.46.42l-.28.46-.1.04c-.04.107-.087.267-.14.48l-.28.1-.12.24-.16.2-.04.3-.16.06v.3l-.06.06c.04.067.087.14.14.22l-.3.12-.04.26-.2.34.12.26-.26.36c.027.133.04.227.04.28v.08c-.013.04-.02.073-.02.1l.04.18.34.36-.26.46-.24.18-.56.28-.74-.3v-.46l-.08-.18.06-.3c-.027-.213-.04-.373-.04-.48 0-.04.007-.093.02-.16v-.14l-.02-.2c-.093-.093-.14-.2-.14-.32 0-.107.047-.227.14-.36 0-.067-.013-.267-.04-.6l.06-.06-.06-.26.04-.24-.04-.14.06-.46-.12-.2.08-.22-.08-.26c.013-.08.02-.187.02-.32 0-.2-.027-.333-.08-.4l.08-.12-.08-.36-.18-.26.1-.32-.08-.12-.08-.48v-.16c-.067-.08-.1-.18-.1-.3 0-.267.293-.493.88-.68l.5.1.1.38.2.26-.06.54c.04.267.087.56.14.88l.06.32c.013.027.027.1.04.22 0 .08-.033.167-.1.26l.06.4-.04.44-.08.2.06.08.04.2c.08-.093.127-.193.14-.3l.08-.3c.04-.08.1-.14.18-.18l.08-.3.28-.16.04-.24.22-.24.16-.3c.173-.187.34-.307.5-.36l.04-.06.18-.28.2-.04.06-.06.08-.12.22-.12.12-.14.12.02.16-.08.08-.12.24-.12.34-.22.48-.16c.187-.027.287-.04.3-.04v.02c-.013 0-.02.007-.02.02h.02c.053 0 .133-.027.24-.08.067-.053.16-.08.28-.08.053 0 .147.013.28.04.347.013.54.173.58.48zm6.82 5.8c0 .16-.12.36-.36.6-.067.213-.167.387-.3.52l-.12.02-.22.38-.36.06-.38.24-.2.36-.22-.04c-.147.067-.267.107-.36.12l-.12.18c-.04-.013-.1-.02-.18-.02-.173 0-.34.12-.5.36l-.28-.24c-.053.013-.133.02-.24.02-.173 0-.32-.027-.44-.08h-.34l-.16-.1c-.507-.08-.827-.273-.96-.58v-.06l-.24-.12-.12-.34-.24-.16v-.3l-.24-.88.04-.72.08-.32v-.42l.1-.32-.02-.14.14-.24-.04.04c0-.12.033-.247.1-.38v-.1l-.06-.48c0-.227.1-.427.3-.6.013-.027.02-.067.02-.12 0-.053-.023-.163-.07-.33-.047-.167-.07-.283-.07-.35 0-.16.04-.327.12-.5.107.16.26.24.46.24h.06c.027-.053.087-.113.18-.18.107-.333.253-.613.44-.84l.08-.08c0-.053.04-.207.12-.46h.16l.04-.1.16-.04c.067-.107.11-.17.13-.19.02-.02.163-.103.43-.25.053-.093.133-.18.24-.26.053-.027.12-.053.2-.08l.08-.12c.36-.12.587-.18.68-.18.107 0 .207.027.3.08l.1-.02.14.08c.16.12.32.22.48.3l.34.26v.08c.307.24.46.58.46 1.02l-.06.2.06.66-.18.12-.2.52-.38.42-.02.32c-.427.307-.82.553-1.18.74-.12.187-.307.28-.56.28h-.06l-.38.24h-.32l-.48.2-.36-.18h-.04c-.027.107-.053.267-.08.48l-.16.12-.02.24-.12.34c.04.32.06.527.06.62l-.08.06c0 .173-.007.3-.02.38 0 .013-.007.033-.02.06v.06c0 .107.053.193.16.26.04.16.107.26.2.3l.14.12.44.12v.06l.16.04.68.04.4-.06.2-.14.12-.04.2-.3.1-.02.5-.16c.053-.093.14-.173.26-.24l.06-.1c.267-.053.42-.193.46-.42.187-.187.427-.28.72-.28h.08c.253.293.38.533.38.72zm-1.98-5.76c0-.04-.02-.12-.06-.24l-.1-.02-.04.02h-.08c-.027.013-.053.02-.08.02-.013 0-.033-.007-.06-.02h-.06l-.2.14-.18.02-.1.04-.34.44-.22.16-.32.56-.18.12c-.04.227-.133.42-.28.58l-.08.14c.147-.093.313-.14.5-.14l.14-.06.06-.18.28.02.16-.24h.12l.22.08.1-.3h.14v-.22l.26-.06.06-.06.04-.18.26-.38c.027-.067.04-.147.04-.24zm11.48-.7l-.2.26.16.48-.26.3-.1.42-.06.1.04.1c0 .187-.047.327-.14.42l-.04.06v.08c.04.093.06.18.06.26 0 .067-.007.113-.02.14l.02.08-.08.22.06.24-.16.16.06.28.12.14-.18.16v.32l-.14.32.1.32-.12.16.2.14-.28.46-.02.06.2.04-.14.46v.08c0 .093-.007.167-.02.22l.02.06.32.04.26.4-.14.3.22-.02c.08.16.127.3.14.42l-.3.3c-.093.093-.227.187-.4.28l-.34.18-.1-.1-.2.12-.62-.72v-.34c-.08-.267-.12-.513-.12-.74v-.12l-.12-1.18.16-.84-.12-.48-.34.56-.18.52-.16.08-.28.44-.5.46-.14.24-.44.38-.1.26-.64.4-.68.76-.38.08-.26.2c-.333-.013-.587-.14-.76-.38-.6-.293-.913-.713-.94-1.26l.1-.06-.02-.12-.02-.24-.12-.26.12-.28.04-.42.14-.66v-.08c-.013-.027-.02-.053-.02-.08 0-.053.013-.12.04-.2-.013-.027-.02-.08-.02-.16 0-.093.04-.247.12-.46l.14-.06c-.08-.067-.12-.14-.12-.22 0-.053.007-.093.02-.12-.013-.04-.02-.087-.02-.14 0-.16.08-.28.24-.36.04-.133.113-.267.22-.4l-.1-.16.24-.3v-.08c0-.253.087-.487.26-.7l-.02-.36.08-.08v-.06c-.013-.027-.02-.047-.02-.06 0-.08.027-.147.08-.2v-.12c.053-.133.193-.333.42-.6.227-.267.393-.5.5-.7l.1.1.22-.1.1-.04.66-.3 1.54.08v.14l.48.1c.307 0 .507.1.6.3 0-.04.007-.087.02-.14V50l.42.38.38.08.72-.18.26.5.3.12zm-1.9 1.04l-.08-.14-.16-.04-.62-.5-.4-.06h-.32l-.04-.04-.16.06-.18-.1h-.52l.06.08-.46.16-.08.1-.06.02c-.24.2-.407.367-.5.5l-.14.48-.08.18.2.28-.34.26.04.08c-.147.253-.22.5-.22.74l-.16.2v.36l-.16.18-.04.18-.06.04v.28l-.06.1c0 .16-.013.287-.04.38l.04.1-.18.38.08.12-.14.2.14.38-.22.28.04.38v.06l.08.04.1-.02c.067-.067.133-.127.2-.18l-.04-.16.28-.04.06-.14 1.18-.96.12-.04.14-.34c.08-.027.193-.08.34-.16l.12-.32h.16l-.06-.34.28-.04c.027-.053.07-.12.13-.2.06-.08.123-.153.19-.22l1.02-1.36.16-.3-.02-.08.14-.22.04-.22.18-.16.02-.22zm10.72-.12c0 .12-.12.233-.36.34-.053.067-.153.127-.3.18-.187.08-.32.147-.4.2l-.42-.14c-.213.16-.487.24-.82.24l-.24-.06-.18.16h-.54l-.34.22c-.147-.053-.287-.08-.42-.08-.04.027-.133.053-.28.08-.067 0-.14-.02-.22-.06l-.06.76.02.56-.06.7.04.76.06.36v.28l.28.6c-.04.04-.06.087-.06.14 0 .093.147.167.44.22l.04.24.14.06.24.16.16.12c.133-.027.227-.04.28-.04.12 0 .24.02.36.06.053-.027.167-.12.34-.28.12-.107.233-.16.34-.16h.06c.027.013.047.02.06.02.12-.253.333-.42.64-.5.28 0 .513.087.7.26v.14c0 .453-.16.74-.48.86-.12.28-.373.46-.76.54l-.24.22h-.26l-.46.12c-.107.027-.26.04-.46.04-.107 0-.22-.027-.34-.08h-.26l-.7-.38-.18-.06-.42-.56-.24-.26-.44-1-.16-.94.04-.24-.16-.22.1-.28-.1-.44.14-.14.04-.26-.06-.24.04-.36-.08-.32.1-.1v-.32l-.14-.06-.38.08-.36-.26h-.06c-.4 0-.6-.213-.6-.64V52l-.24-.38.38-.36.5.08.26-.04.38.1h.42V51l-.26-.56.26-.14-.1-.3.02-.62-.16-.26c-.093-.147-.14-.28-.14-.4 0-.147.033-.267.1-.36l.06-.28.16-.16c.36-.067.6-.1.72-.1.427 0 .66.193.7.58l-.06.1c.08.12.12.233.12.34 0 .013-.007.047-.02.1l-.04.12-.02.14.08.26-.02.1.04.28-.18.24.1.4-.08.48.16.18-.16.36.62-.08 1.1.1.88-.14.3.02.1-.02h.78c.413 0 .62.147.62.44zm7.46 5.54c0 .16-.12.36-.36.6-.067.213-.167.387-.3.52l-.12.02-.22.38-.36.06-.38.24-.2.36-.22-.04c-.147.067-.267.107-.36.12l-.12.18c-.04-.013-.1-.02-.18-.02-.173 0-.34.12-.5.36l-.28-.24c-.053.013-.133.02-.24.02-.173 0-.32-.027-.44-.08h-.34l-.16-.1c-.507-.08-.827-.273-.96-.58v-.06l-.24-.12-.12-.34-.24-.16v-.3l-.24-.88.04-.72.08-.32v-.42l.1-.32-.02-.14.14-.24-.04.04c0-.12.033-.247.1-.38v-.1l-.06-.48c0-.227.1-.427.3-.6.013-.027.02-.067.02-.12 0-.053-.023-.163-.07-.33-.047-.167-.07-.283-.07-.35 0-.16.04-.327.12-.5.107.16.26.24.46.24h.06c.027-.053.087-.113.18-.18.107-.333.253-.613.44-.84l.08-.08c0-.053.04-.207.12-.46h.16l.04-.1.16-.04c.067-.107.11-.17.13-.19.02-.02.163-.103.43-.25.053-.093.133-.18.24-.26.053-.027.12-.053.2-.08l.08-.12c.36-.12.587-.18.68-.18.107 0 .207.027.3.08l.1-.02.14.08c.16.12.32.22.48.3l.34.26v.08c.307.24.46.58.46 1.02l-.06.2.06.66-.18.12-.2.52-.38.42-.02.32c-.427.307-.82.553-1.18.74-.12.187-.307.28-.56.28h-.06l-.38.24h-.32l-.48.2-.36-.18h-.04c-.027.107-.053.267-.08.48l-.16.12-.02.24-.12.34c.04.32.06.527.06.62l-.08.06c0 .173-.007.3-.02.38 0 .013-.007.033-.02.06v.06c0 .107.053.193.16.26.04.16.107.26.2.3l.14.12.44.12v.06l.16.04.68.04.4-.06.2-.14.12-.04.2-.3.1-.02.5-.16c.053-.093.14-.173.26-.24l.06-.1c.267-.053.42-.193.46-.42.187-.187.427-.28.72-.28h.08c.253.293.38.533.38.72zm-1.98-5.76c0-.04-.02-.12-.06-.24l-.1-.02-.04.02h-.08c-.027.013-.053.02-.08.02-.013 0-.033-.007-.06-.02h-.06l-.2.14-.18.02-.1.04-.34.44-.22.16-.32.56-.18.12c-.04.227-.133.42-.28.58l-.08.14c.147-.093.313-.14.5-.14l.14-.06.06-.18.28.02.16-.24h.12l.22.08.1-.3h.14v-.22l.26-.06.06-.06.04-.18.26-.38c.027-.067.04-.147.04-.24zm16.88-.7l-.2.26.16.48-.26.3-.1.42-.06.1.04.1c0 .187-.047.327-.14.42l-.04.06v.08c.04.093.06.18.06.26 0 .067-.007.113-.02.14l.02.08-.08.22.06.24-.16.16.06.28.12.14-.18.16v.32l-.14.32.1.32-.12.16.2.14-.28.46-.02.06.2.04-.14.46v.08c0 .093-.007.167-.02.22l.02.06.32.04.26.4-.14.3.22-.02c.08.16.127.3.14.42l-.3.3c-.093.093-.227.187-.4.28l-.34.18-.1-.1-.2.12-.62-.72v-.34c-.08-.267-.12-.513-.12-.74v-.12l-.12-1.18.16-.84-.12-.48-.34.56-.18.52-.16.08-.28.44-.5.46-.14.24-.44.38-.1.26-.64.4-.68.76-.38.08-.26.2c-.333-.013-.587-.14-.76-.38-.6-.293-.913-.713-.94-1.26l.1-.06-.02-.12-.02-.24-.12-.26.12-.28.04-.42.14-.66v-.08c-.013-.027-.02-.053-.02-.08 0-.053.013-.12.04-.2-.013-.027-.02-.08-.02-.16 0-.093.04-.247.12-.46l.14-.06c-.08-.067-.12-.14-.12-.22 0-.053.007-.093.02-.12-.013-.04-.02-.087-.02-.14 0-.16.08-.28.24-.36.04-.133.113-.267.22-.4l-.1-.16.24-.3v-.08c0-.253.087-.487.26-.7l-.02-.36.08-.08v-.06c-.013-.027-.02-.047-.02-.06 0-.08.027-.147.08-.2v-.12c.053-.133.193-.333.42-.6.227-.267.393-.5.5-.7l.1.1.22-.1.1-.04.66-.3 1.54.08v.14l.48.1c.307 0 .507.1.6.3 0-.04.007-.087.02-.14V50l.42.38.38.08.72-.18.26.5.3.12zm-1.9 1.04l-.08-.14-.16-.04-.62-.5-.4-.06h-.32l-.04-.04-.16.06-.18-.1h-.52l.06.08-.46.16-.08.1-.06.02c-.24.2-.407.367-.5.5l-.14.48-.08.18.2.28-.34.26.04.08c-.147.253-.22.5-.22.74l-.16.2v.36l-.16.18-.04.18-.06.04v.28l-.06.1c0 .16-.013.287-.04.38l.04.1-.18.38.08.12-.14.2.14.38-.22.28.04.38v.06l.08.04.1-.02c.067-.067.133-.127.2-.18l-.04-.16.28-.04.06-.14 1.18-.96.12-.04.14-.34c.08-.027.193-.08.34-.16l.12-.32h.16l-.06-.34.28-.04c.027-.053.07-.12.13-.2.06-.08.123-.153.19-.22l1.02-1.36.16-.3-.02-.08.14-.22.04-.22.18-.16.02-.22zm13.36 2.94l.365-.412-.228.253c-.006.008-.01.014-.017.02v.04l.04-.14.26-.3.18-.34v-.2l.3-.1.04-.26.08-.08.02-.1v-.14l.28-.28v-.1c-.013-.04-.02-.067-.02-.08 0-.24.133-.373.4-.4.12-.24.3-.38.54-.42l.12-.18.04-.04c.12-.173.3-.293.54-.36l.18-.22h.48l.24.28.22.12.02.06.14.04.04.42.34.2-.14.44.22.48v.56l.16.76.04.72.18.42.12.52c.08.08.14.193.18.34l.36.1v.4l.2.22v.06l.08.02.08.12.08-.1c-.027 0 .007.007.1.02.147 0 .3-.133.46-.4l.24-.06.06-.1c.04-.107.12-.187.24-.24l.14.02.08-.08.02-.1.06-.08c.133-.093.22-.233.26-.42l.22-.24.04-.18.14-.32.38-.14.54.18.18.58c0 .013.007.027.02.04v.06c0 .107-.087.247-.26.42l-.22.34-.08.4-.18.06-.04.12c-.213.067-.367.233-.46.5-.147.187-.307.32-.48.4-.067.067-.127.113-.18.14l-.1.18-.18.04-.52.28-.68.08-.18-.04-.3.06-.12-.14c-.187-.093-.32-.187-.4-.28-.16-.04-.28-.167-.36-.38-.227-.267-.34-.48-.34-.64v-.06l-.14-.24-.04-.04-.12-.36-.18-.38.04-.46-.2-.26-.3-1.72c-.04-.227-.06-.42-.06-.58l-.04-.1-.1-.14-.18.24-.72.76-.26.42-.14.28-.22.32-.16.16.02.1-.28.62-.16.2-.2.04-.18.18c0 .267-.127.44-.38.52l-.04.04c-.12.293-.253.473-.4.54l-.18.28c-.293.267-.487.433-.58.5-.04.133-.113.247-.22.34-.027.04-.073.093-.14.16-.04.227-.227.387-.56.48l-.22.06c-.267-.013-.487-.167-.66-.46l-.3-.5.1-.48-.04-.26.04-.04.02-.26-.22-.48.16-.24-.08-.26.14-.28.04-.46-.08-.08.16-.28-.06-.14-.02-.32.08-.6c-.027-.133-.04-.22-.04-.26 0-.027.007-.053.02-.08v-.08l-.1-.16.06-.64-.02-.22.06-.32-.08-.54.36-.6c.413.067.7.157.86.27.16.113.24.317.24.61v.18l.14.24-.06.42.08.8-.14.38.06.42v.34l-.16.22.12.36-.12.22-.02.22.12.22-.16.42-.06.18v.18l.1.2.34-.34c0-.2.067-.333.2-.4.013-.133.067-.233.16-.3l-.06-.06.26-.24.06-.08v-.18l.32-.24.08-.2.18-.12zm16.58 2.48c0 .16-.12.36-.36.6-.067.213-.167.387-.3.52l-.12.02-.22.38-.36.06-.38.24-.2.36-.22-.04c-.147.067-.267.107-.36.12l-.12.18c-.04-.013-.1-.02-.18-.02-.173 0-.34.12-.5.36l-.28-.24c-.053.013-.133.02-.24.02-.173 0-.32-.027-.44-.08h-.34l-.16-.1c-.507-.08-.827-.273-.96-.58v-.06l-.24-.12-.12-.34-.24-.16v-.3l-.24-.88.04-.72.08-.32v-.42l.1-.32-.02-.14.14-.24-.04.04c0-.12.033-.247.1-.38v-.1l-.06-.48c0-.227.1-.427.3-.6.013-.027.02-.067.02-.12 0-.053-.023-.163-.07-.33-.047-.167-.07-.283-.07-.35 0-.16.04-.327.12-.5.107.16.26.24.46.24h.06c.027-.053.087-.113.18-.18.107-.333.253-.613.44-.84l.08-.08c0-.053.04-.207.12-.46h.16l.04-.1.16-.04c.067-.107.11-.17.13-.19.02-.02.163-.103.43-.25.053-.093.133-.18.24-.26.053-.027.12-.053.2-.08l.08-.12c.36-.12.587-.18.68-.18.107 0 .207.027.3.08l.1-.02.14.08c.16.12.32.22.48.3l.34.26v.08c.307.24.46.58.46 1.02l-.06.2.06.66-.18.12-.2.52-.38.42-.02.32c-.427.307-.82.553-1.18.74-.12.187-.307.28-.56.28h-.06l-.38.24h-.32l-.48.2-.36-.18h-.04c-.027.107-.053.267-.08.48l-.16.12-.02.24-.12.34c.04.32.06.527.06.62l-.08.06c0 .173-.007.3-.02.38 0 .013-.007.033-.02.06v.06c0 .107.053.193.16.26.04.16.107.26.2.3l.14.12.44.12v.06l.16.04.68.04.4-.06.2-.14.12-.04.2-.3.1-.02.5-.16c.053-.093.14-.173.26-.24l.06-.1c.267-.053.42-.193.46-.42.187-.187.427-.28.72-.28h.08c.253.293.38.533.38.72zm-1.98-5.76c0-.04-.02-.12-.06-.24l-.1-.02-.04.02h-.08c-.027.013-.053.02-.08.02-.013 0-.033-.007-.06-.02h-.06l-.2.14-.18.02-.1.04-.34.44-.22.16-.32.56-.18.12c-.04.227-.133.42-.28.58l-.08.14c.147-.093.313-.14.5-.14l.14-.06.06-.18.28.02.16-.24h.12l.22.08.1-.3h.14v-.22l.26-.06.06-.06.04-.18.26-.38c.027-.067.04-.147.04-.24zm16.2-.68l-.1.38.04.2-.24.78-.04.28-.28.3-.1.38-.22.32-.32.7-.38.64-.58.86-.1.26-.3.54-.34.7-.6 1.08-.12.48-.32.46-.6-.2-.34-.2-.32-.94-.4-.68v-.2l-.24-.56-.1-.12-.84-1.76-.26-.42-.22.34-.32.26-.46.64-.32.34-.18.52-.44.54-.04.18-.3.62v.3l-.2.28-.02.28-.2.06-.44.46.08-.04c-.133.08-.313.133-.54.16l-.14-.16-.3-.12v-.22l-.12-.16-.12-.54-.16-.36v-.26l-.02-.08-.3-.86-.08-.54-.2-.22.04-.26-.2-.48v-.18l-.16-.44-.28-.38.04-.44-.02-.14-.22-.52-.04-.32-.12-.2c-.08-.133-.14-.267-.18-.4l-.34-.86.28-.36c.08-.147.247-.24.5-.28l.42-.06.14.2.26.12.18.36.16.14-.06.32.08.2-.06.18.2.32-.04.3.26.9-.04.22.12.54.28.64.12.76.2.24v.48l.14.42.02.16.28-.18.46-.74.14-.34.16-.28c0-.133.027-.233.08-.3h.12l.06-.36.22-.04c.027-.107.087-.187.18-.24v-.04c0-.08.04-.16.12-.24l-.04-.14.1-.04-.02-.12c.12-.213.253-.373.4-.48v-.4l.28-.16.08-.06.04-.04c-.067-.133-.1-.28-.1-.44 0-.24.107-.473.32-.7.12-.053.267-.08.44-.08.107 0 .187.007.24.02l.38.34.2.3.12.48.18.32-.04.22.14.44v.18l.34.6v.06l.08.06.4.96.02.26.2.22.46 1.04.1-.18.36-.74.22-.18.16-.42.2-.1v-.3c.08-.067.187-.133.32-.2.08-.04.12-.073.12-.1l-.02-.42.24-.24.1-.06.3-.5v-.06c.027-.147.113-.313.26-.5l-.04-.22.36-.44.18-.44c-.147-.4-.22-.74-.22-1.02 0-.413.213-.647.64-.7l.54.16.08-.12.14.18.2.14-.06.22.24.28zm-90.73 27.8l-.2.42-.08.66-.2.18c-.08.533-.287.873-.62 1.02l-.14.06-1.2.84-.36.2-.58.64-.36-.06-.22.16-.4.14-1 .52c-.08-.027-.187-.087-.32-.18-.093.133-.24.22-.44.26h-.08l-.4.32-.08-.04h-.38l-.18.14-.76-.02-1 .16h-.12c-.093 0-.207.013-.34.04l-.56-.08-.1-.1-.8-.12-.34-.16h-.48v-.22l-.38-.4-.5-.22-.22-.62-.02-.46-.12-.14-.02-.9.26-.8-.04-.48.1-.1V79l.28-.28v-.2l.12-.22v-.2l.08-.1-.1-.22.32-.22.38-.8.82-1.18.2-.1c.04-.067.1-.153.18-.26l.2-.16v-.32l.3-.06c.2-.16.42-.28.66-.36l.1-.12c.12-.053.467-.12 1.04-.2l.54-.08.64.08.38-.02h.54l.12.02.06.02h.1l.12-.04.64.02-.04.12.3.08c.08-.027.12-.08.12-.16.067.12.213.18.44.18l.16.16h.6l1.34.58.16.44.12.18.36.14.54.88.32.4c.36.84.54 1.34.54 1.5v.22zm-1.5.12l-.1-.56.1-.16-.14-.34c.013-.027.02-.067.02-.12 0-.04-.013-.073-.04-.1l-.36-.24-.12-.32-.16-.06-.06-.28-.5-.46-.3-.24-.12.06c-.307-.28-.873-.513-1.7-.7-.107 0-.173-.007-.2-.02l-.1.06-.36-.1-.2.1c-.2-.067-.32-.1-.36-.1-.013 0-.063.013-.15.04-.087.027-.163.04-.23.04s-.12-.007-.16-.02c-.093.173-.313.327-.66.46l-.26-.04-.28.14-.36-.04c-.24.187-.52.38-.84.58l-.1.14-.1.44-.46.2-.08.1c-.08.16-.187.307-.32.44v.34l-.28.12-.06.04-.18.6-.28.16c-.04.68-.153 1.153-.34 1.42-.107.147-.167.347-.18.6l-.08.22.06.14.06.3.24.26.04.26.2.2c.373.213.707.327 1 .34l.84-.22.18.18h.24l.04-.04.6-.1.64.1c.107-.107.233-.16.38-.16.307-.187.567-.28.78-.28l.42-.24.32-.02.26-.2.62-.02c.053-.013.113-.02.18-.02l.04-.06c.093-.133.233-.22.42-.26l.24-.56.16.1.16-.08.28-.26.1.04.34-.24.6-.6.26-.08.12-.3.16-.1-.04-.18.16-.3zm14.38 4c0 .16-.12.353-.36.58l-.16.06-.14.18-.36.1c-.067.093-.133.14-.2.14-.013 0-.027-.007-.04-.02h-.06c-.293.147-.647.22-1.06.22h-.16l-.5-.1-.34-.16-.76-.64-.16-.54-.32-.26c.04-.053.06-.14.06-.26 0-.08-.053-.213-.16-.4l.06-.48v-.08c0-.16-.047-.367-.14-.62l.12-.6-.26.52-.3.04-.04.42c-.107.053-.233.08-.38.08l-.22.48-.26.3c-.107.12-.2.187-.28.2l-.06.04-.72.74h-.08l-.38.44-.36.18-.2.26-.46.14-.66.26-.4-.2c-.267 0-.453-.12-.56-.36l-.18-.1c0-.04.007-.093.02-.16v-.14l-.32-.28.08-.12-.24-.56.08-.08-.04-.04v-.12c-.013-.04-.02-.073-.02-.1 0-.147.02-.287.06-.42l.02-.52-.08-.42c.067-.107.1-.2.1-.28 0-.093-.04-.18-.12-.26l.22-.16v-.24l-.08-.66.22-1.28c0-.213-.06-.527-.18-.94.04-.427.32-.66.84-.7l.16.06.28.04.36.4-.12.52-.04.86.06.66-.12.24.06.16-.1.32v.2l-.04.06c.013.04.02.1.02.18 0 .173-.027.353-.08.54l.1.14-.08.3.04.24v.28c.067.08.1.18.1.3 0 .107-.027.213-.08.32v.08c.067.227.1.373.1.44l.18.18c.08-.053.173-.12.28-.2.04-.133.133-.22.28-.26v-.2c.08 0 .207-.02.38-.06l.04-.18.34-.14.06-.06c.093-.093.247-.18.46-.26V81l.38-.28c.093-.253.26-.42.5-.5.147-.147.247-.233.3-.26l.26-.34v-.06l.08-.04.18-.08.1-.28.42-.18.08-.02.14-.14v-.18l.12-.04c.04-.213.147-.373.32-.48l.3-.68.1-.36.04-.08h.08l.14-.1-.12-.04c.147-.24.26-.493.34-.76l.58-.02.46.38.2.32-.22.86-.3.4-.24.78-.2.12v.3l-.12.22.06.36-.16.14.08.64.04.9h.1v.52l.28.34.26.14.02.1c.093.013.207.047.34.1l.5.04.3-.08.54-.26c.107-.053.24-.08.4-.08.4 0 .6.173.6.52zm7.68-6.02c0 .12-.12.233-.36.34-.053.067-.153.127-.3.18-.187.08-.32.147-.4.2l-.42-.14c-.213.16-.487.24-.82.24l-.24-.06-.18.16h-.54l-.34.22c-.147-.053-.287-.08-.42-.08-.04.027-.133.053-.28.08-.067 0-.14-.02-.22-.06l-.06.76.02.56-.06.7.04.76.06.36v.28l.28.6c-.04.04-.06.087-.06.14 0 .093.147.167.44.22l.04.24.14.06.24.16.16.12c.133-.027.227-.04.28-.04.12 0 .24.02.36.06.053-.027.167-.12.34-.28.12-.107.233-.16.34-.16h.06c.027.013.047.02.06.02.12-.253.333-.42.64-.5.28 0 .513.087.7.26v.14c0 .453-.16.74-.48.86-.12.28-.373.46-.76.54l-.24.22h-.26l-.46.12c-.107.027-.26.04-.46.04-.107 0-.22-.027-.34-.08h-.26l-.7-.38-.18-.06-.42-.56-.24-.26-.44-1-.16-.94.04-.24-.16-.22.1-.28-.1-.44.14-.14.04-.26-.06-.24.04-.36-.08-.32.1-.1v-.32l-.14-.06-.38.08-.36-.26h-.06c-.4 0-.6-.213-.6-.64V77l-.24-.38.38-.36.5.08.26-.04.38.1h.42V76l-.26-.56.26-.14-.1-.3.02-.62-.16-.26c-.093-.147-.14-.28-.14-.4 0-.147.033-.267.1-.36l.06-.28.16-.16c.36-.067.6-.1.72-.1.427 0 .66.193.7.58l-.06.1c.08.12.12.233.12.34 0 .013-.007.047-.02.1l-.04.12-.02.14.08.26-.02.1.04.28-.18.24.1.4-.08.48.16.18-.16.36.62-.08 1.1.1.88-.14.3.02.1-.02h.78c.413 0 .62.147.62.44zm6.72 5c0 .147-.053.267-.16.36-.107.16-.28.327-.52.5l-.2.14-.18.24-.18.08-.28.18-.2.02-.08.08c-.267.08-.473.213-.62.4-.093.067-.18.1-.26.1-.053 0-.1-.007-.14-.02-.227.133-.52.2-.88.2-.307 0-.507-.027-.6-.08l-.36-.2-.12-.2v-.06c0-.173-.073-.313-.22-.42l-.08-.4-.16-.18-.1-.74-.02-.44.02-.32.04-.12c-.04-.08-.06-.167-.06-.26.067-.56.1-.913.1-1.06l-.18-.36.18-.3.06-.5-.04-.34.12-.3-.12-.4.18-.28.02-.18v-.7l.06-.14-.02-.84.06-.86-.08-.16-.02-.6.06-.54-.06-.2.12-1.2c.56-.133.807-.2.74-.2.213 0 .387.113.52.34l.04.16.3.3-.16.42.04.08c-.027.253-.06.42-.1.5l.04.42.1.38-.14.42c0 .227-.033.433-.1.62 0 .067-.013.173-.04.32l-.02.12.18.22-.08.22c.027.107.04.18.04.22 0 .08-.027.187-.08.32l.04.18-.12.64v.42l-.14.42.08.38-.08.88.06.1-.1.46-.04.56c-.027.08-.04.127-.04.14 0 .227-.007.413-.02.56l.1.28-.04.3.12.26-.02.1c.08.067.153.173.22.32h.18l.26.08.12-.16.18-.02c.08-.027.14-.04.18-.04h.06c.133-.027.24-.093.32-.2l.12-.06c.093-.147.247-.247.46-.3.067-.053.193-.16.38-.32 0-.187.113-.327.34-.42.2 0 .333-.033.4-.1.267.04.437.11.51.21.073.1.11.29.11.57zm4.7-11.34c0 .16-.107.307-.32.44v.04c-.253.307-.473.48-.66.52l-.3.36-.2.26-.46.12-.2.28-.32.16-.52.46-.32-.3.06-.5.22-.36c.013-.187.12-.347.32-.48v-.08l.12-.08.02-.3.32-.08v-.18l.24-.04c.053-.267.167-.46.34-.58l.06-.04.12-.12.16-.48c.88.213 1.32.54 1.32.98zm2.04 10.6c0 .307-.053.5-.16.58l-.1.08-.1.28-.32.1c-.093.213-.233.38-.42.5l-.18.06-.26.28-.24.06c-.093.24-.287.367-.58.38-.027.04-.087.12-.18.24-.2.133-.407.213-.62.24l-.1.02-.14.18h-.4l-.32.24-.82-.6-.38-.78-.02-.98-.08-.24.24-1.76.08-.08c-.04-.2-.06-.393-.06-.58 0-.12.04-.367.12-.74l.1-.46c-.027-.08-.08-.167-.16-.26l.12-.38.04-.46.04-.06c-.053-.12-.087-.253-.1-.4.013-.027.027-.063.04-.11.013-.047.02-.083.02-.11-.04-.12-.06-.233-.06-.34 0-.32.18-.467.54-.44l.24.02c.16-.08.26-.12.3-.12.267 0 .447.147.54.44v.08c.053.16.08.313.08.46 0 .12-.013.207-.04.26l-.14 1 .14.28c0 .24-.08.453-.24.64l.08.24-.26.76c-.027.333-.06.587-.1.76v.5l-.12.28.02.2-.04.46.04.36.3.24.24-.04.04-.06.16.02.26-.08.22-.22.08-.12.14-.02.04-.1.06-.08.12.08.2-.2.12.02.04-.14h.04l.06-.16.18-.08.38-.18c.307-.213.607-.32.9-.32h.08c.147.093.247.213.3.36zm5.185-1.612l.415-.468c-.05.06-.19.217-.415.468zm-.365.412l.365-.412-.228.253c-.006.008-.01.014-.017.02v.04l.04-.14.26-.3.18-.34v-.2l.3-.1.04-.26.08-.08.02-.1v-.14l.28-.28v-.1c-.013-.04-.02-.067-.02-.08 0-.24.133-.373.4-.4.12-.24.3-.38.54-.42l.12-.18.04-.04c.12-.173.3-.293.54-.36l.18-.22h.48l.24.28.22.12.02.06.14.04.04.42.34.2-.14.44.22.48v.56l.16.76.04.72.18.42.12.52c.08.08.14.193.18.34l.36.1v.4l.2.22v.06l.08.02.08.12.08-.1c-.027 0 .007.007.1.02.147 0 .3-.133.46-.4l.24-.06.06-.1c.04-.107.12-.187.24-.24l.14.02.08-.08.02-.1.06-.08c.133-.093.22-.233.26-.42l.22-.24.04-.18.14-.32.38-.14.54.18.18.58c0 .013.007.027.02.04v.06c0 .107-.087.247-.26.42l-.22.34-.08.4-.18.06-.04.12c-.213.067-.367.233-.46.5-.147.187-.307.32-.48.4-.067.067-.127.113-.18.14l-.1.18-.18.04-.52.28-.68.08-.18-.04-.3.06-.12-.14c-.187-.093-.32-.187-.4-.28-.16-.04-.28-.167-.36-.38-.227-.267-.34-.48-.34-.64v-.06l-.14-.24-.04-.04-.12-.36-.18-.38.04-.46-.2-.26-.3-1.72c-.04-.227-.06-.42-.06-.58l-.04-.1-.1-.14-.18.24-.72.76-.26.42-.14.28-.22.32-.16.16.02.1-.28.62-.16.2-.2.04-.18.18c0 .267-.127.44-.38.52l-.04.04c-.12.293-.253.473-.4.54l-.18.28c-.293.267-.487.433-.58.5-.04.133-.113.247-.22.34-.027.04-.073.093-.14.16-.04.227-.227.387-.56.48l-.22.06c-.267-.013-.487-.167-.66-.46l-.3-.5.1-.48-.04-.26.04-.04.02-.26-.22-.48.16-.24-.08-.26.14-.28.04-.46-.08-.08.16-.28-.06-.14-.02-.32.08-.6c-.027-.133-.04-.22-.04-.26 0-.027.007-.053.02-.08v-.08l-.1-.16.06-.64-.02-.22.06-.32-.08-.54.36-.6c.413.067.7.157.86.27.16.113.24.317.24.61v.18l.14.24-.06.42.08.8-.14.38.06.42v.34l-.16.22.12.36-.12.22-.02.22.12.22-.16.42-.06.18v.18l.1.2.34-.34c0-.2.067-.333.2-.4.013-.133.067-.233.16-.3l-.06-.06.26-.24.06-.08v-.18l.32-.24.08-.2.18-.12zm16.58 2.48c0 .16-.12.36-.36.6-.067.213-.167.387-.3.52l-.12.02-.22.38-.36.06-.38.24-.2.36-.22-.04c-.147.067-.267.107-.36.12l-.12.18c-.04-.013-.1-.02-.18-.02-.173 0-.34.12-.5.36l-.28-.24c-.053.013-.133.02-.24.02-.173 0-.32-.027-.44-.08h-.34l-.16-.1c-.507-.08-.827-.273-.96-.58v-.06l-.24-.12-.12-.34-.24-.16v-.3l-.24-.88.04-.72.08-.32v-.42l.1-.32-.02-.14.14-.24-.04.04c0-.12.033-.247.1-.38v-.1l-.06-.48c0-.227.1-.427.3-.6.013-.027.02-.067.02-.12 0-.053-.023-.163-.07-.33-.047-.167-.07-.283-.07-.35 0-.16.04-.327.12-.5.107.16.26.24.46.24h.06c.027-.053.087-.113.18-.18.107-.333.253-.613.44-.84l.08-.08c0-.053.04-.207.12-.46h.16l.04-.1.16-.04c.067-.107.11-.17.13-.19.02-.02.163-.103.43-.25.053-.093.133-.18.24-.26.053-.027.12-.053.2-.08l.08-.12c.36-.12.587-.18.68-.18.107 0 .207.027.3.08l.1-.02.14.08c.16.12.32.22.48.3l.34.26v.08c.307.24.46.58.46 1.02l-.06.2.06.66-.18.12-.2.52-.38.42-.02.32c-.427.307-.82.553-1.18.74-.12.187-.307.28-.56.28h-.06l-.38.24h-.32l-.48.2-.36-.18h-.04c-.027.107-.053.267-.08.48l-.16.12-.02.24-.12.34c.04.32.06.527.06.62l-.08.06c0 .173-.007.3-.02.38 0 .013-.007.033-.02.06v.06c0 .107.053.193.16.26.04.16.107.26.2.3l.14.12.44.12v.06l.16.04.68.04.4-.06.2-.14.12-.04.2-.3.1-.02.5-.16c.053-.093.14-.173.26-.24l.06-.1c.267-.053.42-.193.46-.42.187-.187.427-.28.72-.28h.08c.253.293.38.533.38.72zm-1.98-5.76c0-.04-.02-.12-.06-.24l-.1-.02-.04.02h-.08c-.027.013-.053.02-.08.02-.013 0-.033-.007-.06-.02h-.06l-.2.14-.18.02-.1.04-.34.44-.22.16-.32.56-.18.12c-.04.227-.133.42-.28.58l-.08.14c.147-.093.313-.14.5-.14l.14-.06.06-.18.28.02.16-.24h.12l.22.08.1-.3h.14v-.22l.26-.06.06-.06.04-.18.26-.38c.027-.067.04-.147.04-.24zm6.54 6.56l-.3.46-.28.14-.12.16-.3.26-.12.16-.36.22-.68.68-.36.16c-.093.187-.22.34-.38.46l-.08.06-.14.26-.28.26c-.227.067-.393.1-.5.1-.04 0-.14-.013-.3-.04-.013-.053-.02-.133-.02-.24 0-.12.027-.267.08-.44l.06-.2.06-.08c.04-.213.173-.373.4-.48l.02-.06.2-.28.08-.28.1-.14.22-.1.04-.08c.013-.08.067-.147.16-.2l.12-.08v-.2l.18-.04c0-.147.04-.3.12-.46l.2-.16c0-.04.013-.1.04-.18 0-.027.007-.06.02-.1v-.1l.12-.16c.187-.24.433-.36.74-.36.213 0 .46.06.74.18l.06.08.38.1.08.72zm-82.66 21.98l-.26.6c-.053.44-.253.68-.6.72l-.14.28-.68.42-.16.2-.34.32c-.12.013-.273.04-.46.08-.347.32-.76.56-1.24.72l-.36.18c-.24.027-.607.127-1.1.3l-.38.24-.38-.06c-.24.093-.453.14-.64.14-.147 0-.3-.027-.46-.08 0 .08-.073.12-.22.12-.12 0-.307-.053-.56-.16h-.16l.08-.08-.36.1-.16-.04-.2.06-.6-.24-.26-.16-.5-.16-.1-.22c-.413-.053-.647-.233-.7-.54v-.08l.04.04c-.133-.133-.267-.373-.4-.72-.107-.013-.223-.143-.35-.39-.127-.247-.19-.497-.19-.75 0-.16.007-.333.02-.52-.053-.12-.08-.293-.08-.52l.1-.34v-.46l.16-.08.02-.12.26-.9.26-.58.16-.42c.027-.187.14-.407.34-.66l.08-.1-.1-.4.44-.22c.12-.12.213-.207.28-.26l.08-.46.3-.14.1-.36c.267-.027.447-.087.54-.18.147-.213.333-.367.56-.46l.18-.16.52-.14.3-.18.38.18c.307-.067.507-.1.6-.1h.22l.12.04.24.02c.333.16.653.273.96.34l.26.22 1.18.66.14.28.2.18.14.42.12.3.08.38-.02.48c0 .027-.013.12-.04.28v.06c0 .413-.387.713-1.16.9l-.4-.26-.22-.3-.12-.42v-.3l-.06-.32v-.5l.06-.22-.1-.16c-.053-.04-.14-.1-.26-.18l-.06-.04c-.387-.107-.587-.213-.6-.32h-.38l-.16-.1-.1.22-.38-.24-.1.06-.24-.04-.24.16c-.133-.04-.26-.06-.38-.06l-.26.36-.56.5-.48.66-.1.04-.14.44-.24.16v.18l-.38.58-.18.8.02.08-.18.32.12.32-.22.18v.08l-.08.06.02.56-.08.42.16.26.04.12.18.16v.28l.22.3-.08.14.28.28.02.1.72.26-.02.12.52.06.2.18.46-.16.22.24.12-.02c.16-.133.313-.2.46-.2.04 0 .113.013.22.04h.26l.14.1.18-.08c.133 0 .233-.007.3-.02.187-.173.42-.26.7-.26.107-.107.293-.16.56-.16.067-.08.26-.173.58-.28.16 0 .287-.033.38-.1l.16-.26.3-.08.28-.14.24-.24.36-.16 1.06-1.02.64-.34.52.34zm6.56 1.68c0 .147-.053.267-.16.36-.107.16-.28.327-.52.5l-.2.14-.18.24-.18.08-.28.18-.2.02-.08.08c-.267.08-.473.213-.62.4-.093.067-.18.1-.26.1-.053 0-.1-.007-.14-.02-.227.133-.52.2-.88.2-.307 0-.507-.027-.6-.08l-.36-.2-.12-.2v-.06c0-.173-.073-.313-.22-.42l-.08-.4-.16-.18-.1-.74-.02-.44.02-.32.04-.12c-.04-.08-.06-.167-.06-.26.067-.56.1-.913.1-1.06l-.18-.36.18-.3.06-.5-.04-.34.12-.3-.12-.4.18-.28.02-.18v-.7l.06-.14-.02-.84.06-.86-.08-.16-.02-.6.06-.54-.06-.2.12-1.2c.56-.133.807-.2.74-.2.213 0 .387.113.52.34l.04.16.3.3-.16.42.04.08c-.027.253-.06.42-.1.5l.04.42.1.38-.14.42c0 .227-.033.433-.1.62 0 .067-.013.173-.04.32l-.02.12.18.22-.08.22c.027.107.04.18.04.22 0 .08-.027.187-.08.32l.04.18-.12.64v.42l-.14.42.08.38-.08.88.06.1-.1.46-.04.56c-.027.08-.04.127-.04.14 0 .227-.007.413-.02.56l.1.28-.04.3.12.26-.02.1c.08.067.153.173.22.32h.18l.26.08.12-.16.18-.02c.08-.027.14-.04.18-.04h.06c.133-.027.24-.093.32-.2l.12-.06c.093-.147.247-.247.46-.3.067-.053.193-.16.38-.32 0-.187.113-.327.34-.42.2 0 .333-.033.4-.1.267.04.437.11.51.21.073.1.11.29.11.57zm4.7-11.34c0 .16-.107.307-.32.44v.04c-.253.307-.473.48-.66.52l-.3.36-.2.26-.46.12-.2.28-.32.16-.52.46-.32-.3.06-.5.22-.36c.013-.187.12-.347.32-.48v-.08l.12-.08.02-.3.32-.08v-.18l.24-.04c.053-.267.167-.46.34-.58l.06-.04.12-.12.16-.48c.88.213 1.32.54 1.32.98zm2.04 10.6c0 .307-.053.5-.16.58l-.1.08-.1.28-.32.1c-.093.213-.233.38-.42.5l-.18.06-.26.28-.24.06c-.093.24-.287.367-.58.38-.027.04-.087.12-.18.24-.2.133-.407.213-.62.24l-.1.02-.14.18h-.4l-.32.24-.82-.6-.38-.78-.02-.98-.08-.24.24-1.76.08-.08c-.04-.2-.06-.393-.06-.58 0-.12.04-.367.12-.74l.1-.46c-.027-.08-.08-.167-.16-.26l.12-.38.04-.46.04-.06c-.053-.12-.087-.253-.1-.4.013-.027.027-.063.04-.11.013-.047.02-.083.02-.11-.04-.12-.06-.233-.06-.34 0-.32.18-.467.54-.44l.24.02c.16-.08.26-.12.3-.12.267 0 .447.147.54.44v.08c.053.16.08.313.08.46 0 .12-.013.207-.04.26l-.14 1 .14.28c0 .24-.08.453-.24.64l.08.24-.26.76c-.027.333-.06.587-.1.76v.5l-.12.28.02.2-.04.46.04.36.3.24.24-.04.04-.06.16.02.26-.08.22-.22.08-.12.14-.02.04-.1.06-.08.12.08.2-.2.12.02.04-.14h.04l.06-.16.18-.08.38-.18c.307-.213.607-.32.9-.32h.08c.147.093.247.213.3.36zm8.82-.2l-.38.36-.02.12c-.04.24-.153.433-.34.58-.32.6-.767 1.04-1.34 1.32l-.3.24-.26.04-.32.24-.22.02-.5.32-.32-.04-.36.16-.28-.08-.14.12-.38-.06-.38.06-.14-.12-.4-.08-.58-.44-.32-.4c-.2-.253-.3-.467-.3-.64v-.06l-.2-.3v-.26c-.04-.16-.06-.307-.06-.44v-.14l-.1-.34.1-.24-.08-.16.24-.38-.06-.32.16-.52.08-.12.08-.48-.04-.08.24-.26.04-.2.16-.46.26-.56.36-.32.08-.18.12-.22.04-.2.32-.38c.08-.027.173-.053.28-.08.053-.253.387-.4 1-.44.52.107.853.247 1 .42.147.027.26.087.34.18l.42.02.28.36c.067.133.113.267.14.4l.16.16-.06.3c.013.093.02.24.02.44l.1.08v.3l.08.62c-.28.28-.6.44-.96.48-.187-.347-.42-.607-.7-.78l-.04-.66-.12-.22v-.16l-.2-.24-.1-.08-.18.06h-.26c-.173.04-.34.167-.5.38-.16.213-.32.44-.48.68l-.02.2-.12.1v.36l-.26.28-.32.88.02.24-.16.36.06.44-.12.06-.04.56.02.1.24.24.1.42.28.08.02.16.34.06.26.06c.093-.053.207-.08.34-.08h.14c.16-.067.307-.1.44-.1.093-.04.213-.08.36-.12.16-.213.387-.32.68-.32h.12c.067 0 .113-.033.14-.1.147-.227.38-.373.7-.44.373-.333.587-.6.64-.8.187-.107.307-.273.36-.5l.12-.08.06-.46c.613.093.92.4.92.92v.16zm13.26 1.64l-.12.22c0 .387-.133.687-.4.9 0 .133-.047.24-.14.32l-.1.22-.26.18-.12.22-.8.42-.38.1-.58.04-.32-.14-.26.02-.26-.18-.2-.02-.8-.42-.72-.6c-.213-.187-.533-.453-.96-.8l-.44-.6-.36-.3-.06-.14-.18-.22c-.173-.213-.38-.44-.62-.68l-.34-.12-.38-.76.06-.3c.08-.427.293-.667.64-.72l.38.12.32.32.34.22h.32l.08.06c.107 0 .193.007.26.02.133-.067.367-.14.7-.22l.18-.04.12-.26h.48c.147-.12.3-.187.46-.2h.04c.04-.093.093-.207.16-.34l.38-.18.16-.16.3-.5h.14c.053-.133.107-.32.16-.56l.18-.12-.14-.08.08-.34c-.027-.053-.1-.1-.22-.14l-.24.08-.08-.16-.2-.08-.06-.08c-.2-.027-.487-.053-.86-.08v-.08l-.12.08c-.107-.027-.187-.04-.24-.04-.173 0-.427.093-.76.28h-.28c-.507.173-.793.3-.86.38l-.44.14-.62.5-.58.58v.08l-.38.66-.12.38-.08.04v.08c-.04.08-.073.153-.1.22l-.12.06.04.06-.06.1c-.013.027-.02.06-.02.1 0 .067.027.127.08.18 0 .28-.067.46-.2.54-.027.053-.04.107-.04.16 0 .04.007.073.02.1 0 .227-.047.413-.14.56-.067.067-.107.113-.12.14l.06.3-.06.4.02.32c-.107.24-.16.433-.16.58.027.133.04.207.04.22 0 .147-.083.3-.25.46-.167.16-.323.24-.47.24-.187 0-.38-.113-.58-.34l-.22-.62.06-.36-.06-.78.06-.2v-.64l.04-.26v-.22c0-.267.013-.537.04-.81.027-.273.04-.417.04-.43v-.34l.02-.18v-.56l.06-.16-.06-.24.08-.66v-.7l-.08-.4.1-.16-.02-.08-.08-1.08-.14-.66v-.18l.12-.68-.08-.26-.04-.48c-.027-.32-.04-.46-.04-.42 0-.467.367-.713 1.1-.74l.44-.24-.08.98.08.56-.14.58.04.64.1.36-.06.34.04.48-.06.4.1.42-.04.1.08.2-.1.56v.12l.1.38c-.067.027-.1.127-.1.3l-.06.48.04.18.24-.42.12-.46.28-.46c0-.133.047-.253.14-.36h.22l.16-.34.46-.22c.187-.187.4-.32.64-.4l.12-.1.32-.16.26-.06c.28-.24.887-.4 1.82-.48l1.56.12.32.18.16.02.34.36.02-.12c.173.08.3.207.38.38.067-.013.093-.02.08-.02.053 0 .107.02.16.06l.42.86-.02.1c.067.133.1.253.1.36 0 .187-.073.373-.22.56v.12l-.28.74-.42.58-.12.02-.24.32c-.147 0-.26-.04-.34-.12v.32l-.16.1-.12.22-.36.1c-.053.013-.113.073-.18.18-.92.36-1.433.54-1.54.54-.04 0-.117-.01-.23-.03-.113-.02-.21-.03-.29-.03-.053 0-.093.007-.12.02.013.04.087.187.22.44l.26.16.36.64.54.32.04.08.18.1.26.3.48.38.64.26.36.1.26-.02.14-.06c.267-.04.52-.147.76-.32l.34-.62.2-.24.12-.36c.2-.067.36-.1.48-.1.307 0 .507.173.6.52zm12.64-5.7c0 .12-.12.233-.36.34-.053.067-.153.127-.3.18-.187.08-.32.147-.4.2l-.42-.14c-.213.16-.487.24-.82.24l-.24-.06-.18.16h-.54l-.34.22c-.147-.053-.287-.08-.42-.08-.04.027-.133.053-.28.08-.067 0-.14-.02-.22-.06l-.06.76.02.56-.06.7.04.76.06.36v.28l.28.6c-.04.04-.06.087-.06.14 0 .093.147.167.44.22l.04.24.14.06.24.16.16.12c.133-.027.227-.04.28-.04.12 0 .24.02.36.06.053-.027.167-.12.34-.28.12-.107.233-.16.34-.16h.06c.027.013.047.02.06.02.12-.253.333-.42.64-.5.28 0 .513.087.7.26v.14c0 .453-.16.74-.48.86-.12.28-.373.46-.76.54l-.24.22h-.26l-.46.12c-.107.027-.26.04-.46.04-.107 0-.22-.027-.34-.08h-.26l-.7-.38-.18-.06-.42-.56-.24-.26-.44-1-.16-.94.04-.24-.16-.22.1-.28-.1-.44.14-.14.04-.26-.06-.24.04-.36-.08-.32.1-.1v-.32l-.14-.06-.38.08-.36-.26h-.06c-.4 0-.6-.213-.6-.64V102l-.24-.38.38-.36.5.08.26-.04.38.1h.42v-.4l-.26-.56.26-.14-.1-.3.02-.62-.16-.26c-.093-.147-.14-.28-.14-.4 0-.147.033-.267.1-.36l.06-.28.16-.16c.36-.067.6-.1.72-.1.427 0 .66.193.7.58l-.06.1c.08.12.12.233.12.34 0 .013-.007.047-.02.1l-.04.12-.02.14.08.26-.02.1.04.28-.18.24.1.4-.08.48.16.18-.16.36.62-.08 1.1.1.88-.14.3.02.1-.02h.78c.413 0 .62.147.62.44zm9.64 6.98c0 .533-.287.8-.86.8-.28 0-.487-.113-.62-.34-.133-.187-.247-.54-.34-1.06v-.28c.04-.067.06-.133.06-.2 0-.027-.007-.06-.02-.1l-.28-.42.2-.38-.08-.42.08-.24v-.26l.04-.24-.08-.36.08-.18v-.66l.02-.86-.14-.66.08-.24-.14-.5-.16.14-.44.18-.6.76-.24-.02-.36.58-.06.24-.22.1-.22.34-.1.22-.22.7-.36.44-.08.28-.2.16-.08.48-.4.36-.06.74h-.18l-.06.12-.36.62-.34.36-.3.4-.32-.1h-.26l-.24-.32-.22-.72-.04-1.06-.06-.34.06-.4-.04-.94.16-.04.1-1.38.08-.26-.06-.42.1-.06.08-.64.08-.22-.08-.28.06-.1-.04-.06.06-.56-.16-.14.14-.28-.02-.58-.22-.58.16-.18-.14-.54v-.32l-.06-.14-.1-.64-.1-.3-.3-.58.22-.28.2-.34h.18c.293 0 .513.107.66.32l.28.22.12.36.3.26-.06.28.14.42-.02.04.04.04-.02.66.02.88.14.56-.1.24.04.34-.1.28.06.48-.1.4.04.08-.04 1.22.06.28-.12.14-.06.66-.08.3.08.54-.08.16-.02.4c.147-.04.22-.12.22-.24l.16-.16.14-.26.04-.38.22-.32.12-.4.3-.32.08-.38.2-.02v-.18l.02-.24.24-.14v-.16l.2-.04.04-.32-.02-.16.36-.16.1-.08-.04-.2.18-.06.14-.34h.24l.22-.14c0-.093.007-.16.02-.2l.22-.1c.24-.2.467-.32.68-.36v-.04c.347-.173.587-.26.72-.26.2 0 .38.093.54.28.147.053.24.153.28.3l.18.12.06.28.3.46v1.6l-.02.7.08.18v1.48l-.06.26v.4l.06.44-.08.38c.053.2.087.367.1.5l.22.22v.16l.08.06c.067.227.1.387.1.48zm8.78-1.44c0 .16-.12.36-.36.6-.067.213-.167.387-.3.52l-.12.02-.22.38-.36.06-.38.24-.2.36-.22-.04c-.147.067-.267.107-.36.12l-.12.18c-.04-.013-.1-.02-.18-.02-.173 0-.34.12-.5.36l-.28-.24c-.053.013-.133.02-.24.02-.173 0-.32-.027-.44-.08h-.34l-.16-.1c-.507-.08-.827-.273-.96-.58v-.06l-.24-.12-.12-.34-.24-.16v-.3l-.24-.88.04-.72.08-.32v-.42l.1-.32-.02-.14.14-.24-.04.04c0-.12.033-.247.1-.38v-.1l-.06-.48c0-.227.1-.427.3-.6.013-.027.02-.067.02-.12 0-.053-.023-.163-.07-.33-.047-.167-.07-.283-.07-.35 0-.16.04-.327.12-.5.107.16.26.24.46.24h.06c.027-.053.087-.113.18-.18.107-.333.253-.613.44-.84l.08-.08c0-.053.04-.207.12-.46h.16l.04-.1.16-.04c.067-.107.11-.17.13-.19.02-.02.163-.103.43-.25.053-.093.133-.18.24-.26.053-.027.12-.053.2-.08l.08-.12c.36-.12.587-.18.68-.18.107 0 .207.027.3.08l.1-.02.14.08c.16.12.32.22.48.3l.34.26v.08c.307.24.46.58.46 1.02l-.06.2.06.66-.18.12-.2.52-.38.42-.02.32c-.427.307-.82.553-1.18.74-.12.187-.307.28-.56.28h-.06l-.38.24h-.32l-.48.2-.36-.18h-.04c-.027.107-.053.267-.08.48l-.16.12-.02.24-.12.34c.04.32.06.527.06.62l-.08.06c0 .173-.007.3-.02.38 0 .013-.007.033-.02.06v.06c0 .107.053.193.16.26.04.16.107.26.2.3l.14.12.44.12v.06l.16.04.68.04.4-.06.2-.14.12-.04.2-.3.1-.02.5-.16c.053-.093.14-.173.26-.24l.06-.1c.267-.053.42-.193.46-.42.187-.187.427-.28.72-.28h.08c.253.293.38.533.38.72zm-1.98-5.76c0-.04-.02-.12-.06-.24l-.1-.02-.04.02h-.08c-.027.013-.053.02-.08.02-.013 0-.033-.007-.06-.02h-.06l-.2.14-.18.02-.1.04-.34.44-.22.16-.32.56-.18.12c-.04.227-.133.42-.28.58l-.08.14c.147-.093.313-.14.5-.14l.14-.06.06-.18.28.02.16-.24h.12l.22.08.1-.3h.14v-.22l.26-.06.06-.06.04-.18.26-.38c.027-.067.04-.147.04-.24zm15.72-3.48l-.06.2c0 .253-.093.447-.28.58l-.12.24-.1.08.02.36-.2.12-.02.06c0 .067-.033.147-.1.24l.02.2-.12.12c0 .013.007.033.02.06v.08c0 .04-.013.127-.04.26-.027.027-.073.08-.14.16l.02.04.02.12-.2.36c-.12.28-.367.42-.74.42-.2 0-.407-.027-.62-.08l-.04-.04-.32-.1-.14-.24-.1-.32.26-.48.04-.32.14-.06.2-.18-.08-.08c.08-.027.14-.073.18-.14l.28-.24.26-.34.22-.32c.067-.053.167-.127.3-.22v-.06c.053-.173.16-.32.32-.44l.02-.28.28-.26c.147-.133.32-.2.52-.2.107 0 .187.007.24.02l.06.68zm-3.12 0l-.04.2c-.027.267-.127.46-.3.58v.22l-.06.12-.14.1.06.18-.24.18-.02.1c-.013.04-.047.1-.1.18l-.02.36-.12.2-.12.3-.04.26-.1.26c-.12.307-.367.46-.74.46-.2 0-.413-.027-.64-.08l-.04-.04-.4-.02-.08-.32-.1-.36.12-.36.1-.36.2-.1.28-.24.06-.18.28-.22.48-.68c.107-.067.2-.14.28-.22.013-.187.12-.347.32-.48l.04-.26.24-.28c.227-.12.473-.18.74-.18l.1.68zm17.86 5.6h-5.16V109h-1.38v-5.28h-5.16v-1.36h5.16v-5.28h1.38v5.28h5.16v1.36zm10.46-5.1l-.14.34-.1.38-.2.1-.28.24-.06.16-.28.22-.24.36-.24.34-.28.2c-.013.2-.12.367-.32.5l-.04.26-.22.28c-.2.107-.453.16-.76.16l-.1-.66.04-.2.02-.04c0-.227.093-.407.28-.54l.02-.22.04-.12.14-.1-.06-.2.24-.16.04-.1c.04-.093.073-.153.1-.18v-.38l.12-.18.12-.3.06-.26.1-.26c.12-.307.367-.46.74-.46.2 0 .407.027.62.08l.06.04.4.02.06.32.12.36zm-3.14-.06l-.24.5-.06.32-.12.06-.22.18.08.08c-.053 0-.107.047-.16.14l-.3.22-.26.36-.22.32-.28.22v.06c-.053.173-.16.32-.32.44l-.04.28-.28.26c-.147.133-.327.2-.54.2-.027 0-.06-.007-.1-.02h-.12l-.04-.68.04-.22c0-.24.1-.427.3-.56l.1-.24.12-.08-.04-.36.2-.12.02-.08c.027-.093.06-.167.1-.22l-.02-.2.12-.14v-.08c0-.04.013-.14.04-.3.053-.08.093-.133.12-.16l-.02-.04-.02-.12.2-.36c.107-.28.353-.42.74-.42.2 0 .407.027.62.08l.04.04.32.1.16.24.08.3z" fill-opacity=".87"/><g transform="translate(11 11)"><use filter="url(#a)" xlink:href="#b"/><use fill-opacity=".87" xlink:href="#b"/></g></g></svg>