<svg width="236" height="59" viewBox="0 0 236 59" xmlns="http://www.w3.org/2000/svg"><title>You have no sources</title><path d="M11.922 4.928c0 .072-.066.162-.198.27-.132.108-.204.228-.216.36-.06.108-.144.204-.252.288-.036.144-.156.234-.36.27l-.324.252-.234.432h-.18c-.084.12-.192.234-.324.342-.036.012-.138.06-.306.144L9.15 7.7l-.504.36-.162.054-.162.288-.396.234-.198.198-.18.45-.666.738-.216.324-.09.18.108.18-.144.324.09.306-.144.414.036.252.126.504c-.18.216-.27.414-.27.594 0 .084.015.21.045.378s.045.288.045.36l-.144.792.036.45-.072.162.126.648-.144.216.126.324-.108.162.072.144c.036.072.054.15.054.234v.09l-.126.45.108.486-.162.342.162.216v.126c0 .48-.07.82-.207 1.017-.14.198-.388.297-.748.297l-.162-.864-.162-.522-.018-.342-.234-.144.162-.36-.072-.252.072-.54-.108-.576.054-.45v-.126c-.012-.06-.018-.108-.018-.144 0-.036.006-.078.018-.126v-.108l-.09-.828.09-.396-.054-.432.108-.72-.162-.288.09-.432-.018-.342-.144-.324c.096-.216.144-.384.144-.504 0-.072-.012-.126-.036-.162l-.072-.324-.108-.306-.18-.144-.108-.162c-.204-.108-.474-.372-.81-.792l-.288-.18-.252-.468-.72-.648-.144-.252-.288-.36-.54-.432v-.18l-.27-.18c-.048-.3-.174-.45-.378-.45-.492-.276-.744-.696-.756-1.26l.09-.468h.216c.084-.072.216-.108.396-.108.18 0 .432.054.756.162l.126.288.288.09.324.504.468.342.018.162.378.594.27.198.99 1.368.324.414c.432.444.768.804 1.008 1.08v-.054c0-.144.072-.294.216-.45l-.018.09c.084-.192.186-.348.306-.468.036-.168.12-.3.252-.396.024-.084.138-.216.342-.396l.162-.072.054-.072c.108-.312.324-.468.648-.468l.036.072.162-.306c.144-.036.204-.054.18-.054.108-.132.198-.24.27-.324l.126-.234c.204-.264.462-.42.774-.468v-.216l.126-.144.18-.144.108-.378c.036.06.084.09.144.09.108 0 .204-.144.288-.432l.54-.234.288-.288.504.036.378-.108.162.378c.036.192.054.348.054.468zm7.182 4.86l-.108.324c0 .312-.018.558-.054.738l-.108.18v.198l-.09.126-.054.252-.198.198-.126.45-.144.054-.072.198-.216.126-.144.306-.216.108-.018.216-.342.126c-.156.216-.348.354-.576.414l-.072.018c-.168.252-.39.378-.666.378-.12.072-.258.108-.414.108l-.18.126-.18.054-.234.18-.234-.018-.252.072-.306-.126-.774-.054-.27-.414-.396-.414.09-.288-.27-.612.126-.234-.09-.432.09-.27c-.024-.168-.036-.288-.036-.36 0-.228.06-.396.18-.504.012-.12.09-.318.234-.594h.09l-.036-.126.054-.252v-.27c.096-.108.15-.18.162-.216l-.054-.252V9.23c.084-.168.126-.342.126-.522l.378-.522.045-.036c.03-.024.056-.048.08-.072l-.018-.072h.072l.27-.306.018-.414.45-.162c.168-.108.276-.288.324-.54h.234c.132-.072.252-.108.36-.108.108 0 .21.024.306.072l.198.018.468-.18.252.234.198.126h.144l.27.144h.144c.156.144.336.342.54.594l.036.09.126.072.378.486.342.846v.18l.162.63zm-1.188.432l-.018-.09c-.084-.084-.132-.174-.144-.27l.054-.09-.162-.342.036-.342-.072-.09c-.156-.12-.24-.216-.252-.288-.108-.048-.162-.168-.162-.36l-.108-.018-.216-.36-.162-.126-.378-.144-.144-.036c-.072 0-.12-.024-.144-.072l-.36.396-.234.504-.378.198-.054.198-.18.09-.072.468-.216.108c-.048.168-.072.324-.072.468l-.288.27.09.054c0 .144-.054.27-.162.378-.036.108-.084.228-.144.36v.144l-.054.072.018.216-.198.486.036.09v.504l-.072.252.018.252.162.234.252.09.09.036.144-.072.468.036.072-.18h.072c.072 0 .114.018.126.054l.162-.054.144.054.234-.162.036-.054.162-.036c.084-.132.282-.264.594-.396l.036-.09.36-.252.198-.288.288-.144.018-.09.09-.198v-.234l.216-.18.072-.126.09-.108c-.048-.144-.072-.246-.072-.306 0-.108.036-.222.108-.342l.072-.072zm12.582 2.736c0 .144-.108.318-.324.522l-.144.054-.126.162-.324.09c-.06.084-.12.126-.18.126-.012 0-.024-.006-.036-.018h-.054c-.264.132-.582.198-.954.198h-.144l-.45-.09-.306-.144-.684-.576-.144-.486-.288-.234c.036-.048.054-.126.054-.234 0-.072-.048-.192-.144-.36l.054-.432v-.072c0-.144-.042-.33-.126-.558l.108-.54-.234.468-.27.036-.036.378c-.096.048-.21.072-.342.072l-.198.432-.234.27c-.096.108-.18.168-.252.18l-.054.036-.648.666h-.072l-.342.396-.324.162-.18.234-.414.126-.594.234-.36-.18c-.24 0-.408-.108-.504-.324l-.162-.09c0-.036.006-.084.018-.144v-.126l-.288-.252.072-.108-.216-.504.072-.072-.036-.036v-.108c-.012-.036-.018-.066-.018-.09 0-.132.018-.258.054-.378l.018-.468-.072-.378c.06-.096.09-.18.09-.252 0-.084-.036-.162-.108-.234l.198-.144V9.95l-.072-.594.198-1.152c0-.192-.054-.474-.162-.846.036-.384.288-.594.756-.63l.144.054.252.036.324.36-.108.468-.036.774.054.594-.108.216.054.144-.09.288v.18l-.036.054c.012.036.018.09.018.162 0 .156-.024.318-.072.486l.09.126-.072.27.036.216v.252c.06.072.09.162.09.27 0 .096-.024.192-.072.288v.072c.06.204.09.336.09.396l.162.162c.072-.048.156-.108.252-.18.036-.12.12-.198.252-.234v-.18c.072 0 .186-.018.342-.054l.036-.162.306-.126.054-.054c.084-.084.222-.162.414-.234V11.3l.342-.252c.084-.228.234-.378.45-.45.132-.132.222-.21.27-.234l.234-.306v-.054l.072-.036.162-.072.09-.252.378-.162.072-.018.126-.126v-.162l.108-.036c.036-.192.132-.336.288-.432l.27-.612.09-.324.036-.072h.072l.126-.09-.108-.036c.132-.216.234-.444.306-.684l.522-.018.414.342.18.288-.198.774-.27.36-.216.702-.18.108v.27l-.108.198.054.324-.144.126.072.576.036.81h.09v.468l.252.306.234.126.018.09c.084.012.186.042.306.09l.45.036.27-.072.486-.234c.096-.048.216-.072.36-.072.36 0 .54.156.54.468zm13.302.864c0 .48-.258.72-.774.72-.252 0-.438-.102-.558-.306-.12-.168-.222-.486-.306-.954v-.252c.036-.06.054-.12.054-.18 0-.024-.006-.054-.018-.09l-.252-.378.18-.342-.072-.378.072-.216v-.234l.036-.216-.072-.324.072-.162v-.594l.018-.774-.126-.594.072-.216L42 7.88l-.144.126-.396.162-.54.684-.216-.018-.324.522-.054.216-.198.09-.198.306-.09.198-.198.63-.324.396-.072.252-.18.144-.072.432-.36.324-.054.666h-.162l-.054.108-.324.558-.306.324-.27.36-.288-.09h-.234l-.216-.288-.198-.648-.036-.954-.054-.306.054-.36-.036-.846.144-.036.09-1.242.072-.234-.054-.378.09-.054.072-.576.072-.198-.072-.252.054-.09-.036-.054.054-.504-.144-.126.126-.252-.018-.522-.198-.522.144-.162-.126-.486v-.288l-.054-.126-.09-.576-.09-.27-.27-.522.198-.252.18-.306h.162c.264 0 .462.096.594.288l.252.198.108.324.27.234-.054.252.126.378-.018.036.036.036-.018.594.018.792.126.504-.09.216.036.306-.09.252.054.432-.09.36.036.072-.036 1.098.054.252-.108.126-.054.594-.072.27.072.486-.072.144-.018.36c.132-.036.198-.108.198-.216l.144-.144.126-.234.036-.342.198-.288.108-.36.27-.288.072-.342.18-.018V9.05l.018-.216.216-.126v-.144l.18-.036.036-.288-.018-.144.324-.144.09-.072-.036-.18.162-.054.126-.306h.216l.198-.126c0-.084.006-.144.018-.18l.198-.09c.216-.18.42-.288.612-.324v-.036c.312-.156.528-.234.648-.234.18 0 .342.084.486.252.132.048.216.138.252.27l.162.108.054.252.27.414v1.44l-.018.63.072.162v1.332l-.054.234v.36l.054.396-.072.342c.048.18.078.33.09.45l.198.198v.144l.072.054c.06.204.09.348.09.432zm9.126-7.11l-.18.234.144.432-.234.27-.09.378-.054.09.036.09c0 .168-.042.294-.126.378l-.036.054v.072c.036.084.054.162.054.234 0 .06-.006.102-.018.126l.018.072-.072.198.054.216-.144.144.054.252.108.126-.162.144v.288l-.126.288.09.288-.108.144.18.126-.252.414-.018.054.18.036-.126.414v.072c0 .084-.006.15-.018.198l.018.054.288.036.234.36-.126.27.198-.018c.072.144.114.27.126.378l-.27.27c-.084.084-.204.168-.36.252l-.306.162-.09-.09-.18.108-.558-.648v-.306c-.072-.24-.108-.462-.108-.666v-.108l-.108-1.062.144-.756-.108-.432-.306.504-.162.468-.144.072-.252.396-.45.414-.126.216-.396.342-.09.234-.576.36-.612.684-.342.072-.234.18c-.3-.012-.528-.126-.684-.342-.54-.264-.822-.642-.846-1.134l.09-.054-.018-.108-.018-.216-.108-.234.108-.252.036-.378.126-.594v-.072c-.012-.024-.018-.048-.018-.072 0-.048.012-.108.036-.18-.012-.024-.018-.072-.018-.144 0-.084.036-.222.108-.414l.126-.054c-.072-.06-.108-.126-.108-.198 0-.048.006-.084.018-.108-.012-.036-.018-.078-.018-.126 0-.144.072-.252.216-.324.036-.12.102-.24.198-.36l-.09-.144.216-.27v-.072c0-.228.078-.438.234-.63l-.018-.324.072-.072v-.054c-.012-.024-.018-.042-.018-.054 0-.072.024-.132.072-.18v-.108c.048-.12.174-.3.378-.54.204-.24.354-.45.45-.63l.09.09.198-.09.09-.036.594-.27 1.386.072v.126l.432.09c.276 0 .456.09.54.27 0-.036.006-.078.018-.126V5.9l.378.342.342.072.648-.162.234.45.27.108zm-1.71.936l-.072-.126L51 7.484l-.558-.45-.36-.054h-.288l-.036-.036-.144.054-.162-.09h-.468l.054.072-.414.144-.072.09-.054.018c-.216.18-.366.33-.45.45l-.126.432-.072.162.18.252-.306.234.036.072c-.132.228-.198.45-.198.666l-.144.18v.324l-.144.162-.036.162-.054.036v.252l-.054.09c0 .144-.012.258-.036.342l.036.09-.162.342.072.108-.126.18.126.342-.198.252.036.342v.054l.072.036.09-.018c.06-.06.12-.114.18-.162l-.036-.144.252-.036.054-.126 1.062-.864.108-.036.126-.306c.072-.024.174-.072.306-.144l.108-.288h.144l-.054-.306.252-.036c.024-.048.063-.108.117-.18.053-.072.11-.138.17-.198l.918-1.224.144-.27-.018-.072.126-.198.036-.198.162-.144.018-.198zm12.258-1.998l-.18.306.054.342-.27.162-.072.378-.162.126-.054.396h-.054c-.036.168-.138.3-.306.396l-.162.576-.162.252c.012.072.018.15.018.234l-.288.252-.414.954-.342.558v.18c0 .168-.096.312-.288.432l-.036.324-.126.072-.216.288-.054.198-.126.09c0 .036.012.114.036.234l-.198.162-.324.198-.108.18-.36.378c-.372.648-.762.972-1.17.972-.324 0-.618-.168-.882-.504l.054.126-.63-.918-.036-.216-.108-.072-.018-.432-.198-.198v-.45l-.468-1.044.036-.18-.144-.252-.036-.198-.09-.126-.126-.324-.324-.252-.144-.594-.252-.216-.144-.234c-.3-.096-.45-.342-.45-.738 0-.336.258-.606.774-.81.66.444 1.05.888 1.17 1.332l.054.414c.048-.024.132-.048.252-.072v.162l.288.216-.108.288.036.216.162.432.09.09.018.162.144.072v.306l.198.702.036.27.288.576.234.702.18.18h.036c.048 0 .09-.048.126-.144l.144-.054-.054-.144c.036-.072.078-.108.126-.108s.096.018.144.054c.084-.24.144-.36.18-.36.012 0 .018.018.018.054.048-.144.162-.264.342-.36l.234-.342.144-.36.18-.144.108-.234.072-.054-.036-.234.198-.09.036-.09c0-.048.03-.114.09-.198l.126-.324.09.108.072-.036V9.59c0-.156.066-.288.198-.396v-.036l.126-.234.09-.396.126-.036.234-.558.162-.216c.036-.18.12-.318.252-.414l.162-.504.126-.162V6.26h.09c.144-.096.264-.243.36-.44.096-.2.168-.316.216-.352l.09-.054.504-.306.396.54zm6.12 6.876c0 .144-.108.324-.324.54-.06.192-.15.348-.27.468l-.108.018-.198.342-.324.054-.342.216-.18.324-.198-.036c-.132.06-.24.096-.324.108l-.108.162c-.036-.012-.09-.018-.162-.018-.156 0-.306.108-.45.324l-.252-.216c-.048.012-.12.018-.216.018-.156 0-.288-.024-.396-.072h-.306l-.144-.09c-.456-.072-.744-.246-.864-.522v-.054l-.216-.108-.108-.306-.216-.144v-.27l-.216-.792.036-.648.072-.288v-.378l.09-.288-.018-.126.126-.216-.036.036c0-.108.03-.222.09-.342v-.09l-.054-.432c0-.204.09-.384.27-.54.012-.024.018-.06.018-.108s-.02-.147-.063-.297c-.042-.15-.063-.255-.063-.315 0-.144.036-.294.108-.45.096.144.234.216.414.216h.054c.024-.048.078-.102.162-.162.096-.3.228-.552.396-.756l.072-.072c0-.048.036-.186.108-.414h.144l.036-.09.144-.036c.06-.096.1-.153.117-.17.018-.02.147-.094.387-.226.048-.084.12-.162.216-.234.048-.024.108-.048.18-.072l.072-.108c.324-.108.528-.162.612-.162.096 0 .186.024.27.072l.09-.018.126.072c.144.108.288.198.432.27l.306.234v.072c.276.216.414.522.414.918l-.054.18.054.594-.162.108-.18.468-.342.378-.018.288c-.384.276-.738.498-1.062.666-.108.168-.276.252-.504.252h-.054l-.342.216h-.288l-.432.18-.324-.162h-.036c-.024.096-.048.24-.072.432l-.144.108-.018.216-.108.306c.036.288.054.474.054.558l-.072.054c0 .156-.006.27-.018.342 0 .012-.006.03-.018.054v.054c0 .096.048.174.144.234.036.144.096.234.18.27l.126.108.396.108v.054l.144.036.612.036.36-.054.18-.126.108-.036.18-.27.09-.018.45-.144c.048-.084.126-.156.234-.216l.054-.09c.24-.048.378-.174.414-.378.168-.168.384-.252.648-.252h.072c.228.264.342.48.342.648zM67.812 7.34c0-.036-.018-.108-.054-.216l-.09-.018-.036.018h-.072c-.024.012-.048.018-.072.018-.012 0-.03-.006-.054-.018h-.054l-.18.126-.162.018-.09.036-.306.396-.198.144-.288.504-.162.108c-.036.204-.12.378-.252.522l-.072.126c.132-.084.282-.126.45-.126l.126-.054.054-.162.252.018.144-.216h.108l.198.072.09-.27h.126v-.198l.234-.054.054-.054.036-.162.234-.342c.024-.06.036-.132.036-.216zm18.972 3.744c0 .096-.078.222-.234.378l-.198.306-.072.36-.162.054-.036.108c-.192.06-.33.21-.414.45-.132.168-.276.288-.432.36-.06.06-.114.102-.162.126l-.09.162-.162.036-.468.252-.612.072-.162-.036-.27.054-.108-.126c-.168-.084-.288-.168-.36-.252-.144-.036-.252-.15-.324-.342-.204-.24-.306-.432-.306-.576v-.054l-.126-.216-.036-.036-.108-.324-.162-.342.036-.414-.18-.234-.27-1.548c-.036-.204-.054-.378-.054-.522l-.036-.09-.09-.126-.162.216-.648.684-.234.378-.126.252-.198.288-.144.144.018.09-.252.558-.144.18-.18.036-.162.162c0 .24-.114.396-.342.468l-.036.036c-.108.264-.228.426-.36.486l-.162.252c-.264.24-.438.39-.522.45-.036.12-.102.222-.198.306-.024.036-.066.084-.126.144-.036.204-.204.348-.504.432l-.198.054c-.24-.012-.438-.15-.594-.414l-.27-.45.09-.432-.036-.234.036-.036.018-.234-.198-.432.144-.216-.072-.234.126-.252.036-.414-.072-.072.144-.252-.054-.126-.018-.288.072-.54c-.024-.12-.036-.198-.036-.234 0-.024.006-.048.018-.072v-.072l-.09-.144.054-.576-.018-.198.054-.288-.072-.486.324-.54c.372.06.63.14.774.243.144.102.216.285.216.55v.16l.126.217-.054.378.072.72-.126.342.054.378v.306l-.144.198.108.324-.108.198-.018.198.108.198-.144.378-.054.162v.162l.09.18.306-.306c0-.18.06-.3.18-.36.012-.12.06-.21.144-.27l-.054-.054.234-.216.054-.072v-.162l.288-.216.072-.18.162-.108.702-.792c-.06.072-.258.294-.594.666v.036l.036-.126.234-.27.162-.306v-.18l.27-.09.036-.234.072-.072.018-.09v-.126l.252-.252v-.09c-.012-.036-.018-.06-.018-.072 0-.216.12-.336.36-.36.108-.216.27-.342.486-.378l.108-.162.036-.036c.108-.156.27-.264.486-.324l.162-.198h.432l.216.252.198.108.018.054.126.036.036.378.306.18-.126.396.198.432v.504l.144.684.036.648.162.378.108.468c.072.072.126.174.162.306l.324.09v.36l.18.198v.054l.072.018.072.108.072-.09c-.024 0 .006.006.09.018.132 0 .27-.12.414-.36l.216-.054.054-.09c.036-.096.108-.168.216-.216l.126.018.072-.072.018-.09.054-.072c.12-.084.198-.21.234-.378l.198-.216.036-.162.126-.288.342-.126.486.162.162.522c0 .012.006.024.018.036v.054zm6.912-1.296l-.108.324c0 .312-.018.558-.054.738l-.108.18v.198l-.09.126-.054.252-.198.198-.126.45-.144.054-.072.198-.216.126-.144.306-.216.108-.018.216-.342.126c-.156.216-.348.354-.576.414l-.072.018c-.168.252-.39.378-.666.378-.12.072-.258.108-.414.108l-.18.126-.18.054-.234.18-.234-.018-.252.072-.306-.126-.774-.054-.27-.414-.396-.414.09-.288-.27-.612.126-.234-.09-.432.09-.27c-.024-.168-.036-.288-.036-.36 0-.228.06-.396.18-.504.012-.12.09-.318.234-.594h.09l-.036-.126.054-.252v-.27c.096-.108.15-.18.162-.216l-.054-.252V9.23c.084-.168.126-.342.126-.522l.378-.522.045-.036c.03-.024.058-.048.082-.072l-.018-.072h.072l.27-.306.018-.414.45-.162c.168-.108.276-.288.324-.54h.234c.132-.072.252-.108.36-.108.108 0 .21.024.306.072l.198.018.468-.18.252.234.198.126h.144l.27.144h.144c.156.144.336.342.54.594l.036.09.126.072.378.486.342.846v.18l.162.63zm-1.188.432l-.018-.09c-.084-.084-.132-.174-.144-.27l.054-.09-.162-.342.036-.342-.072-.09c-.156-.12-.24-.216-.252-.288-.108-.048-.162-.168-.162-.36l-.108-.018-.216-.36-.162-.126-.378-.144-.144-.036c-.072 0-.12-.024-.144-.072l-.36.396-.234.504-.378.198-.054.198-.18.09-.072.468-.216.108c-.048.168-.072.324-.072.468l-.288.27.09.054c0 .144-.054.27-.162.378-.036.108-.084.228-.144.36v.144l-.054.072.018.216-.198.486.036.09v.504l-.072.252.018.252.162.234.252.09.09.036.144-.072.468.036.072-.18h.072c.072 0 .114.018.126.054l.162-.054.144.054.234-.162.036-.054.162-.036c.084-.132.282-.264.594-.396l.036-.09.36-.252.198-.288.288-.144.018-.09.09-.198v-.234l.216-.18.072-.126.09-.108c-.048-.144-.072-.246-.072-.306 0-.108.036-.222.108-.342l.072-.072zm13.86 2.304l-.216.252-.198.468-.144.108-.126.252-.36.036-.234.234h-.36l-.216.18-.198-.054-.234.054v.144l-.666-.054-.288.018-.216.108-.18-.108c.12-.012.216-.018.288-.018-.096.012-.384.036-.864.072l-.054-.018-.144-.018-.234.126c-.072-.048-.204-.102-.396-.162-.264-.024-.438-.036-.522-.036h-.144c-.084-.012-.174-.018-.27-.018-.096 0-.192.024-.288.072L99.852 14l-.144-.036c-.036 0-.102-.018-.198-.054-.444-.048-.666-.42-.666-1.116v-.162l.342-.252.432-.162.324.162h.252v.054c.12.048.216.144.288.288l.144.018v.234l.234.054.054.036 2.304-.144.558-.09h.054l.036-.09.252-.036.036-.054c.252-.036.486-.108.702-.216l.018-.09c-.012-.012-.036-.054-.072-.126l-.09.018-.234-.18h-.162l-.09-.126.054-.072-.198.036-.144-.162c-.036.012-.096.018-.18.018-.156 0-.312-.03-.468-.09h-.162l-.126-.054-.252.09-.144-.162h-.054l-.252-.198-.558-.216-.18-.144-.684-.126-.072-.126-.504-.324-.27-.594-.216-.306-.072-.936.072-.108c.024-.276.12-.516.288-.72.18-.096.27-.234.27-.414l.27-.054c.048-.096.144-.186.288-.27l.27-.216 1.134-.432.198-.054.36-.036.594-.162 1.134.072.036.09c.108.036.228.132.36.288v.09l.288.18-.126.432-.036.162c-.072.3-.24.45-.504.45-.216 0-.378-.102-.486-.306v-.054l-.216-.018-.252.072-.234-.162-.126.09c-.156 0-.3.048-.432.144-.18 0-.354.072-.522.216h-.234l-.162.126-.252.054-.036.036-.108.054-.162.162-.054.018-.162.252-.198.108c-.048.156-.078.288-.09.396.012.168.033.28.063.333.03.054.11.11.243.17v.09l.234.127c.192.072.336.15.432.234h.36l.234.198.414.054.162.108.702.198.09.198.072-.126c.156 0 .366.072.63.216l.324.054.036.126h.288l.504.288c.06.156.192.3.396.432l.198.126-.054.216c.084.12.126.246.126.378v.054zm7.776-2.736l-.108.324c0 .312-.018.558-.054.738l-.108.18v.198l-.09.126-.054.252-.198.198-.126.45-.144.054-.072.198-.216.126-.144.306-.216.108-.018.216-.342.126c-.156.216-.348.354-.576.414l-.072.018c-.168.252-.39.378-.666.378-.12.072-.258.108-.414.108l-.18.126-.18.054-.234.18-.234-.018-.252.072-.306-.126-.774-.054-.27-.414-.396-.414.09-.288-.27-.612.126-.234-.09-.432.09-.27c-.024-.168-.036-.288-.036-.36 0-.228.06-.396.18-.504.012-.12.09-.318.234-.594h.09l-.036-.126.054-.252v-.27c.096-.108.15-.18.162-.216l-.054-.252V9.23c.084-.168.126-.342.126-.522l.378-.522.045-.036c.03-.024.056-.048.08-.072l-.018-.072h.072l.27-.306.018-.414.45-.162c.168-.108.276-.288.324-.54h.234c.132-.072.252-.108.36-.108.108 0 .21.024.306.072l.198.018.468-.18.252.234.198.126h.144l.27.144h.144c.156.144.336.342.54.594l.036.09.126.072.378.486.342.846v.18l.162.63zm-1.188.432l-.018-.09c-.084-.084-.132-.174-.144-.27l.054-.09-.162-.342.036-.342-.072-.09c-.156-.12-.24-.216-.252-.288-.108-.048-.162-.168-.162-.36l-.108-.018-.216-.36-.162-.126-.378-.144-.144-.036c-.072 0-.12-.024-.144-.072l-.36.396-.234.504-.378.198-.054.198-.18.09-.072.468-.216.108c-.048.168-.072.324-.072.468l-.288.27.09.054c0 .144-.054.27-.162.378-.036.108-.084.228-.144.36v.144l-.054.072.018.216-.198.486.036.09v.504l-.072.252.018.252.162.234.252.09.09.036.144-.072.468.036.072-.18h.072c.072 0 .114.018.126.054l.162-.054.144.054.234-.162.036-.054.162-.036c.084-.132.282-.264.594-.396l.036-.09.36-.252.198-.288.288-.144.018-.09.09-.198v-.234l.216-.18.072-.126.09-.108c-.048-.144-.072-.246-.072-.306 0-.108.036-.222.108-.342l.072-.072zm12.582 2.736c0 .144-.108.318-.324.522l-.144.054-.126.162-.324.09c-.06.084-.12.126-.18.126-.012 0-.024-.006-.036-.018h-.054c-.264.132-.582.198-.954.198h-.144l-.45-.09-.306-.144-.684-.576-.144-.486-.288-.234c.036-.048.054-.126.054-.234 0-.072-.048-.192-.144-.36l.054-.432v-.072c0-.144-.042-.33-.126-.558l.108-.54-.234.468-.27.036-.036.378c-.096.048-.21.072-.342.072l-.198.432-.234.27c-.096.108-.18.168-.252.18l-.054.036-.648.666h-.072l-.342.396-.324.162-.18.234-.414.126-.594.234-.36-.18c-.24 0-.408-.108-.504-.324l-.162-.09c0-.036.006-.084.018-.144v-.126l-.288-.252.072-.108-.216-.504.072-.072-.036-.036v-.108c-.012-.036-.018-.066-.018-.09 0-.132.018-.258.054-.378l.018-.468-.072-.378c.06-.096.09-.18.09-.252 0-.084-.036-.162-.108-.234l.198-.144V9.95l-.072-.594.198-1.152c0-.192-.054-.474-.162-.846.036-.384.288-.594.756-.63l.144.054.252.036.324.36-.108.468-.036.774.054.594-.108.216.054.144-.09.288v.18l-.036.054c.012.036.018.09.018.162 0 .156-.024.318-.072.486l.09.126-.072.27.036.216v.252c.06.072.09.162.09.27 0 .096-.024.192-.072.288v.072c.06.204.09.336.09.396l.162.162c.072-.048.156-.108.252-.18.036-.12.12-.198.252-.234v-.18c.072 0 .186-.018.342-.054l.036-.162.306-.126.054-.054c.084-.084.222-.162.414-.234V11.3l.342-.252c.084-.228.234-.378.45-.45.132-.132.222-.21.27-.234l.234-.306v-.054l.072-.036.162-.072.09-.252.378-.162.072-.018.126-.126v-.162l.108-.036c.036-.192.132-.336.288-.432l.27-.612.09-.324.036-.072h.072l.126-.09-.108-.036c.132-.216.234-.444.306-.684l.522-.018.414.342.18.288-.198.774-.27.36-.216.702-.18.108v.27l-.108.198.054.324-.144.126.072.576.036.81h.09v.468l.252.306.234.126.018.09c.084.012.186.042.306.09l.45.036.27-.072.486-.234c.096-.048.216-.072.36-.072.36 0 .54.156.54.468zm7.92-5.652l-.144.594-.666.09-.36.234-.234-.108-.252.144-.27.108-.18.126v.072l-.378.18-.252.324h-.126c-.192.204-.33.33-.414.378l-.252.414-.09.036c-.036.096-.078.24-.126.432l-.252.09-.108.216-.144.18-.036.27-.144.054v.27l-.054.054c.036.06.078.126.126.198l-.27.108-.036.234-.18.306.108.234-.234.324c.024.12.036.204.036.252v.072c-.012.036-.018.066-.018.09l.036.162.306.324-.234.414-.216.162-.504.252-.666-.27v-.414l-.072-.162.054-.27c-.024-.192-.036-.336-.036-.432 0-.036.006-.084.018-.144v-.126l-.018-.18c-.084-.084-.126-.18-.126-.288 0-.096.042-.204.126-.324 0-.06-.012-.24-.036-.54l.054-.054-.054-.234.036-.216-.036-.126.054-.414-.108-.18.072-.198-.072-.234c.012-.072.018-.168.018-.288 0-.18-.024-.3-.072-.36l.072-.108-.072-.324-.162-.234.09-.288-.072-.108-.072-.432v-.144c-.06-.072-.09-.162-.09-.27 0-.24.264-.444.792-.612l.45.09.09.342.18.234-.054.486c.036.24.078.504.126.792l.054.288c.012.024.024.09.036.198 0 .072-.03.15-.09.234l.054.36-.036.396-.072.18.054.072.036.18c.072-.084.114-.174.126-.27l.072-.27c.036-.072.09-.126.162-.162l.072-.27.252-.144.036-.216.198-.216.144-.27c.156-.168.306-.276.45-.324l.036-.054.162-.252.18-.036.054-.054.072-.108.198-.108.108-.126.108.018.144-.072.072-.108.216-.108.306-.198.432-.144c.168-.024.258-.036.27-.036v.018c-.012 0-.018.006-.018.018h.018c.048 0 .12-.024.216-.072.06-.048.144-.072.252-.072.048 0 .132.012.252.036.312.012.486.156.522.432zm6.876 3.888l-.342.324-.018.108c-.036.216-.138.39-.306.522-.288.54-.69.936-1.206 1.188l-.27.216-.234.036-.288.216-.198.018-.45.288-.288-.036-.324.144-.252-.072-.126.108-.342-.054-.342.054-.126-.108-.36-.072-.522-.396-.288-.36c-.18-.228-.27-.42-.27-.576v-.054l-.18-.27v-.234c-.036-.144-.054-.276-.054-.396v-.126l-.09-.306.09-.216-.072-.144.216-.342-.054-.288.144-.468.072-.108.072-.432-.036-.072.216-.234.036-.18.144-.414.234-.504.324-.288.072-.162.108-.198.036-.18.288-.342c.072-.024.156-.048.252-.072.048-.228.348-.36.9-.396.468.096.768.222.9.378.132.024.234.078.306.162l.378.018.252.324c.06.12.102.24.126.36l.144.144-.054.27c.012.084.018.216.018.396l.09.072v.27l.072.558c-.252.252-.54.396-.864.432-.168-.312-.378-.546-.63-.702l-.036-.594-.108-.198V8.06l-.18-.216-.09-.072-.162.054h-.234c-.156.036-.306.15-.45.342-.144.192-.288.396-.432.612l-.018.18-.108.09v.324l-.234.252-.288.792.018.216-.144.324.054.396-.108.054-.036.504.018.09.216.216.09.378.252.072.018.144.306.054.234.054c.084-.048.186-.072.306-.072h.126c.144-.06.276-.09.396-.09.084-.036.192-.072.324-.108.144-.192.348-.288.612-.288h.108c.06 0 .102-.03.126-.09.132-.204.342-.336.63-.396.336-.3.528-.54.576-.72.168-.096.276-.246.324-.45l.108-.072.054-.414c.552.084.828.36.828.828v.144zm6.75 1.332c0 .144-.108.324-.324.54-.06.192-.15.348-.27.468l-.108.018-.198.342-.324.054-.342.216-.18.324-.198-.036c-.132.06-.24.096-.324.108l-.108.162c-.036-.012-.09-.018-.162-.018-.156 0-.306.108-.45.324l-.252-.216c-.048.012-.12.018-.216.018-.156 0-.288-.024-.396-.072h-.306l-.144-.09c-.456-.072-.744-.246-.864-.522v-.054l-.216-.108-.108-.306-.216-.144v-.27l-.216-.792.036-.648.072-.288v-.378l.09-.288-.018-.126.126-.216-.036.036c0-.108.03-.222.09-.342v-.09l-.054-.432c0-.204.09-.384.27-.54.012-.024.018-.06.018-.108s-.02-.147-.063-.297c-.042-.15-.063-.255-.063-.315 0-.144.036-.294.108-.45.096.144.234.216.414.216h.054c.024-.048.078-.102.162-.162.096-.3.228-.552.396-.756l.072-.072c0-.048.036-.186.108-.414h.144l.036-.09.144-.036c.06-.096.1-.153.117-.17.018-.02.147-.094.387-.226.048-.084.12-.162.216-.234.048-.024.108-.048.18-.072l.072-.108c.324-.108.528-.162.612-.162.096 0 .186.024.27.072l.09-.018.126.072c.144.108.288.198.432.27l.306.234v.072c.276.216.414.522.414.918l-.054.18.054.594-.162.108-.18.468-.342.378-.018.288c-.384.276-.738.498-1.062.666-.108.168-.276.252-.504.252h-.054l-.342.216h-.288l-.432.18-.324-.162h-.036c-.024.096-.048.24-.072.432l-.144.108-.018.216-.108.306c.036.288.054.474.054.558l-.072.054c0 .156-.006.27-.018.342 0 .012-.006.03-.018.054v.054c0 .096.048.174.144.234.036.144.096.234.18.27l.126.108.396.108v.054l.144.036.612.036.36-.054.18-.126.108-.036.18-.27.09-.018.45-.144c.048-.084.126-.156.234-.216l.054-.09c.24-.048.378-.174.414-.378.168-.168.384-.252.648-.252h.072c.228.264.342.48.342.648zm-1.782-5.184c0-.036-.018-.108-.054-.216l-.09-.018-.036.018h-.072c-.024.012-.048.018-.072.018-.012 0-.03-.006-.054-.018h-.054l-.18.126-.162.018-.09.036-.306.396-.198.144-.288.504-.162.108c-.036.204-.12.378-.252.522l-.072.126c.132-.084.282-.126.45-.126l.126-.054.054-.162.252.018.144-.216h.108l.198.072.09-.27h.126v-.198l.234-.054.054-.054.036-.162.234-.342c.024-.06.036-.132.036-.216zm9.63 5.184l-.216.252-.198.468-.144.108-.126.252-.36.036-.234.234h-.36l-.216.18-.198-.054-.234.054v.144l-.666-.054-.288.018-.216.108-.18-.108c.12-.012.216-.018.288-.018-.096.012-.384.036-.864.072l-.054-.018-.144-.018-.234.126c-.072-.048-.204-.102-.396-.162-.264-.024-.438-.036-.522-.036h-.144c-.084-.012-.174-.018-.27-.018-.096 0-.192.024-.288.072l-.252-.162-.144-.036c-.036 0-.102-.018-.198-.054-.444-.048-.666-.42-.666-1.116v-.162l.342-.252.432-.162.324.162h.252v.054c.12.048.216.144.288.288l.144.018v.234l.234.054.054.036 2.304-.144.558-.09h.054l.036-.09.252-.036.036-.054c.252-.036.486-.108.702-.216l.018-.09c-.012-.012-.036-.054-.072-.126l-.09.018-.234-.18h-.162l-.09-.126.054-.072-.198.036-.144-.162c-.036.012-.096.018-.18.018-.156 0-.312-.03-.468-.09h-.162l-.126-.054-.252.09-.144-.162h-.054l-.252-.198-.558-.216-.18-.144-.684-.126-.072-.126-.504-.324-.27-.594-.216-.306-.072-.936.072-.108c.024-.276.12-.516.288-.72.18-.096.27-.234.27-.414l.27-.054c.048-.096.144-.186.288-.27l.27-.216 1.134-.432.198-.054.36-.036.594-.162 1.134.072.036.09c.108.036.228.132.36.288v.09l.288.18-.126.432-.036.162c-.072.3-.24.45-.504.45-.216 0-.378-.102-.486-.306v-.054l-.216-.018-.252.072-.234-.162-.126.09c-.156 0-.3.048-.432.144-.18 0-.354.072-.522.216h-.234l-.162.126-.252.054-.036.036-.108.054-.162.162-.054.018-.162.252-.198.108c-.048.156-.078.288-.09.396.012.168.033.28.063.333.03.054.112.11.244.17v.09l.234.127c.192.072.336.15.432.234h.36l.234.198.414.054.162.108.702.198.09.198.072-.126c.156 0 .366.072.63.216l.324.054.036.126h.288l.504.288c.06.156.192.3.396.432l.198.126-.054.216c.084.12.126.246.126.378v.054zm11.592-4.986c0 .108-.108.21-.324.306-.048.06-.138.114-.27.162-.168.072-.288.132-.36.18l-.378-.126c-.192.144-.438.216-.738.216l-.216-.054-.162.144h-.486l-.306.198c-.132-.048-.258-.072-.378-.072-.036.024-.12.048-.252.072-.06 0-.126-.018-.198-.054l-.054.684.018.504-.054.63.036.684.054.324v.252l.252.54c-.036.036-.054.078-.054.126 0 .084.132.15.396.198l.036.216.126.054.216.144.144.108c.12-.024.204-.036.252-.036.108 0 .216.018.324.054.048-.024.15-.108.306-.252.108-.096.21-.144.306-.144h.054c.024.012.042.018.054.018.108-.228.3-.378.576-.45.252 0 .462.078.63.234v.126c0 .408-.144.666-.432.774-.108.252-.336.414-.684.486l-.216.198h-.234l-.414.108c-.096.024-.234.036-.414.036-.096 0-.198-.024-.306-.072h-.234l-.63-.342-.162-.054-.378-.504-.216-.234-.396-.9-.144-.846.036-.216-.144-.198.09-.252-.09-.396.126-.126.036-.234-.054-.216.036-.324-.072-.288.09-.09v-.288l-.126-.054-.342.072-.324-.234h-.054c-.36 0-.54-.192-.54-.576V7.7l-.216-.342.342-.324.45.072.234-.036.342.09h.378V6.8l-.234-.504.234-.126-.09-.27.018-.558-.144-.234c-.084-.132-.126-.252-.126-.36 0-.132.03-.24.09-.324l.054-.252.144-.144c.324-.06.54-.09.648-.09.384 0 .594.174.63.522l-.054.09c.072.108.108.21.108.306 0 .012-.006.042-.018.09l-.036.108-.018.126.072.234-.018.09.036.252-.162.216.09.36-.072.432.144.162-.144.324.558-.072.99.09.792-.126.27.018.09-.018h.702c.372 0 .558.132.558.396zm7.11 2.25l-.108.324c0 .312-.018.558-.054.738l-.108.18v.198l-.09.126-.054.252-.198.198-.126.45-.144.054-.072.198-.216.126-.144.306-.216.108-.018.216-.342.126c-.156.216-.348.354-.576.414l-.072.018c-.168.252-.39.378-.666.378-.12.072-.258.108-.414.108l-.18.126-.18.054-.234.18-.234-.018-.252.072-.306-.126-.774-.054-.27-.414-.396-.414.09-.288-.27-.612.126-.234-.09-.432.09-.27c-.024-.168-.036-.288-.036-.36 0-.228.06-.396.18-.504.012-.12.09-.318.234-.594h.09l-.036-.126.054-.252v-.27c.096-.108.15-.18.162-.216l-.054-.252V9.23c.084-.168.126-.342.126-.522l.378-.522.045-.036c.03-.024.056-.048.08-.072l-.018-.072h.072l.27-.306.018-.414.45-.162c.168-.108.276-.288.324-.54h.234c.132-.072.252-.108.36-.108.108 0 .21.024.306.072l.198.018.468-.18.252.234.198.126h.144l.27.144h.144c.156.144.336.342.54.594l.036.09.126.072.378.486.342.846v.18l.162.63zm-1.188.432l-.018-.09c-.084-.084-.132-.174-.144-.27l.054-.09-.162-.342.036-.342-.072-.09c-.156-.12-.24-.216-.252-.288-.108-.048-.162-.168-.162-.36l-.108-.018-.216-.36-.162-.126-.378-.144-.144-.036c-.072 0-.12-.024-.144-.072l-.36.396-.234.504-.378.198-.054.198-.18.09-.072.468-.216.108c-.048.168-.072.324-.072.468l-.288.27.09.054c0 .144-.054.27-.162.378-.036.108-.084.228-.144.36v.144l-.054.072.018.216-.198.486.036.09v.504l-.072.252.018.252.162.234.252.09.09.036.144-.072.468.036.072-.18h.072c.072 0 .114.018.126.054l.162-.054.144.054.234-.162.036-.054.162-.036c.084-.132.282-.264.594-.396l.036-.09.36-.252.198-.288.288-.144.018-.09.09-.198v-.234l.216-.18.072-.126.09-.108c-.048-.144-.072-.246-.072-.306 0-.108.036-.222.108-.342l.072-.072zm12.132 1.818c0 .132-.048.24-.144.324-.096.144-.252.294-.468.45l-.18.126-.162.216-.162.072-.252.162-.18.018-.072.072c-.24.072-.426.192-.558.36-.084.06-.162.09-.234.09-.048 0-.09-.006-.126-.018-.204.12-.468.18-.792.18-.276 0-.456-.024-.54-.072l-.324-.18-.108-.18v-.054c0-.156-.066-.282-.198-.378l-.072-.36-.144-.162-.09-.666-.018-.396.018-.288.036-.108c-.036-.072-.054-.15-.054-.234.06-.504.09-.822.09-.954l-.162-.324.162-.27.054-.45-.036-.306.108-.27-.108-.36.162-.252.018-.162v-.63l.054-.126-.018-.756.054-.774-.072-.144-.018-.54.054-.486-.054-.18.108-1.08c.504-.12.726-.18.666-.18.192 0 .348.102.468.306l.036.144.27.27-.144.378.036.072c-.024.228-.054.378-.09.45l.036.378.09.342-.126.378c0 .204-.03.39-.09.558 0 .06-.012.156-.036.288l-.018.108.162.198-.072.198c.024.096.036.162.036.198 0 .072-.024.168-.072.288l.036.162-.108.576v.378l-.126.378.072.342-.072.792.054.09-.09.414-.036.504c-.024.072-.036.114-.036.126 0 .204-.006.372-.018.504l.09.252-.036.27.108.234-.018.09c.072.06.138.156.198.288h.162l.234.072.108-.144.162-.018c.072-.024.126-.036.162-.036h.054c.12-.024.216-.084.288-.18l.108-.054c.084-.132.222-.222.414-.27.06-.048.174-.144.342-.288 0-.168.102-.294.306-.378.18 0 .3-.03.36-.09.24.036.393.1.46.19.065.09.098.26.098.512zm3.96-10.206c0 .144-.096.276-.288.396v.036c-.228.276-.426.432-.594.468l-.27.324-.18.234-.414.108-.18.252-.288.144-.468.414-.288-.27.054-.45.198-.324c.012-.168.108-.312.288-.432V2.66l.108-.072.018-.27.288-.072v-.162l.216-.036c.048-.24.15-.414.306-.522l.054-.036.108-.108.144-.432c.792.192 1.188.486 1.188.882zm1.836 9.54c0 .276-.048.45-.144.522l-.09.072-.09.252-.288.09c-.084.192-.21.342-.378.45l-.162.054-.234.252-.216.054c-.084.216-.258.33-.522.342-.024.036-.078.108-.162.216-.18.12-.366.192-.558.216l-.09.018-.126.162h-.36l-.288.216-.738-.54-.342-.702-.018-.882-.072-.216.216-1.584.072-.072c-.036-.18-.054-.354-.054-.522 0-.108.036-.33.108-.666l.09-.414c-.024-.072-.072-.15-.144-.234l.108-.342.036-.414.036-.054c-.048-.108-.078-.228-.09-.36.012-.024.024-.057.036-.1.012-.04.018-.074.018-.098-.036-.108-.054-.21-.054-.306 0-.288.162-.42.486-.396l.216.018c.144-.072.234-.108.27-.108.24 0 .402.132.486.396v.072c.048.144.072.282.072.414 0 .108-.012.186-.036.234l-.126.9.126.252c0 .216-.072.408-.216.576l.072.216-.234.684c-.024.3-.054.528-.09.684v.45l-.108.252.018.18-.036.414.036.324.27.216.216-.036.036-.054.144.018.234-.072.198-.198.072-.108.126-.018.036-.09.054-.072.108.072.18-.18.108.018.036-.126h.036l.054-.144.162-.072.342-.162c.276-.192.546-.288.81-.288h.072c.132.084.222.192.27.324zm12.474-.288c0 .096-.078.222-.234.378l-.198.306-.072.36-.162.054-.036.108c-.192.06-.33.21-.414.45-.132.168-.276.288-.432.36-.06.06-.114.102-.162.126l-.09.162-.162.036-.468.252-.612.072-.162-.036-.27.054-.108-.126c-.168-.084-.288-.168-.36-.252-.144-.036-.252-.15-.324-.342-.204-.24-.306-.432-.306-.576v-.054l-.126-.216-.036-.036-.108-.324-.162-.342.036-.414-.18-.234-.27-1.548c-.036-.204-.054-.378-.054-.522l-.036-.09-.09-.126-.162.216-.648.684-.234.378-.126.252-.198.288-.144.144.018.09-.252.558-.144.18-.18.036-.162.162c0 .24-.114.396-.342.468l-.036.036c-.108.264-.228.426-.36.486l-.162.252c-.264.24-.438.39-.522.45-.036.12-.102.222-.198.306-.024.036-.066.084-.126.144-.036.204-.204.348-.504.432l-.198.054c-.24-.012-.438-.15-.594-.414l-.27-.45.09-.432-.036-.234.036-.036.018-.234-.198-.432.144-.216-.072-.234.126-.252.036-.414-.072-.072.144-.252-.054-.126-.018-.288.072-.54c-.024-.12-.036-.198-.036-.234 0-.024.006-.048.018-.072v-.072l-.09-.144.054-.576-.018-.198.054-.288-.072-.486.324-.54c.372.06.63.14.774.243.144.102.216.285.216.55v.16l.126.217-.054.378.072.72-.126.342.054.378v.306l-.144.198.108.324-.108.198-.018.198.108.198-.144.378-.054.162v.162l.09.18.306-.306c0-.18.06-.3.18-.36.012-.12.06-.21.144-.27l-.054-.054.234-.216.054-.072v-.162l.288-.216.072-.18.162-.108.702-.792c-.06.072-.258.294-.594.666v.036l.036-.126.234-.27.162-.306v-.18l.27-.09.036-.234.072-.072.018-.09v-.126l.252-.252v-.09c-.012-.036-.018-.06-.018-.072 0-.216.12-.336.36-.36.108-.216.27-.342.486-.378l.108-.162.036-.036c.108-.156.27-.264.486-.324l.162-.198h.432l.216.252.198.108.018.054.126.036.036.378.306.18-.126.396.198.432v.504l.144.684.036.648.162.378.108.468c.072.072.126.174.162.306l.324.09v.36l.18.198v.054l.072.018.072.108.072-.09c-.024 0 .006.006.09.018.132 0 .27-.12.414-.36l.216-.054.054-.09c.036-.096.108-.168.216-.216l.126.018.072-.072.018-.09.054-.072c.12-.084.198-.21.234-.378l.198-.216.036-.162.126-.288.342-.126.486.162.162.522c0 .012.006.024.018.036v.054zm11.16 1.584l-.108.198c0 .348-.12.618-.36.81 0 .12-.042.216-.126.288l-.09.198-.234.162-.108.198-.72.378-.342.09-.522.036-.288-.126-.234.018-.234-.162-.18-.018-.72-.378-.648-.54c-.192-.168-.48-.408-.864-.72l-.396-.54-.324-.27-.054-.126-.162-.198c-.156-.192-.342-.396-.558-.612l-.306-.108-.342-.684.054-.27c.072-.384.264-.6.576-.648l.342.108.288.288.306.198h.288l.072.054c.096 0 .174.006.234.018.12-.06.33-.126.63-.198l.162-.036.108-.234h.432c.132-.108.27-.168.414-.18h.036c.036-.084.084-.186.144-.306l.342-.162.144-.144.27-.45h.126c.048-.12.096-.288.144-.504l.162-.108-.126-.072.072-.306c-.024-.048-.09-.09-.198-.126l-.216.072-.072-.144-.18-.072-.054-.072c-.18-.024-.438-.048-.774-.072v-.072l-.108.072c-.096-.024-.168-.036-.216-.036-.156 0-.384.084-.684.252h-.252c-.456.156-.714.27-.774.342l-.396.126-.558.45-.522.522v.072l-.342.594-.108.342-.072.036v.072c-.036.072-.066.138-.09.198l-.108.054.036.054-.054.09c-.012.024-.018.054-.018.09 0 .06.024.114.072.162 0 .252-.06.414-.18.486-.024.048-.036.096-.036.144 0 .036.006.066.018.09 0 .204-.042.372-.126.504-.06.06-.096.102-.108.126l.054.27-.054.36.018.288c-.096.216-.144.39-.144.522.024.12.036.186.036.198 0 .132-.075.27-.225.414-.15.144-.29.216-.423.216-.168 0-.342-.102-.522-.306l-.198-.558.054-.324-.054-.702.054-.18v-.576l.036-.234v-.198c0-.24.012-.483.036-.73.024-.245.036-.374.036-.386v-.306l.018-.162v-.504l.054-.144-.054-.216.072-.594v-.63l-.072-.36.09-.144-.018-.072-.072-.972-.126-.594V5.18l.108-.612-.072-.234-.036-.432c-.024-.288-.036-.414-.036-.378 0-.42.33-.642.99-.666l.396-.216-.072.882.072.504-.126.522.036.576.09.324-.054.306.036.432-.054.36.09.378-.036.09.072.18-.09.504v.108l.09.342c-.06.024-.09.114-.09.27l-.054.432.036.162.216-.378.108-.414.252-.414c0-.12.042-.228.126-.324h.198l.144-.306.414-.198c.168-.168.36-.288.576-.36l.108-.09.288-.144.234-.054c.252-.216.798-.36 1.638-.432l1.404.108.288.162.144.018.306.324.018-.108c.156.072.27.186.342.342.06-.012.084-.018.072-.018.048 0 .096.018.144.054l.378.774-.018.09c.06.12.09.228.09.324 0 .168-.066.336-.198.504v.108l-.252.666-.378.522-.108.018-.216.288c-.132 0-.234-.036-.306-.108v.288l-.144.09-.108.198-.324.09c-.048.012-.102.066-.162.162-.828.324-1.29.486-1.386.486-.036 0-.105-.01-.207-.027-.1-.018-.188-.027-.26-.027-.048 0-.084.006-.108.018.012.036.078.168.198.396l.234.144.324.576.486.288.036.072.162.09.234.27.432.342.576.234.324.09.234-.018.126-.054c.24-.036.468-.132.684-.288l.306-.558.18-.216.108-.324c.18-.06.324-.09.432-.09.276 0 .456.156.54.468zm10.836-5.13c0 .108-.108.21-.324.306-.048.06-.138.114-.27.162-.168.072-.288.132-.36.18l-.378-.126c-.192.144-.438.216-.738.216l-.216-.054-.162.144h-.486l-.306.198c-.132-.048-.258-.072-.378-.072-.036.024-.12.048-.252.072-.06 0-.126-.018-.198-.054l-.054.684.018.504-.054.63.036.684.054.324v.252l.252.54c-.036.036-.054.078-.054.126 0 .084.132.15.396.198l.036.216.126.054.216.144.144.108c.12-.024.204-.036.252-.036.108 0 .216.018.324.054.048-.024.15-.108.306-.252.108-.096.21-.144.306-.144h.054c.024.012.042.018.054.018.108-.228.3-.378.576-.45.252 0 .462.078.63.234v.126c0 .408-.144.666-.432.774-.108.252-.336.414-.684.486l-.216.198h-.234l-.414.108c-.096.024-.234.036-.414.036-.096 0-.198-.024-.306-.072h-.234l-.63-.342-.162-.054-.378-.504-.216-.234-.396-.9-.144-.846.036-.216-.144-.198.09-.252-.09-.396.126-.126.036-.234-.054-.216.036-.324-.072-.288.09-.09v-.288l-.126-.054-.342.072-.324-.234h-.054c-.36 0-.54-.192-.54-.576V7.7l-.216-.342.342-.324.45.072.234-.036.342.09h.378V6.8l-.234-.504.234-.126-.09-.27.018-.558-.144-.234c-.084-.132-.126-.252-.126-.36 0-.132.03-.24.09-.324l.054-.252.144-.144c.324-.06.54-.09.648-.09.384 0 .594.174.63.522l-.054.09c.072.108.108.21.108.306 0 .012-.006.042-.018.09l-.036.108-.018.126.072.234-.018.09.036.252-.162.216.09.36-.072.432.144.162-.144.324.558-.072.99.09.792-.126.27.018.09-.018h.702c.372 0 .558.132.558.396zm7.11 2.25l-.108.324c0 .312-.018.558-.054.738l-.108.18v.198l-.09.126-.054.252-.198.198-.126.45-.144.054-.072.198-.216.126-.144.306-.216.108-.018.216-.342.126c-.156.216-.348.354-.576.414l-.072.018c-.168.252-.39.378-.666.378-.12.072-.258.108-.414.108l-.18.126-.18.054-.234.18-.234-.018-.252.072-.306-.126-.774-.054-.27-.414-.396-.414.09-.288-.27-.612.126-.234-.09-.432.09-.27c-.024-.168-.036-.288-.036-.36 0-.228.06-.396.18-.504.012-.12.09-.318.234-.594h.09l-.036-.126.054-.252v-.27c.096-.108.15-.18.162-.216l-.054-.252V9.23c.084-.168.126-.342.126-.522l.378-.522.045-.036c.03-.024.056-.048.08-.072l-.018-.072h.072l.27-.306.018-.414.45-.162c.168-.108.276-.288.324-.54h.234c.132-.072.252-.108.36-.108.108 0 .21.024.306.072l.198.018.468-.18.252.234.198.126h.144l.27.144h.144c.156.144.336.342.54.594l.036.09.126.072.378.486.342.846v.18l.162.63zm-1.188.432l-.018-.09c-.084-.084-.132-.174-.144-.27l.054-.09-.162-.342.036-.342-.072-.09c-.156-.12-.24-.216-.252-.288-.108-.048-.162-.168-.162-.36l-.108-.018-.216-.36-.162-.126-.378-.144-.144-.036c-.072 0-.12-.024-.144-.072l-.36.396-.234.504-.378.198-.054.198-.18.09-.072.468-.216.108c-.048.168-.072.324-.072.468l-.288.27.09.054c0 .144-.054.27-.162.378-.036.108-.084.228-.144.36v.144l-.054.072.018.216-.198.486.036.09v.504l-.072.252.018.252.162.234.252.09.09.036.144-.072.468.036.072-.18h.072c.072 0 .114.018.126.054l.162-.054.144.054.234-.162.036-.054.162-.036c.084-.132.282-.264.594-.396l.036-.09.36-.252.198-.288.288-.144.018-.09.09-.198v-.234l.216-.18.072-.126.09-.108c-.048-.144-.072-.246-.072-.306 0-.108.036-.222.108-.342l.072-.072zm5.112 3.33l-.126.054v.126l-.198.144-.162.216-.342.018-.108.018c-.048.024-.12.036-.216.036-.12 0-.246-.036-.378-.108-.048-.012-.108-.04-.18-.08-.072-.043-.126-.118-.162-.226l-.144-.108-.072-.018v-.504c0-.192.144-.348.432-.468.096-.084.234-.186.414-.306l.306.09.054.054.054-.054.108.072h.09c.144 0 .246.048.306.144l.126.234.198.252-.036.252.036.162zM17.168 27.234l-.45.846-.413.054h-.558l-.306.054-.233-.054-1.134.09-.324-.072-.073.018c-.12.048-.324.096-.612.144h-.648l-.144-.054h-.054c-.12 0-.295.03-.523.09-.18.048-.402.072-.666.072l-.287-.072-.054.216h-.217l-.054.846.09.144-.037.27v.468c0 .492-.048.822-.144.99l.143.198-.108.522.108.144-.198.288v.144l-.108.198.072.396-.055.756-.108.342c.012.012.018.042.018.09 0-.024-.018.054-.054.234 0 .012.007.036.02.072v.09c0 .132-.043.258-.127.378l.054.252c0 .084-.006.138-.018.162l-.02.054c-.023.072-.035.144-.035.216 0 .228.024.42.072.576-.264.048-.414.072-.45.072-.108 0-.198-.012-.27-.036l-.036-.018c-.31-.072-.467-.36-.467-.864.012-.06.018-.144.018-.252 0-.096-.01-.23-.035-.405-.024-.174-.036-.303-.036-.387 0-.12.017-.222.053-.306l.072-.738c-.096-.132-.144-.24-.144-.324 0-.024.013-.072.037-.144-.048-.096-.072-.168-.072-.216 0-.096.03-.174.09-.234 0-.108.048-.258.144-.45-.025-.096-.037-.198-.037-.306.084 0 .126-.042.126-.126 0-.024-.013-.063-.037-.117-.024-.054-.036-.11-.036-.17l.054.07-.07-.16c0-.23.03-.427.09-.595v-.522l-.09-.378.09-.702-.09-.522.035-.18-.27.018-.198.108-.144-.018v.072c-.252 0-.498-.018-.738-.054l-.054.144-.7-.234-.937-.018-.594.162c-.48-.408-.72-.702-.72-.882 0-.108.017-.216.053-.324v.054l.396-.342.34.018 1.207.216.306-.09.918.018.72.09.47-.18.16-.468.72.18.037-.036.036.054.252.306.072.018.252-.09.52.126c.517-.096.823-.144.92-.144.143 0 .293.03.45.09.035 0 .107.006.215.018.168-.024.276-.036.324-.036h.125l.612-.072.522.09.07.036.27-.09.38.09.9-.036.395.054h.954zm5.49 4.554l-.107.324c0 .312-.017.558-.053.738l-.108.18v.198l-.09.126-.055.252-.198.198-.126.45-.143.054-.072.198-.216.126-.145.306-.216.108-.02.216-.34.126c-.157.216-.35.354-.577.414l-.072.018c-.167.252-.39.378-.665.378-.12.072-.258.108-.414.108l-.18.126-.18.054-.233.18-.234-.018-.252.072-.305-.126-.774-.054-.27-.414-.395-.414.09-.288-.27-.612.126-.234-.09-.432.09-.27c-.023-.168-.035-.288-.035-.36 0-.228.06-.396.18-.504.012-.12.09-.318.234-.594h.09l-.037-.126.054-.252v-.27c.096-.108.15-.18.162-.216l-.055-.252v-.072c.084-.168.126-.342.126-.522l.38-.522.044-.036c.03-.024.057-.048.08-.072l-.017-.072h.072l.27-.306.017-.414.45-.162c.168-.108.276-.288.324-.54h.235c.132-.072.252-.108.36-.108.108 0 .21.024.306.072l.2.018.467-.18.252.234.197.126h.144l.27.144h.145c.156.144.336.342.54.594l.036.09.127.072.378.486.342.846v.18l.162.63zm-1.187.432l-.017-.09c-.084-.084-.132-.174-.144-.27l.053-.09-.162-.342.037-.342-.072-.09c-.156-.12-.24-.216-.252-.288-.108-.048-.162-.168-.162-.36l-.107-.018-.216-.36-.162-.126-.378-.144-.144-.036c-.072 0-.12-.024-.144-.072l-.36.396-.235.504-.378.198-.054.198-.18.09-.072.468-.215.108c-.048.168-.072.324-.072.468l-.288.27.09.054c0 .144-.054.27-.162.378-.036.108-.084.228-.144.36v.144l-.055.072.018.216-.198.486.036.09v.504l-.07.252.017.252.162.234.25.09.09.036.145-.072.468.036.072-.18h.072c.072 0 .114.018.126.054l.162-.054.144.054.233-.162.036-.054.16-.036c.085-.132.283-.264.595-.396l.036-.09.36-.252.2-.288.287-.144.018-.09.09-.198v-.234l.216-.18.073-.126.09-.108c-.048-.144-.072-.246-.072-.306 0-.108.037-.222.11-.342l.07-.072zm13.807.972l-.342.324-.018.108c-.036.216-.138.39-.306.522-.287.54-.69.936-1.205 1.188l-.27.216-.234.036-.287.216-.198.018-.45.288-.288-.036-.324.144-.252-.072-.125.108-.342-.054-.342.054-.125-.108-.36-.072-.522-.396-.288-.36c-.18-.228-.27-.42-.27-.576v-.054l-.18-.27v-.234c-.036-.144-.054-.276-.054-.396v-.126l-.09-.306.09-.216-.07-.144.215-.342-.054-.288.145-.468.072-.108.072-.432-.037-.072.216-.234.035-.18.144-.414.233-.504.324-.288.072-.162.107-.198.036-.18.288-.342c.073-.024.157-.048.253-.072.048-.228.348-.36.9-.396.468.096.768.222.9.378.132.024.234.078.306.162l.377.018.252.324c.06.12.1.24.125.36l.144.144-.055.27c.012.084.018.216.018.396l.09.072v.27l.072.558c-.252.252-.54.396-.864.432-.167-.312-.377-.546-.63-.702l-.035-.594-.108-.198v-.144l-.18-.216-.09-.072-.162.054h-.234c-.155.036-.305.15-.45.342-.143.192-.287.396-.43.612l-.02.18-.107.09v.324l-.234.252-.29.792.02.216-.145.324.054.396-.11.054-.035.504.018.09.216.216.09.378.25.072.02.144.305.054.234.054c.083-.048.185-.072.305-.072h.126c.145-.06.277-.09.397-.09.084-.036.192-.072.324-.108.145-.192.35-.288.613-.288h.108c.06 0 .103-.03.127-.09.132-.204.342-.336.63-.396.336-.3.528-.54.576-.72.168-.096.276-.246.324-.45l.108-.072.054-.414c.55.084.827.36.827.828v.144zm4.158-9.36c0 .144-.096.276-.288.396v.036c-.228.276-.426.432-.594.468l-.27.324-.18.234-.414.108-.18.252-.29.144-.467.414-.288-.27.054-.45.197-.324c.012-.168.108-.312.288-.432v-.072l.108-.072.018-.27.29-.072v-.162l.215-.036c.048-.24.15-.414.306-.522l.055-.036.108-.108.144-.432c.792.192 1.188.486 1.188.882zm1.836 9.54c0 .276-.047.45-.143.522l-.09.072-.09.252-.288.09c-.085.192-.21.342-.38.45l-.16.054-.235.252-.216.054c-.085.216-.26.33-.523.342-.024.036-.078.108-.162.216-.18.12-.366.192-.558.216l-.09.018-.126.162h-.36l-.287.216-.738-.54-.342-.702-.018-.882-.072-.216.216-1.584.07-.072c-.035-.18-.053-.354-.053-.522 0-.108.036-.33.108-.666l.09-.414c-.024-.072-.072-.15-.144-.234l.11-.342.035-.414.036-.054c-.047-.108-.077-.228-.09-.36.013-.024.025-.057.037-.1.012-.04.018-.074.018-.098-.036-.108-.054-.21-.054-.306 0-.288.163-.42.487-.396l.216.018c.144-.072.234-.108.27-.108.24 0 .402.132.486.396v.072c.047.144.07.282.07.414 0 .108-.01.186-.035.234l-.126.9.125.252c0 .216-.072.408-.216.576l.07.216-.233.684c-.024.3-.054.528-.09.684v.45l-.108.252.017.18-.036.414.037.324.27.216.216-.036.036-.054.143.018.234-.072.198-.198.072-.108.126-.018.036-.09.053-.072.108.072.18-.18.11.018.035-.126h.036l.055-.144.162-.072.342-.162c.275-.192.545-.288.81-.288H41c.133.084.223.192.27.324zm6.553-3.834c0 .108-.108.21-.324.306-.05.06-.14.114-.27.162-.17.072-.29.132-.36.18l-.38-.126c-.19.144-.437.216-.737.216l-.216-.054-.162.144h-.486l-.307.198c-.132-.048-.258-.072-.378-.072-.036.024-.12.048-.252.072-.06 0-.126-.018-.198-.054l-.054.684.02.504-.055.63.036.684.055.324v.252l.252.54c-.036.036-.054.078-.054.126 0 .084.132.15.396.198l.035.216.126.054.217.144.144.108c.12-.024.205-.036.253-.036.108 0 .216.018.324.054.048-.024.15-.108.306-.252.108-.096.21-.144.306-.144h.053c.024.012.042.018.054.018.108-.228.3-.378.576-.45.252 0 .462.078.63.234v.126c0 .408-.144.666-.432.774-.107.252-.335.414-.683.486l-.216.198h-.233l-.414.108c-.096.024-.234.036-.414.036-.097 0-.2-.024-.307-.072h-.234l-.63-.342-.163-.054-.378-.504-.217-.234-.396-.9-.144-.846.036-.216-.145-.198.09-.252-.09-.396.126-.126.037-.234-.054-.216.036-.324-.073-.288.09-.09v-.288l-.126-.054-.34.072-.325-.234h-.054c-.36 0-.54-.192-.54-.576V29.7l-.215-.342.342-.324.45.072.234-.036.343.09h.378v-.36l-.233-.504.234-.126-.09-.27.02-.558-.145-.234c-.084-.132-.126-.252-.126-.36 0-.132.03-.24.09-.324l.053-.252.144-.144c.324-.06.54-.09.648-.09.384 0 .594.174.63.522l-.054.09c.073.108.11.21.11.306 0 .012-.007.042-.02.09l-.035.108-.018.126.072.234-.02.09.037.252-.162.216.09.36-.072.432.144.162-.144.324.558-.072.99.09.793-.126.27.018.09-.018h.702c.372 0 .558.132.558.396zm6.444 4.986c0 .144-.108.324-.324.54-.06.192-.15.348-.27.468l-.108.018-.198.342-.324.054-.342.216-.18.324-.197-.036c-.132.06-.24.096-.324.108l-.11.162c-.035-.012-.09-.018-.16-.018-.157 0-.307.108-.45.324l-.253-.216c-.048.012-.12.018-.216.018-.155 0-.287-.024-.395-.072h-.306l-.145-.09c-.456-.072-.744-.246-.864-.522v-.054l-.215-.108-.108-.306-.216-.144v-.27l-.215-.792.036-.648.073-.288v-.378l.09-.288-.018-.126.126-.216-.035.036c0-.108.03-.222.09-.342v-.09l-.054-.432c0-.204.09-.384.27-.54.013-.024.02-.06.02-.108s-.022-.147-.064-.297-.063-.255-.063-.315c0-.144.036-.294.108-.45.097.144.235.216.415.216h.054c.023-.048.077-.102.16-.162.097-.3.23-.552.397-.756l.072-.072c0-.048.035-.186.107-.414h.144l.037-.09.144-.036c.06-.096.1-.153.118-.17.018-.02.147-.094.387-.226.048-.084.12-.162.216-.234.05-.024.11-.048.18-.072l.073-.108c.324-.108.528-.162.612-.162.096 0 .186.024.27.072l.09-.018.126.072c.145.108.29.198.433.27l.306.234v.072c.275.216.413.522.413.918l-.054.18.053.594-.162.108-.18.468-.34.378-.02.288c-.383.276-.737.498-1.06.666-.11.168-.277.252-.505.252h-.054l-.34.216h-.29l-.43.18-.325-.162h-.036c-.025.096-.05.24-.073.432l-.144.108-.018.216-.108.306c.036.288.054.474.054.558l-.07.054c0 .156-.007.27-.02.342 0 .012-.005.03-.017.054v.054c0 .096.048.174.144.234.036.144.096.234.18.27l.126.108.396.108v.054l.143.036.612.036.36-.054.18-.126.108-.036.18-.27.09-.018.45-.144c.048-.084.126-.156.234-.216l.054-.09c.24-.048.38-.174.415-.378.168-.168.384-.252.648-.252h.072c.228.264.342.48.342.648zm-1.782-5.184c0-.036-.018-.108-.054-.216l-.09-.018-.035.018h-.072c-.024.012-.048.018-.072.018-.01 0-.03-.006-.053-.018h-.054l-.18.126-.162.018-.09.036-.305.396-.198.144-.288.504-.163.108c-.036.204-.12.378-.252.522l-.072.126c.132-.084.282-.126.45-.126l.126-.054.053-.162.252.018.144-.216h.107l.198.072.09-.27h.126v-.198l.235-.054.054-.054.035-.162.234-.342c.023-.06.035-.132.035-.216zm14.652-.63l-.18.234.144.432-.233.27-.09.378-.054.09.036.09c0 .168-.043.294-.127.378l-.036.054v.072c.036.084.054.162.054.234 0 .06-.005.102-.017.126l.018.072-.07.198.053.216-.144.144.053.252.108.126-.16.144v.288l-.127.288.09.288-.108.144.18.126-.252.414-.018.054.18.036-.126.414v.072c0 .084-.007.15-.02.198l.02.054.287.036.234.36-.125.27.198-.018c.072.144.114.27.126.378l-.27.27c-.085.084-.205.168-.36.252l-.307.162-.09-.09-.18.108-.558-.648v-.306c-.072-.24-.108-.462-.108-.666v-.108l-.108-1.062.143-.756-.108-.432-.306.504-.163.468-.144.072-.252.396-.45.414-.125.216-.396.342-.09.234-.577.36-.612.684-.34.072-.235.18c-.3-.012-.528-.126-.684-.342-.54-.264-.82-.642-.845-1.134l.09-.054-.018-.108-.018-.216-.11-.234.11-.252.035-.378.126-.594v-.072c-.01-.024-.017-.048-.017-.072 0-.048.012-.108.036-.18-.013-.024-.02-.072-.02-.144 0-.084.037-.222.11-.414l.125-.054c-.072-.06-.108-.126-.108-.198 0-.048.006-.084.018-.108-.012-.036-.018-.078-.018-.126 0-.144.072-.252.216-.324.036-.12.102-.24.198-.36l-.09-.144.217-.27v-.072c0-.228.078-.438.234-.63l-.017-.324.072-.072v-.054c-.012-.024-.018-.042-.018-.054 0-.072.024-.132.072-.18v-.108c.047-.12.173-.3.377-.54.204-.24.354-.45.45-.63l.09.09.198-.09.09-.036.594-.27 1.385.072v.126l.432.09c.276 0 .456.09.54.27 0-.036.006-.078.018-.126V27.9l.378.342.342.072.648-.162.234.45.27.108zm-1.71.936l-.072-.126-.144-.036-.557-.45-.36-.054h-.288l-.036-.036-.145.054-.162-.09h-.468l.054.072-.415.144-.072.09-.054.018c-.217.18-.367.33-.45.45l-.127.432-.072.162.18.252-.305.234.036.072c-.13.228-.197.45-.197.666l-.144.18v.324l-.145.162-.036.162-.055.036v.252l-.054.09c0 .144-.01.258-.035.342l.036.09-.16.342.07.108-.125.18.126.342-.197.252.036.342v.054l.07.036.09-.018c.06-.06.12-.114.18-.162l-.035-.144.252-.036.054-.126 1.063-.864.108-.036.127-.306c.072-.024.174-.072.306-.144l.108-.288h.145l-.054-.306.253-.036c.024-.048.063-.108.117-.18.054-.072.11-.138.17-.198l.92-1.224.143-.27-.018-.072.126-.198.037-.198.162-.144.017-.198zm19.89 3.438c0 .096-.078.222-.234.378l-.198.306-.072.36-.162.054-.035.108c-.192.06-.33.21-.414.45-.13.168-.275.288-.43.36-.06.06-.115.102-.163.126l-.09.162-.162.036-.468.252-.612.072-.162-.036-.27.054-.108-.126c-.168-.084-.288-.168-.36-.252-.144-.036-.252-.15-.324-.342-.203-.24-.305-.432-.305-.576v-.054l-.126-.216-.037-.036-.108-.324-.162-.342.036-.414-.18-.234-.27-1.548c-.037-.204-.055-.378-.055-.522l-.036-.09-.09-.126-.163.216-.648.684-.235.378-.126.252-.2.288-.143.144.018.09-.252.558-.144.18-.18.036-.163.162c0 .24-.114.396-.342.468l-.036.036c-.11.264-.23.426-.36.486l-.163.252c-.264.24-.438.39-.522.45-.036.12-.102.222-.198.306-.024.036-.066.084-.126.144-.035.204-.203.348-.503.432l-.198.054c-.24-.012-.44-.15-.595-.414l-.27-.45.09-.432-.036-.234.035-.036.018-.234-.198-.432.144-.216-.073-.234.126-.252.036-.414-.073-.072.144-.252-.053-.126-.018-.288.07-.54c-.023-.12-.035-.198-.035-.234 0-.024.006-.048.018-.072v-.072l-.09-.144.054-.576-.018-.198.053-.288-.072-.486.325-.54c.372.06.63.14.774.243.143.102.215.285.215.55v.16l.126.217-.053.378.072.72-.127.342.054.378v.306l-.144.198.108.324-.107.198-.018.198.108.198-.144.378-.055.162v.162l.09.18.306-.306c0-.18.06-.3.18-.36.013-.12.06-.21.145-.27l-.054-.054.235-.216.054-.072v-.162l.287-.216.072-.18.16-.108.703-.792c-.06.072-.258.294-.594.666v.036l.035-.126.234-.27.16-.306v-.18l.27-.09.037-.234.072-.072.017-.09v-.126l.252-.252v-.09c-.013-.036-.02-.06-.02-.072 0-.216.12-.336.36-.36.11-.216.27-.342.487-.378l.108-.162.036-.036c.11-.156.27-.264.487-.324l.162-.198h.43l.217.252.198.108.018.054.126.036.035.378.306.18-.125.396.198.432v.504l.144.684.036.648.162.378.108.468c.072.072.126.174.162.306l.324.09v.36l.18.198v.054l.07.018.073.108.072-.09c-.024 0 .006.006.09.018.132 0 .27-.12.414-.36l.215-.054.054-.09c.035-.096.107-.168.215-.216l.126.018.073-.072.018-.09.055-.072c.12-.084.198-.21.234-.378l.197-.216.036-.162.126-.288.34-.126.487.162.162.522c0 .012.005.024.017.036v.054zm6.246 1.44c0 .144-.108.324-.324.54-.06.192-.15.348-.27.468l-.11.018-.197.342-.324.054-.343.216-.18.324-.198-.036c-.133.06-.24.096-.325.108l-.108.162c-.036-.012-.09-.018-.162-.018-.156 0-.306.108-.45.324l-.252-.216c-.048.012-.12.018-.216.018-.156 0-.288-.024-.396-.072h-.305l-.144-.09c-.455-.072-.743-.246-.863-.522v-.054l-.216-.108-.107-.306-.216-.144v-.27l-.216-.792.037-.648.072-.288v-.378l.09-.288-.02-.126.127-.216-.036.036c0-.108.03-.222.09-.342v-.09l-.053-.432c0-.204.09-.384.27-.54.012-.024.018-.06.018-.108s-.02-.147-.063-.297c-.042-.15-.063-.255-.063-.315 0-.144.035-.294.107-.45.096.144.234.216.414.216h.055c.024-.048.078-.102.162-.162.096-.3.228-.552.396-.756l.072-.072c0-.048.036-.186.108-.414h.144l.036-.09.144-.036c.06-.096.1-.153.117-.17.018-.02.147-.094.387-.226.05-.084.12-.162.217-.234.048-.024.108-.048.18-.072l.072-.108c.323-.108.527-.162.61-.162.097 0 .187.024.27.072l.09-.018.127.072c.144.108.288.198.432.27l.305.234v.072c.276.216.414.522.414.918l-.055.18.054.594-.163.108-.18.468-.342.378-.018.288c-.384.276-.738.498-1.062.666-.108.168-.276.252-.504.252h-.053l-.342.216h-.288l-.432.18-.324-.162h-.035c-.024.096-.048.24-.072.432l-.144.108-.02.216-.107.306c.036.288.054.474.054.558l-.072.054c0 .156-.006.27-.018.342 0 .012-.006.03-.018.054v.054c0 .096.047.174.143.234.036.144.096.234.18.27l.126.108.395.108v.054l.144.036.61.036.36-.054.18-.126.11-.036.18-.27.09-.018.45-.144c.047-.084.125-.156.233-.216l.054-.09c.24-.048.378-.174.414-.378.17-.168.385-.252.65-.252h.07c.23.264.343.48.343.648zM89.78 29.34c0-.036-.017-.108-.053-.216l-.09-.018-.036.018h-.07c-.025.012-.05.018-.073.018-.012 0-.03-.006-.054-.018h-.054l-.18.126-.163.018-.09.036-.306.396-.197.144-.288.504-.162.108c-.036.204-.12.378-.252.522l-.07.126c.13-.084.28-.126.45-.126l.125-.054.054-.162.25.018.145-.216h.108l.198.072.09-.27h.127v-.198l.234-.054.055-.054.036-.162.235-.342c.024-.06.036-.132.036-.216zm14.31-.612l-.09.342.037.18-.216.702-.035.252-.252.27-.09.342-.198.288-.288.63-.342.576-.522.774-.09.234-.27.486-.306.63-.54.972-.108.432-.29.414-.54-.18-.305-.18-.288-.846-.36-.612v-.18l-.216-.504-.09-.108-.755-1.584-.234-.378-.197.306-.288.234-.414.576-.287.306-.162.468-.395.486-.036.162-.27.558v.27l-.18.252-.02.252-.18.054-.395.414.072-.036c-.12.072-.282.12-.486.144l-.125-.144-.27-.108v-.198l-.108-.144-.108-.486-.145-.324v-.234l-.018-.072-.27-.774-.072-.486-.18-.198.036-.234-.18-.432v-.162l-.143-.396-.252-.342.036-.396-.017-.126-.198-.468-.036-.288-.11-.18c-.07-.12-.125-.24-.16-.36l-.307-.774.252-.324c.072-.132.222-.216.45-.252l.378-.054.126.18.233.108.162.324.144.126-.055.288.072.18-.054.162.18.288-.036.27.234.81-.035.198.108.486.252.576.108.684.18.216v.432l.126.378.017.144.252-.162.413-.666.126-.306.143-.252c0-.12.024-.21.072-.27h.108l.054-.324.198-.036c.024-.096.078-.168.162-.216v-.036c0-.072.036-.144.108-.216l-.036-.126.09-.036-.02-.108c.11-.192.23-.336.36-.432v-.36l.253-.144.072-.054.036-.036c-.06-.12-.09-.252-.09-.396 0-.216.097-.426.29-.63.107-.048.24-.072.395-.072.096 0 .168.006.216.018l.343.306.18.27.108.432.163.288-.036.198.126.396v.162l.306.54v.054l.07.054.36.864.02.234.18.198.413.936.09-.162.324-.666.198-.162.144-.378.18-.09v-.27c.07-.06.167-.12.287-.18.072-.036.108-.066.108-.09l-.018-.378.216-.216.09-.054.27-.45v-.054c.024-.132.102-.282.234-.45l-.036-.198.325-.396.162-.396c-.132-.36-.198-.666-.198-.918 0-.372.19-.582.575-.63l.486.144.073-.108.126.162.18.126-.055.198.216.252zm12.115 5.796l-.216.252-.2.468-.143.108-.126.252-.36.036-.233.234h-.36l-.216.18-.197-.054-.234.054v.144l-.667-.054-.288.018-.216.108-.18-.108c.12-.012.215-.018.287-.018-.096.012-.384.036-.864.072l-.054-.018-.145-.018-.234.126c-.07-.048-.203-.102-.395-.162-.264-.024-.438-.036-.522-.036h-.144c-.085-.012-.175-.018-.27-.018-.097 0-.193.024-.29.072l-.25-.162-.145-.036c-.036 0-.102-.018-.198-.054-.444-.048-.666-.42-.666-1.116v-.162l.343-.252.432-.162.324.162h.25v.054c.12.048.217.144.29.288l.143.018v.234l.234.054.054.036 2.305-.144.558-.09h.054l.036-.09.252-.036.036-.054c.253-.036.487-.108.703-.216l.018-.09c-.01-.012-.035-.054-.07-.126l-.09.018-.235-.18h-.162l-.09-.126.054-.072-.198.036-.145-.162c-.036.012-.096.018-.18.018-.156 0-.312-.03-.468-.09h-.162l-.126-.054-.253.09-.144-.162h-.054l-.253-.198-.558-.216-.18-.144-.685-.126-.072-.126-.504-.324-.27-.594-.217-.306-.072-.936.073-.108c.024-.276.12-.516.288-.72.18-.096.27-.234.27-.414l.27-.054c.05-.096.145-.186.29-.27l.27-.216 1.133-.432.198-.054.36-.036.595-.162 1.134.072.035.09c.108.036.228.132.36.288v.09l.288.18-.126.432-.036.162c-.07.3-.24.45-.503.45-.216 0-.378-.102-.486-.306v-.054l-.215-.018-.252.072-.234-.162-.127.09c-.156 0-.3.048-.432.144-.18 0-.353.072-.52.216h-.235l-.162.126-.252.054-.035.036-.108.054-.162.162-.054.018-.16.252-.2.108c-.047.156-.077.288-.09.396.013.168.034.28.064.333.03.054.11.11.243.17v.09l.234.127c.193.072.337.15.433.234h.36l.234.198.414.054.163.108.702.198.09.198.072-.126c.156 0 .366.072.63.216l.324.054.037.126h.288l.504.288c.06.156.19.3.395.432l.198.126-.054.216c.083.12.125.246.125.378v.054zm7.776-2.736l-.107.324c0 .312-.018.558-.054.738l-.11.18v.198l-.09.126-.053.252-.198.198-.127.45-.144.054-.073.198-.216.126-.143.306-.216.108-.017.216-.342.126c-.155.216-.347.354-.575.414l-.072.018c-.168.252-.39.378-.666.378-.12.072-.258.108-.414.108l-.18.126-.18.054-.234.18-.235-.018-.252.072-.306-.126-.774-.054-.27-.414-.396-.414.09-.288-.27-.612.126-.234-.09-.432.09-.27c-.024-.168-.036-.288-.036-.36 0-.228.06-.396.18-.504.012-.12.09-.318.234-.594h.09l-.035-.126.054-.252v-.27c.095-.108.15-.18.16-.216l-.053-.252v-.072c.084-.168.126-.342.126-.522l.378-.522.046-.036c.03-.024.057-.048.08-.072l-.017-.072h.07l.27-.306.02-.414.45-.162c.167-.108.275-.288.323-.54h.234c.132-.072.252-.108.36-.108.108 0 .21.024.306.072l.198.018.47-.18.25.234.2.126h.143l.27.144h.144c.156.144.336.342.54.594l.036.09.126.072.377.486.342.846v.18l.16.63zm-1.187.432l-.018-.09c-.084-.084-.132-.174-.144-.27l.055-.09-.162-.342.036-.342-.073-.09c-.156-.12-.24-.216-.252-.288-.108-.048-.162-.168-.162-.36l-.108-.018-.216-.36-.163-.126-.378-.144-.145-.036c-.072 0-.12-.024-.144-.072l-.36.396-.233.504-.378.198-.055.198-.18.09-.072.468-.216.108c-.048.168-.072.324-.072.468l-.288.27.09.054c0 .144-.054.27-.162.378-.036.108-.084.228-.144.36v.144l-.053.072.018.216-.198.486.036.09v.504l-.072.252.02.252.16.234.253.09.09.036.144-.072.468.036.072-.18h.072c.07 0 .113.018.125.054l.162-.054.144.054.235-.162.036-.054.163-.036c.084-.132.282-.264.594-.396l.036-.09.36-.252.198-.288.29-.144.017-.09.09-.198v-.234l.216-.18.072-.126.09-.108c-.048-.144-.072-.246-.072-.306 0-.108.036-.222.108-.342l.073-.072zm12.582 2.736c0 .144-.108.318-.324.522l-.143.054-.126.162-.323.09c-.06.084-.12.126-.18.126-.012 0-.024-.006-.036-.018h-.053c-.264.132-.582.198-.954.198h-.144l-.45-.09-.307-.144-.684-.576-.145-.486-.288-.234c.036-.048.054-.126.054-.234 0-.072-.047-.192-.143-.36l.054-.432v-.072c0-.144-.04-.33-.125-.558l.108-.54-.234.468-.27.036-.037.378c-.096.048-.21.072-.342.072l-.197.432-.234.27c-.097.108-.18.168-.253.18l-.054.036-.648.666h-.072l-.342.396-.323.162-.18.234-.414.126-.594.234-.36-.18c-.24 0-.41-.108-.505-.324l-.162-.09c0-.036.006-.084.018-.144v-.126l-.287-.252.072-.108-.216-.504.07-.072-.035-.036v-.108c-.012-.036-.018-.066-.018-.09 0-.132.018-.258.054-.378l.02-.468-.073-.378c.06-.096.09-.18.09-.252 0-.084-.036-.162-.108-.234l.197-.144v-.216l-.072-.594.198-1.152c0-.192-.054-.474-.162-.846.037-.384.29-.594.757-.63l.144.054.253.036.324.36-.108.468-.037.774.054.594-.108.216.053.144-.09.288v.18l-.036.054c.012.036.018.09.018.162 0 .156-.024.318-.072.486l.09.126-.072.27.037.216v.252c.06.072.09.162.09.27 0 .096-.024.192-.072.288v.072c.06.204.09.336.09.396l.162.162c.072-.048.156-.108.252-.18.035-.12.12-.198.25-.234v-.18c.073 0 .187-.018.343-.054l.036-.162.305-.126.054-.054c.083-.084.22-.162.413-.234V33.3l.342-.252c.084-.228.234-.378.45-.45.132-.132.222-.21.27-.234l.234-.306v-.054l.07-.036.163-.072.09-.252.378-.162.073-.018.126-.126v-.162l.107-.036c.036-.192.132-.336.288-.432l.27-.612.09-.324.036-.072h.073l.126-.09-.11-.036c.133-.216.235-.444.307-.684l.522-.018.413.342.18.288-.198.774-.27.36-.216.702-.18.108v.27l-.11.198.055.324-.144.126.073.576.036.81h.09v.468l.25.306.235.126.018.09c.084.012.186.042.306.09l.45.036.27-.072.485-.234c.096-.048.216-.072.36-.072.36 0 .54.156.54.468zm7.92-5.652l-.144.594-.665.09-.36.234-.234-.108-.25.144-.27.108-.18.126v.072l-.38.18-.25.324h-.127c-.192.204-.33.33-.414.378l-.253.414-.09.036c-.036.096-.078.24-.126.432l-.25.09-.11.216-.143.18-.036.27-.143.054v.27l-.054.054c.036.06.078.126.126.198l-.27.108-.037.234-.18.306.108.234-.233.324c.024.12.036.204.036.252v.072c-.012.036-.018.066-.018.09l.036.162.307.324-.234.414-.216.162-.504.252-.666-.27v-.414l-.072-.162.054-.27c-.025-.192-.037-.336-.037-.432 0-.036.006-.084.018-.144v-.126l-.017-.18c-.084-.084-.126-.18-.126-.288 0-.096.042-.204.126-.324 0-.06-.012-.24-.036-.54l.054-.054-.053-.234.036-.216-.036-.126.054-.414-.107-.18.072-.198-.072-.234c.012-.072.018-.168.018-.288 0-.18-.023-.3-.07-.36l.07-.108-.07-.324-.163-.234.09-.288-.072-.108-.072-.432v-.144c-.06-.072-.09-.162-.09-.27 0-.24.264-.444.792-.612l.45.09.09.342.18.234-.054.486c.037.24.08.504.127.792l.054.288c.013.024.025.09.037.198 0 .072-.03.15-.09.234l.054.36-.035.396-.072.18.054.072.036.18c.072-.084.114-.174.126-.27l.07-.27c.037-.072.09-.126.163-.162l.072-.27.252-.144.036-.216.198-.216.145-.27c.156-.168.306-.276.45-.324l.036-.054.163-.252.18-.036.054-.054.072-.108.197-.108.108-.126.108.018.144-.072.072-.108.215-.108.306-.198.433-.144c.168-.024.258-.036.27-.036v.018c-.012 0-.018.006-.018.018h.018c.048 0 .12-.024.216-.072.06-.048.143-.072.25-.072.05 0 .133.012.253.036.312.012.486.156.522.432zm6.876 3.888l-.34.324-.02.108c-.035.216-.137.39-.305.522-.288.54-.69.936-1.206 1.188l-.27.216-.235.036-.288.216-.198.018-.45.288-.29-.036-.323.144-.252-.072-.126.108-.343-.054-.342.054-.126-.108-.36-.072-.523-.396-.288-.36c-.18-.228-.27-.42-.27-.576v-.054l-.18-.27v-.234c-.037-.144-.055-.276-.055-.396v-.126l-.09-.306.09-.216-.072-.144.216-.342-.055-.288.144-.468.07-.108.073-.432-.036-.072.216-.234.036-.18.143-.414.234-.504.324-.288.073-.162.108-.198.037-.18.288-.342c.072-.024.156-.048.252-.072.048-.228.348-.36.9-.396.468.096.768.222.9.378.132.024.234.078.306.162l.378.018.253.324c.06.12.102.24.126.36l.143.144-.054.27c.01.084.017.216.017.396l.09.072v.27l.072.558c-.253.252-.54.396-.865.432-.168-.312-.378-.546-.63-.702l-.036-.594-.11-.198v-.144l-.18-.216-.09-.072-.16.054h-.235c-.156.036-.306.15-.45.342-.144.192-.288.396-.432.612l-.018.18-.108.09v.324l-.234.252-.288.792.018.216-.144.324.053.396-.108.054-.036.504.017.09.216.216.09.378.252.072.018.144.306.054.233.054c.084-.048.186-.072.306-.072h.125c.144-.06.276-.09.396-.09.085-.036.193-.072.325-.108.144-.192.348-.288.612-.288h.108c.06 0 .102-.03.126-.09.133-.204.343-.336.63-.396.337-.3.53-.54.577-.72.168-.096.276-.246.324-.45l.11-.072.053-.414c.552.084.828.36.828.828v.144zm6.75 1.332c0 .144-.107.324-.323.54-.06.192-.15.348-.27.468l-.108.018-.2.342-.323.054-.342.216-.18.324-.198-.036c-.132.06-.24.096-.324.108l-.108.162c-.036-.012-.09-.018-.162-.018-.156 0-.306.108-.45.324l-.252-.216c-.047.012-.12.018-.215.018-.156 0-.288-.024-.396-.072h-.307l-.144-.09c-.457-.072-.745-.246-.865-.522v-.054l-.216-.108-.11-.306-.215-.144v-.27L151 34.47l.035-.648.072-.288v-.378l.09-.288-.018-.126.125-.216-.036.036c0-.108.03-.222.09-.342v-.09l-.055-.432c0-.204.09-.384.27-.54.012-.024.018-.06.018-.108s-.02-.147-.063-.297c-.042-.15-.063-.255-.063-.315 0-.144.036-.294.108-.45.096.144.234.216.414.216h.053c.024-.048.078-.102.162-.162.096-.3.228-.552.396-.756l.073-.072c0-.048.036-.186.108-.414h.145l.036-.09.145-.036c.06-.096.1-.153.117-.17.018-.02.147-.094.387-.226.047-.084.12-.162.215-.234.048-.024.108-.048.18-.072l.072-.108c.324-.108.528-.162.612-.162.095 0 .185.024.27.072l.09-.018.125.072c.144.108.288.198.432.27l.306.234v.072c.276.216.414.522.414.918l-.054.18.054.594-.162.108-.18.468-.342.378-.018.288c-.384.276-.738.498-1.062.666-.108.168-.276.252-.504.252h-.055l-.342.216h-.288l-.432.18-.324-.162h-.037c-.024.096-.048.24-.072.432l-.143.108-.018.216-.11.306c.037.288.055.474.055.558l-.072.054c0 .156-.006.27-.018.342 0 .012-.006.03-.018.054v.054c0 .096.048.174.144.234.037.144.097.234.18.27l.127.108.396.108v.054l.144.036.612.036.36-.054.18-.126.107-.036.18-.27.09-.018.45-.144c.048-.084.126-.156.234-.216l.055-.09c.24-.048.378-.174.414-.378.167-.168.383-.252.647-.252h.072c.227.264.34.48.34.648zm-1.78-5.184c0-.036-.02-.108-.055-.216l-.09-.018-.036.018h-.073c-.024.012-.048.018-.072.018-.012 0-.03-.006-.054-.018h-.053l-.18.126-.162.018-.09.036-.306.396-.2.144-.287.504-.162.108c-.035.204-.12.378-.25.522l-.073.126c.132-.084.282-.126.45-.126l.126-.054.054-.162.252.018.143-.216h.108l.2.072.09-.27h.125v-.198l.234-.054.053-.054.036-.162.233-.342c.024-.06.036-.132.036-.216zm5.615 5.904l-.27.414-.252.126-.108.144-.27.234-.108.144-.324.198-.612.612-.323.144c-.084.168-.198.306-.342.414l-.072.054-.126.234-.252.234c-.204.06-.354.09-.45.09-.036 0-.126-.012-.27-.036-.012-.048-.018-.12-.018-.216 0-.108.024-.24.072-.396l.053-.18.054-.072c.036-.192.156-.336.36-.432l.018-.054.18-.252.072-.252.09-.126.198-.09.036-.072c.013-.072.06-.132.145-.18l.108-.072v-.18l.162-.036c0-.132.036-.27.108-.414l.18-.144c0-.036.012-.09.036-.162 0-.024.005-.054.017-.09v-.09l.108-.144c.168-.216.39-.324.666-.324.193 0 .415.054.667.162l.054.072.343.09.072.648zm13.32-2.052l-.342.324-.018.108c-.036.216-.138.39-.306.522-.29.54-.69.936-1.207 1.188l-.27.216-.234.036-.29.216-.197.018-.45.288-.288-.036-.324.144-.25-.072-.127.108-.342-.054-.34.054-.127-.108-.36-.072-.522-.396-.287-.36c-.18-.228-.27-.42-.27-.576v-.054l-.18-.27v-.234c-.036-.144-.054-.276-.054-.396v-.126l-.09-.306.09-.216-.073-.144.216-.342-.054-.288.143-.468.072-.108.072-.432-.036-.072.217-.234.036-.18.144-.414.234-.504.325-.288.072-.162.108-.198.036-.18.29-.342c.07-.024.155-.048.25-.072.05-.228.35-.36.9-.396.47.096.77.222.9.378.133.024.235.078.307.162l.378.018.252.324c.06.12.102.24.126.36l.144.144-.054.27c.012.084.018.216.018.396l.09.072v.27l.073.558c-.252.252-.54.396-.864.432-.17-.312-.38-.546-.63-.702l-.037-.594-.108-.198v-.144l-.18-.216-.09-.072-.162.054h-.234c-.157.036-.307.15-.45.342-.145.192-.29.396-.433.612l-.018.18-.11.09v.324l-.233.252-.288.792.017.216-.144.324.054.396-.108.054-.037.504.018.09.217.216.09.378.252.072.017.144.306.054.234.054c.084-.048.186-.072.306-.072h.126c.143-.06.275-.09.395-.09.084-.036.192-.072.324-.108.143-.192.347-.288.61-.288h.11c.06 0 .1-.03.125-.09.132-.204.342-.336.63-.396.336-.3.528-.54.576-.72.17-.096.277-.246.325-.45l.108-.072.054-.414c.552.084.828.36.828.828v.144zm6.084.846c0 .132-.05.24-.145.324-.096.144-.252.294-.468.45l-.18.126-.162.216-.162.072-.252.162-.18.018-.07.072c-.24.072-.427.192-.56.36-.083.06-.16.09-.233.09-.048 0-.09-.006-.126-.018-.203.12-.467.18-.79.18-.277 0-.457-.024-.54-.072l-.325-.18-.108-.18v-.054c0-.156-.066-.282-.198-.378l-.073-.36-.144-.162-.09-.666-.018-.396.018-.288.036-.108c-.037-.072-.055-.15-.055-.234.06-.504.09-.822.09-.954l-.162-.324.162-.27.054-.45-.037-.306.108-.27-.107-.36.162-.252.018-.162v-.63l.054-.126-.018-.756.053-.774-.072-.144-.017-.54.054-.486-.054-.18.108-1.08c.505-.12.727-.18.667-.18.192 0 .348.102.468.306l.036.144.27.27-.143.378.036.072c-.024.228-.054.378-.09.45l.036.378.09.342-.127.378c0 .204-.03.39-.09.558 0 .06-.012.156-.036.288l-.018.108.16.198-.07.198c.023.096.035.162.035.198 0 .072-.024.168-.072.288l.036.162-.11.576v.378l-.125.378.072.342-.072.792.054.09-.09.414-.037.504c-.024.072-.036.114-.036.126 0 .204-.006.372-.018.504l.09.252-.037.27.108.234-.017.09c.072.06.138.156.198.288h.163l.234.072.108-.144.162-.018c.072-.024.126-.036.162-.036h.053c.12-.024.216-.084.288-.18l.11-.054c.083-.132.22-.222.413-.27.06-.048.174-.144.342-.288 0-.168.102-.294.306-.378.18 0 .3-.03.36-.09.24.036.394.1.46.19s.1.26.1.512zm3.96-10.206c0 .144-.097.276-.29.396v.036c-.227.276-.425.432-.593.468l-.27.324-.18.234-.414.108-.18.252-.288.144-.468.414-.288-.27.053-.45.198-.324c.013-.168.11-.312.29-.432v-.072l.107-.072.018-.27.288-.072v-.162l.216-.036c.047-.24.15-.414.305-.522l.054-.036.107-.108.144-.432c.793.192 1.19.486 1.19.882zm1.835 9.54c0 .276-.048.45-.144.522l-.09.072-.09.252-.287.09c-.084.192-.21.342-.378.45l-.162.054-.234.252-.217.054c-.084.216-.258.33-.522.342-.023.036-.077.108-.16.216-.18.12-.367.192-.56.216l-.09.018-.125.162h-.36l-.288.216-.738-.54-.343-.702-.018-.882-.073-.216.216-1.584.072-.072c-.036-.18-.054-.354-.054-.522 0-.108.037-.33.11-.666l.09-.414c-.025-.072-.073-.15-.145-.234l.108-.342.036-.414.035-.054c-.048-.108-.078-.228-.09-.36.012-.024.024-.057.036-.1.013-.04.02-.074.02-.098-.037-.108-.055-.21-.055-.306 0-.288.162-.42.486-.396l.217.018c.144-.072.234-.108.27-.108.24 0 .402.132.486.396v.072c.048.144.072.282.072.414 0 .108-.012.186-.036.234l-.127.9.126.252c0 .216-.073.408-.217.576l.072.216-.234.684c-.023.3-.053.528-.09.684v.45l-.107.252.018.18-.035.414.036.324.27.216.217-.036.036-.054.144.018.234-.072.2-.198.07-.108.127-.018.036-.09.054-.072.108.072.18-.18.108.018.036-.126h.035l.054-.144.16-.072.343-.162c.276-.192.546-.288.81-.288h.072c.132.084.222.192.27.324zm7.668-.18l-.342.324-.017.108c-.036.216-.138.39-.306.522-.288.54-.69.936-1.206 1.188l-.27.216-.233.036-.288.216-.2.018-.45.288-.287-.036-.324.144-.253-.072-.126.108-.34-.054-.343.054-.126-.108-.36-.072-.52-.396-.29-.36c-.18-.228-.27-.42-.27-.576v-.054l-.18-.27v-.234c-.035-.144-.053-.276-.053-.396v-.126l-.09-.306.09-.216-.072-.144.216-.342-.053-.288.144-.468.073-.108.072-.432-.036-.072.215-.234.036-.18.145-.414.234-.504.323-.288.072-.162.108-.198.036-.18.287-.342c.072-.024.156-.048.252-.072.047-.228.347-.36.9-.396.467.096.767.222.9.378.13.024.233.078.305.162l.378.018.252.324c.06.12.102.24.126.36l.145.144-.054.27c.013.084.02.216.02.396l.09.072v.27l.07.558c-.25.252-.54.396-.863.432-.168-.312-.378-.546-.63-.702l-.036-.594-.107-.198v-.144l-.18-.216-.09-.072-.162.054h-.233c-.156.036-.306.15-.45.342-.144.192-.288.396-.432.612l-.018.18-.108.09v.324l-.235.252-.288.792.018.216-.144.324.055.396-.108.054-.036.504.02.09.215.216.09.378.252.072.018.144.306.054.235.054c.084-.048.186-.072.306-.072h.127c.144-.06.276-.09.396-.09.084-.036.192-.072.324-.108.144-.192.348-.288.612-.288h.107c.06 0 .102-.03.126-.09.132-.204.342-.336.63-.396.336-.3.528-.54.576-.72.167-.096.275-.246.323-.45l.108-.072.055-.414c.552.084.828.36.828.828v.144zm11.664 1.476l-.108.198c0 .348-.12.618-.36.81 0 .12-.043.216-.127.288l-.09.198-.234.162-.11.198-.72.378-.34.09-.523.036-.288-.126-.235.018-.234-.162-.18-.018-.72-.378-.647-.54c-.192-.168-.48-.408-.864-.72l-.397-.54-.324-.27-.055-.126-.162-.198c-.156-.192-.342-.396-.558-.612l-.306-.108-.343-.684.054-.27c.073-.384.265-.6.577-.648l.342.108.287.288.306.198h.288l.073.054c.096 0 .174.006.234.018.12-.06.33-.126.63-.198l.162-.036.107-.234h.432c.13-.108.27-.168.413-.18h.036c.035-.084.083-.186.143-.306l.342-.162.144-.144.27-.45h.125c.048-.12.096-.288.144-.504l.16-.108-.125-.072.072-.306c-.024-.048-.09-.09-.198-.126l-.217.072-.072-.144-.18-.072-.053-.072c-.18-.024-.438-.048-.774-.072v-.072l-.108.072c-.096-.024-.168-.036-.216-.036-.157 0-.385.084-.685.252h-.252c-.456.156-.714.27-.774.342l-.397.126-.558.45-.522.522v.072l-.342.594-.107.342-.072.036v.072c-.035.072-.065.138-.09.198l-.107.054.036.054-.055.09c-.012.024-.018.054-.018.09 0 .06.024.114.072.162 0 .252-.06.414-.18.486-.025.048-.037.096-.037.144 0 .036.006.066.018.09 0 .204-.04.372-.125.504-.06.06-.096.102-.108.126l.054.27-.053.36.018.288c-.096.216-.144.39-.144.522.025.12.037.186.037.198 0 .132-.075.27-.225.414-.15.144-.29.216-.423.216-.17 0-.343-.102-.523-.306l-.198-.558.053-.324-.054-.702.053-.18v-.576l.036-.234v-.198c0-.24.01-.483.035-.73.024-.245.036-.374.036-.386v-.306l.02-.162v-.504l.053-.144-.054-.216.07-.594v-.63l-.07-.36.09-.144-.02-.072-.07-.972-.127-.594v-.162l.108-.612-.07-.234-.037-.432c-.024-.288-.036-.414-.036-.378 0-.42.33-.642.99-.666l.396-.216-.072.882.073.504-.126.522.036.576.09.324-.054.306.035.432-.054.36.09.378-.035.09.072.18-.09.504v.108l.09.342c-.06.024-.09.114-.09.27l-.054.432.036.162.215-.378.108-.414.252-.414c0-.12.042-.228.126-.324h.2l.143-.306.414-.198c.168-.168.36-.288.576-.36l.108-.09.29-.144.233-.054c.252-.216.798-.36 1.638-.432l1.405.108.288.162.144.018.306.324.018-.108c.157.072.27.186.343.342.06-.012.084-.018.072-.018.048 0 .096.018.144.054l.377.774-.018.09c.06.12.09.228.09.324 0 .168-.067.336-.2.504v.108l-.25.666-.38.522-.107.018-.216.288c-.132 0-.234-.036-.306-.108v.288l-.143.09-.108.198-.325.09c-.048.012-.102.066-.162.162-.828.324-1.29.486-1.386.486-.036 0-.105-.01-.207-.027-.102-.018-.19-.027-.26-.027-.05 0-.085.006-.11.018.013.036.08.168.2.396l.233.144.324.576.486.288.036.072.16.09.235.27.432.342.576.234.324.09.234-.018.127-.054c.24-.036.468-.132.684-.288l.307-.558.18-.216.108-.324c.18-.06.324-.09.432-.09.276 0 .456.156.54.468zm10.836-5.13c0 .108-.108.21-.324.306-.05.06-.14.114-.27.162-.17.072-.29.132-.36.18l-.38-.126c-.19.144-.437.216-.737.216l-.216-.054-.162.144h-.486l-.307.198c-.132-.048-.258-.072-.378-.072-.036.024-.12.048-.252.072-.06 0-.126-.018-.198-.054l-.054.684.02.504-.055.63.036.684.055.324v.252l.252.54c-.036.036-.054.078-.054.126 0 .084.132.15.396.198l.035.216.126.054.217.144.144.108c.12-.024.205-.036.253-.036.108 0 .216.018.324.054.048-.024.15-.108.306-.252.108-.096.21-.144.306-.144h.053c.024.012.042.018.054.018.108-.228.3-.378.576-.45.252 0 .462.078.63.234v.126c0 .408-.144.666-.432.774-.107.252-.335.414-.683.486l-.216.198h-.233l-.414.108c-.096.024-.234.036-.414.036-.097 0-.2-.024-.307-.072h-.234l-.63-.342-.163-.054-.378-.504-.217-.234-.396-.9-.144-.846.036-.216-.145-.198.09-.252-.09-.396.126-.126.037-.234-.054-.216.036-.324-.073-.288.09-.09v-.288l-.126-.054-.34.072-.325-.234h-.054c-.36 0-.54-.192-.54-.576V29.7l-.215-.342.342-.324.45.072.234-.036.343.09h.378v-.36l-.233-.504.234-.126-.09-.27.02-.558-.145-.234c-.084-.132-.126-.252-.126-.36 0-.132.03-.24.09-.324l.053-.252.144-.144c.324-.06.54-.09.648-.09.384 0 .594.174.63.522l-.054.09c.073.108.11.21.11.306 0 .012-.007.042-.02.09l-.035.108-.018.126.072.234-.02.09.037.252-.162.216.09.36-.072.432.144.162-.144.324.558-.072.99.09.793-.126.27.018.09-.018h.702c.372 0 .558.132.558.396zm8.406 6.282c0 .48-.26.72-.775.72-.252 0-.438-.102-.558-.306-.12-.168-.222-.486-.306-.954v-.252c.037-.06.055-.12.055-.18 0-.024-.006-.054-.018-.09l-.252-.378.18-.342-.072-.378.072-.216v-.234l.036-.216-.07-.324.07-.162v-.594l.02-.774-.127-.594.072-.216-.126-.45-.145.126-.396.162-.54.684-.217-.018-.324.522-.055.216-.198.09-.198.306-.09.198-.2.63-.323.396-.072.252-.18.144-.072.432-.36.324-.054.666h-.163l-.054.108-.324.558-.307.324-.27.36-.288-.09h-.234l-.215-.288-.198-.648-.036-.954-.053-.306.054-.36-.035-.846.144-.036.09-1.242.07-.234-.053-.378.09-.054.072-.576.07-.198-.07-.252.053-.09-.036-.054.054-.504-.143-.126.126-.252-.018-.522-.198-.522.144-.162-.125-.486v-.288l-.054-.126-.09-.576-.09-.27-.27-.522.2-.252.18-.306h.16c.265 0 .463.096.595.288l.252.198.108.324.27.234-.054.252.127.378-.018.036.035.036-.018.594.018.792.126.504-.09.216.037.306-.09.252.054.432-.09.36.037.072-.036 1.098.055.252-.108.126-.054.594-.072.27.073.486-.072.144-.017.36c.132-.036.198-.108.198-.216l.145-.144.126-.234.037-.342.198-.288.108-.36.27-.288.072-.342.18-.018v-.162l.018-.216.216-.126v-.144l.18-.036.035-.288-.018-.144.324-.144.09-.072-.035-.18.162-.054.126-.306h.216l.197-.126c0-.084.006-.144.018-.18l.198-.09c.216-.18.42-.288.612-.324v-.036c.312-.156.528-.234.648-.234.18 0 .342.084.486.252.13.048.215.138.25.27l.163.108.054.252.27.414v1.44l-.018.63.07.162v1.332l-.053.234v.36l.054.396-.07.342c.047.18.077.33.09.45l.197.198v.144l.072.054c.06.204.09.348.09.432zm7.63-1.296c0 .144-.107.324-.323.54-.06.192-.15.348-.27.468l-.108.018-.2.342-.323.054-.342.216-.18.324-.198-.036c-.132.06-.24.096-.324.108l-.108.162c-.036-.012-.09-.018-.162-.018-.156 0-.306.108-.45.324l-.252-.216c-.047.012-.12.018-.215.018-.156 0-.288-.024-.396-.072h-.307l-.144-.09c-.457-.072-.745-.246-.865-.522v-.054l-.216-.108-.11-.306-.215-.144v-.27l-.216-.792.035-.648.072-.288v-.378l.09-.288-.018-.126.125-.216-.036.036c0-.108.03-.222.09-.342v-.09l-.055-.432c0-.204.09-.384.27-.54.012-.024.018-.06.018-.108s-.02-.147-.063-.297c-.042-.15-.063-.255-.063-.315 0-.144.036-.294.108-.45.096.144.234.216.414.216h.053c.024-.048.078-.102.162-.162.096-.3.228-.552.396-.756l.073-.072c0-.048.036-.186.108-.414h.145l.036-.09.145-.036c.06-.096.1-.153.117-.17.018-.02.147-.094.387-.226.047-.084.12-.162.215-.234.048-.024.108-.048.18-.072l.072-.108c.324-.108.528-.162.612-.162.095 0 .185.024.27.072l.09-.018.125.072c.144.108.288.198.432.27l.306.234v.072c.276.216.414.522.414.918l-.054.18.054.594-.162.108-.18.468-.342.378-.018.288c-.384.276-.738.498-1.062.666-.108.168-.276.252-.504.252h-.055l-.342.216h-.288l-.432.18-.324-.162h-.037c-.024.096-.048.24-.072.432l-.143.108-.018.216-.11.306c.037.288.055.474.055.558l-.072.054c0 .156-.006.27-.018.342 0 .012-.006.03-.018.054v.054c0 .096.048.174.144.234.037.144.097.234.18.27l.127.108.396.108v.054l.144.036.612.036.36-.054.18-.126.107-.036.18-.27.09-.018.45-.144c.048-.084.126-.156.234-.216l.055-.09c.24-.048.378-.174.414-.378.167-.168.383-.252.647-.252h.072c.227.264.34.48.34.648zm-1.78-5.184c0-.036-.02-.108-.055-.216l-.09-.018-.036.018h-.073c-.024.012-.048.018-.072.018-.012 0-.03-.006-.054-.018h-.053l-.18.126-.162.018-.09.036-.306.396-.2.144-.287.504-.162.108c-.035.204-.12.378-.25.522l-.073.126c.132-.084.282-.126.45-.126l.126-.054.054-.162.252.018.143-.216h.108l.2.072.09-.27h.125v-.198l.234-.054.053-.054.036-.162.233-.342c.024-.06.036-.132.036-.216zM57.01 48.208l-.054.18c0 .228-.084.402-.252.522l-.108.216-.09.072.018.324-.18.108-.018.054c0 .06-.03.132-.09.216l.018.18-.108.108c0 .012.006.03.018.054v.072c0 .036-.012.114-.036.234-.024.024-.066.072-.126.144l.018.036.018.108-.18.324c-.108.252-.33.378-.666.378-.18 0-.366-.024-.558-.072l-.036-.036-.288-.09-.126-.216-.09-.288.234-.432.036-.288.126-.054.18-.162-.072-.072c.072-.024.126-.066.162-.126l.252-.216.234-.306.198-.288c.06-.048.15-.114.27-.198v-.054c.048-.156.144-.288.288-.396l.018-.252.252-.234c.132-.12.288-.18.468-.18.096 0 .168.006.216.018l.054.612zm-2.808 0l-.036.18c-.024.24-.114.414-.27.522v.198l-.054.108-.126.09.054.162-.216.162-.018.09c-.012.036-.042.09-.09.162l-.018.324-.108.18-.108.27-.036.234-.09.234c-.108.276-.33.414-.666.414-.18 0-.372-.024-.576-.072l-.036-.036-.36-.018-.072-.288-.09-.324.108-.324.09-.324.18-.09.252-.216.054-.162.252-.198.432-.612c.096-.06.18-.126.252-.198.012-.168.108-.312.288-.432l.036-.234.216-.252c.204-.108.426-.162.666-.162l.09.612zm15.804 5.04h-4.644V58h-1.242v-4.752h-4.644v-1.224h4.644v-4.752h1.242v4.752h4.644v1.224zm9.144-4.59l-.126.306-.09.342-.18.09-.252.216-.054.144-.252.198-.216.324-.216.306-.252.18c-.012.18-.108.33-.288.45l-.036.234-.198.252c-.18.096-.408.144-.684.144l-.09-.594.036-.18.018-.036c0-.204.084-.366.252-.486l.018-.198.036-.108.126-.09-.054-.18.216-.144.036-.09c.036-.084.066-.138.09-.162v-.342l.108-.162.108-.27.054-.234.09-.234c.108-.276.33-.414.666-.414.18 0 .366.024.558.072l.054.036.36.018.054.288.108.324zm-2.826-.054l-.216.45-.054.288-.108.054-.198.162.072.072c-.048 0-.096.042-.144.126l-.27.198-.234.324-.198.288-.252.198v.054c-.048.156-.144.288-.288.396l-.036.252-.252.234c-.132.12-.294.18-.486.18-.024 0-.054-.006-.09-.018h-.108l-.036-.612.036-.198c0-.216.09-.384.27-.504l.09-.216.108-.072-.036-.324.18-.108.018-.072c.024-.084.054-.15.09-.198l-.018-.18.108-.126v-.072c0-.036.012-.126.036-.27.048-.072.084-.12.108-.144l-.018-.036-.018-.108.18-.324c.096-.252.318-.378.666-.378.18 0 .366.024.558.072l.036.036.288.09.144.216.072.27zm15.48 6.588l-.162.162.054.432-.414.504v.216l-.144.144.108.162-.36.342-.234.396-.378.216c-.144.144-.3.222-.468.234l-.144.324-.18-.162-.18.234c0-.06-.048-.138-.144-.234l-.126-.072-.144.162h-.054l-.144.18-.234-.144-.378.162-.234-.216c-.036.012-.09.018-.162.018-.192 0-.432-.054-.72-.162l-.252-.126-.09-.09-.288-.108-.126-.378c-.204-.012-.414-.06-.63-.144l-.378-.81.054-.126-.09-.144v-.324l-.108-.18.072-.216c-.036-.132-.054-.246-.054-.342 0-.024.006-.048.018-.072v-.63l.072-.18.018-1.062.054-.252-.09-.108.162-.504-.054-.162v-.396l.09-.108-.018-.252-.072-.18.162-.576-.126-.72.054-.054v-.234c.012-.06.018-.156.018-.288 0-.168-.012-.3-.036-.396l.036-.126-.144-.522c.024-.084.066-.144.126-.18-.024-.036-.054-.078-.09-.126.036-.072.054-.144.054-.216 0-.096-.042-.204-.126-.324 0-.108.018-.204.054-.288l-.072-.18.09-.198-.288-.612.288-.054v-.036l.63-.324.324.378.036.18.27.198-.018.27c0 .096-.012.228-.036.396.084.084.126.162.126.234 0 .036-.012.078-.036.126l.072.072-.072.288.126.324-.018.126.234.108-.126.234-.108.468c-.012.072-.036.18-.072.324.036.072.054.234.054.486l-.036.144.054.144-.09.288c0 .108-.018.216-.054.324l-.018.054c.06.06.126.138.198.234l-.198.378.054.216-.036.108c0 .096-.018.21-.054.342l.018.072-.018.198-.018.27-.054.576.234.054.036-.558.126-.378.072.036.108-.27c.048-.216.144-.42.288-.612.024-.048.06-.096.108-.144l.054-.054v.036l.072-.216.216-.234.126-.126.018-.072.108-.144c0-.156.054-.27.162-.342l.036-.144.234-.072.09-.054.036-.108-.018-.252.27-.054.144-.054-.126-.126.288-.072.306-.234h.558l.342.198.108.018.306.432.018.18.144.018.054.378.18.144v.27l.108.126.126.072.072.576v.054c0 .06.036.14.108.243.072.102.108.19.108.26 0 .073-.018.145-.054.217l.216.09c-.024.168-.066.3-.126.396l.054.396c.048.12.072.21.072.27 0 .036-.012.102-.036.198l-.018.774.072.162-.072.288.09.324zm-1.206-1.35l-.036-.324v-.306l-.126-.828-.162-.594-.234-.522-.396-.63-.09.036-.072.09h-.09c-.048.216-.18.33-.396.342-.096.132-.222.312-.378.54l-.216.198-.072.27-.18.216-.18.45c0 .204-.078.426-.234.666l-.108.162.018.288-.288.396-.144.63-.126.072c0 .012.006.036.018.072v.09c0 .216-.054.432-.162.648l.108.324-.216.09-.036.072-.144.144.396.09.234.126.36-.054.324.144v.252l.072.072h.432l.288-.054c.072-.108.18-.162.324-.162h.054l.144-.054-.072-.216h.504c.108-.312.306-.588.594-.828v-.18l.216-.396v-.414l.054-.468-.036-.288.054-.162zm12.942 3.114c0 .144-.108.318-.324.522l-.144.054-.126.162-.324.09c-.06.084-.12.126-.18.126-.012 0-.024-.006-.036-.018h-.054c-.264.132-.582.198-.954.198h-.144l-.45-.09-.306-.144-.684-.576-.144-.486-.288-.234c.036-.048.054-.126.054-.234 0-.072-.048-.192-.144-.36l.054-.432v-.072c0-.144-.042-.33-.126-.558l.108-.54-.234.468-.27.036-.036.378c-.096.048-.21.072-.342.072l-.198.432-.234.27c-.096.108-.18.168-.252.18l-.054.036-.648.666h-.072l-.342.396-.324.162-.18.234-.414.126-.594.234-.36-.18c-.24 0-.408-.108-.504-.324l-.162-.09c0-.036.006-.084.018-.144v-.126l-.288-.252.072-.108-.216-.504.072-.072-.036-.036v-.108c-.012-.036-.018-.066-.018-.09 0-.132.018-.258.054-.378l.018-.468-.072-.378c.06-.096.09-.18.09-.252 0-.084-.036-.162-.108-.234l.198-.144v-.216l-.072-.594.198-1.152c0-.192-.054-.474-.162-.846.036-.384.288-.594.756-.63l.144.054.252.036.324.36-.108.468-.036.774.054.594-.108.216.054.144-.09.288v.18l-.036.054c.012.036.018.09.018.162 0 .156-.024.318-.072.486l.09.126-.072.27.036.216v.252c.06.072.09.162.09.27 0 .096-.024.192-.072.288v.072c.06.204.09.336.09.396l.162.162c.072-.048.156-.108.252-.18.036-.12.12-.198.252-.234v-.18c.072 0 .186-.018.342-.054l.036-.162.306-.126.054-.054c.084-.084.222-.162.414-.234V55.3l.342-.252c.084-.228.234-.378.45-.45.132-.132.222-.21.27-.234l.234-.306v-.054l.072-.036.162-.072.09-.252.378-.162.072-.018.126-.126v-.162l.108-.036c.036-.192.132-.336.288-.432l.27-.612.09-.324.036-.072h.072l.126-.09-.108-.036c.132-.216.234-.444.306-.684l.522-.018.414.342.18.288-.198.774-.27.36-.216.702-.18.108v.27l-.108.198.054.324-.144.126.072.576.036.81h.09v.468l.252.306.234.126.018.09c.084.012.186.042.306.09l.45.036.27-.072.486-.234c.096-.048.216-.072.36-.072.36 0 .54.156.54.468zm6.642-5.418c0 .108-.108.21-.324.306-.048.06-.138.114-.27.162-.168.072-.288.132-.36.18l-.378-.126c-.192.144-.438.216-.738.216l-.216-.054-.162.144h-.486l-.306.198c-.132-.048-.258-.072-.378-.072-.036.024-.12.048-.252.072-.06 0-.126-.018-.198-.054l-.054.684.018.504-.054.63.036.684.054.324v.252l.252.54c-.036.036-.054.078-.054.126 0 .084.132.15.396.198l.036.216.126.054.216.144.144.108c.12-.024.204-.036.252-.036.108 0 .216.018.324.054.048-.024.15-.108.306-.252.108-.096.21-.144.306-.144h.054c.024.012.042.018.054.018.108-.228.3-.378.576-.45.252 0 .462.078.63.234v.126c0 .408-.144.666-.432.774-.108.252-.336.414-.684.486l-.216.198h-.234l-.414.108c-.096.024-.234.036-.414.036-.096 0-.198-.024-.306-.072h-.234l-.63-.342-.162-.054-.378-.504-.216-.234-.396-.9-.144-.846.036-.216-.144-.198.09-.252-.09-.396.126-.126.036-.234-.054-.216.036-.324-.072-.288.09-.09v-.288l-.126-.054-.342.072-.324-.234h-.054c-.36 0-.54-.192-.54-.576V51.7l-.216-.342.342-.324.45.072.234-.036.342.09h.378v-.36l-.234-.504.234-.126-.09-.27.018-.558-.144-.234c-.084-.132-.126-.252-.126-.36 0-.132.03-.24.09-.324l.054-.252.144-.144c.324-.06.54-.09.648-.09.384 0 .594.174.63.522l-.054.09c.072.108.108.21.108.306 0 .012-.006.042-.018.09l-.036.108-.018.126.072.234-.018.09.036.252-.162.216.09.36-.072.432.144.162-.144.324.558-.072.99.09.792-.126.27.018.09-.018h.702c.372 0 .558.132.558.396zm6.336 0c0 .108-.108.21-.324.306-.048.06-.138.114-.27.162-.168.072-.288.132-.36.18l-.378-.126c-.192.144-.438.216-.738.216l-.216-.054-.162.144h-.486l-.306.198c-.132-.048-.258-.072-.378-.072-.036.024-.12.048-.252.072-.06 0-.126-.018-.198-.054l-.054.684.018.504-.054.63.036.684.054.324v.252l.252.54c-.036.036-.054.078-.054.126 0 .084.132.15.396.198l.036.216.126.054.216.144.144.108c.12-.024.204-.036.252-.036.108 0 .216.018.324.054.048-.024.15-.108.306-.252.108-.096.21-.144.306-.144h.054c.024.012.042.018.054.018.108-.228.3-.378.576-.45.252 0 .462.078.63.234v.126c0 .408-.144.666-.432.774-.108.252-.336.414-.684.486l-.216.198h-.234l-.414.108c-.096.024-.234.036-.414.036-.096 0-.198-.024-.306-.072h-.234l-.63-.342-.162-.054-.378-.504-.216-.234-.396-.9-.144-.846.036-.216-.144-.198.09-.252-.09-.396.126-.126.036-.234-.054-.216.036-.324-.072-.288.09-.09v-.288l-.126-.054-.342.072-.324-.234h-.054c-.36 0-.54-.192-.54-.576V51.7l-.216-.342.342-.324.45.072.234-.036.342.09h.378v-.36l-.234-.504.234-.126-.09-.27.018-.558-.144-.234c-.084-.132-.126-.252-.126-.36 0-.132.03-.24.09-.324l.054-.252.144-.144c.324-.06.54-.09.648-.09.384 0 .594.174.63.522l-.054.09c.072.108.108.21.108.306 0 .012-.006.042-.018.09l-.036.108-.018.126.072.234-.018.09.036.252-.162.216.09.36-.072.432.144.162-.144.324.558-.072.99.09.792-.126.27.018.09-.018h.702c.372 0 .558.132.558.396zm7.11 2.25l-.108.324c0 .312-.018.558-.054.738l-.108.18v.198l-.09.126-.054.252-.198.198-.126.45-.144.054-.072.198-.216.126-.144.306-.216.108-.018.216-.342.126c-.156.216-.348.354-.576.414l-.072.018c-.168.252-.39.378-.666.378-.12.072-.258.108-.414.108l-.18.126-.18.054-.234.18-.234-.018-.252.072-.306-.126-.774-.054-.27-.414-.396-.414.09-.288-.27-.612.126-.234-.09-.432.09-.27c-.024-.168-.036-.288-.036-.36 0-.228.06-.396.18-.504.012-.12.09-.318.234-.594h.09l-.036-.126.054-.252v-.27c.096-.108.15-.18.162-.216l-.054-.252v-.072c.084-.168.126-.342.126-.522l.378-.522.045-.036c.03-.024.057-.048.08-.072l-.017-.072h.072l.27-.306.018-.414.45-.162c.168-.108.276-.288.324-.54h.234c.132-.072.252-.108.36-.108.108 0 .21.024.306.072l.198.018.468-.18.252.234.198.126h.144l.27.144h.144c.156.144.336.342.54.594l.036.09.126.072.378.486.342.846v.18l.162.63zm-1.188.432l-.018-.09c-.084-.084-.132-.174-.144-.27l.054-.09-.162-.342.036-.342-.072-.09c-.156-.12-.24-.216-.252-.288-.108-.048-.162-.168-.162-.36l-.108-.018-.216-.36-.162-.126-.378-.144-.144-.036c-.072 0-.12-.024-.144-.072l-.36.396-.234.504-.378.198-.054.198-.18.09-.072.468-.216.108c-.048.168-.072.324-.072.468l-.288.27.09.054c0 .144-.054.27-.162.378-.036.108-.084.228-.144.36v.144l-.054.072.018.216-.198.486.036.09v.504l-.072.252.018.252.162.234.252.09.09.036.144-.072.468.036.072-.18h.072c.072 0 .114.018.126.054l.162-.054.144.054.234-.162.036-.054.162-.036c.084-.132.282-.264.594-.396l.036-.09.36-.252.198-.288.288-.144.018-.09.09-.198v-.234l.216-.18.072-.126.09-.108c-.048-.144-.072-.246-.072-.306 0-.108.036-.222.108-.342l.072-.072zm14.022.864c0 .096-.078.222-.234.378l-.198.306-.072.36-.162.054-.036.108c-.192.06-.33.21-.414.45-.132.168-.276.288-.432.36-.06.06-.114.102-.162.126l-.09.162-.162.036-.468.252-.612.072-.162-.036-.27.054-.108-.126c-.168-.084-.288-.168-.36-.252-.144-.036-.252-.15-.324-.342-.204-.24-.306-.432-.306-.576v-.054l-.126-.216-.036-.036-.108-.324-.162-.342.036-.414-.18-.234-.27-1.548c-.036-.204-.054-.378-.054-.522l-.036-.09-.09-.126-.162.216-.648.684-.234.378-.126.252-.198.288-.144.144.018.09-.252.558-.144.18-.18.036-.162.162c0 .24-.114.396-.342.468l-.036.036c-.108.264-.228.426-.36.486l-.162.252c-.264.24-.438.39-.522.45-.036.12-.102.222-.198.306-.024.036-.066.084-.126.144-.036.204-.204.348-.504.432l-.198.054c-.24-.012-.438-.15-.594-.414l-.27-.45.09-.432-.036-.234.036-.036.018-.234-.198-.432.144-.216-.072-.234.126-.252.036-.414-.072-.072.144-.252-.054-.126-.018-.288.072-.54c-.024-.12-.036-.198-.036-.234 0-.024.006-.048.018-.072v-.072l-.09-.144.054-.576-.018-.198.054-.288-.072-.486.324-.54c.372.06.63.14.774.243.144.102.216.285.216.55v.16l.126.217-.054.378.072.72-.126.342.054.378v.306l-.144.198.108.324-.108.198-.018.198.108.198-.144.378-.054.162v.162l.09.18.306-.306c0-.18.06-.3.18-.36.012-.12.06-.21.144-.27l-.054-.054.234-.216.054-.072v-.162l.288-.216.072-.18.162-.108.702-.792c-.06.072-.258.294-.594.666v.036l.036-.126.234-.27.162-.306v-.18l.27-.09.036-.234.072-.072.018-.09v-.126l.252-.252v-.09c-.012-.036-.018-.06-.018-.072 0-.216.12-.336.36-.36.108-.216.27-.342.486-.378l.108-.162.036-.036c.108-.156.27-.264.486-.324l.162-.198h.432l.216.252.198.108.018.054.126.036.036.378.306.18-.126.396.198.432v.504l.144.684.036.648.162.378.108.468c.072.072.126.174.162.306l.324.09v.36l.18.198v.054l.072.018.072.108.072-.09c-.024 0 .006.006.09.018.132 0 .27-.12.414-.36l.216-.054.054-.09c.036-.096.108-.168.216-.216l.126.018.072-.072.018-.09.054-.072c.12-.084.198-.21.234-.378l.198-.216.036-.162.126-.288.342-.126.486.162.162.522c0 .012.006.024.018.036v.054zm12.204.108l-.162.162.054.432-.414.504v.216l-.144.144.108.162-.36.342-.234.396-.378.216c-.144.144-.3.222-.468.234l-.144.324-.18-.162-.18.234c0-.06-.048-.138-.144-.234l-.126-.072-.144.162h-.054l-.144.18-.234-.144-.378.162-.234-.216c-.036.012-.09.018-.162.018-.192 0-.432-.054-.72-.162l-.252-.126-.09-.09-.288-.108-.126-.378c-.204-.012-.414-.06-.63-.144l-.378-.81.054-.126-.09-.144v-.324l-.108-.18.072-.216c-.036-.132-.054-.246-.054-.342 0-.024.006-.048.018-.072v-.63l.072-.18.018-1.062.054-.252-.09-.108.162-.504-.054-.162v-.396l.09-.108-.018-.252-.072-.18.162-.576-.126-.72.054-.054v-.234c.012-.06.018-.156.018-.288 0-.168-.012-.3-.036-.396l.036-.126-.144-.522c.024-.084.066-.144.126-.18-.024-.036-.054-.078-.09-.126.036-.072.054-.144.054-.216 0-.096-.042-.204-.126-.324 0-.108.018-.204.054-.288l-.072-.18.09-.198-.288-.612.288-.054v-.036l.63-.324.324.378.036.18.27.198-.018.27c0 .096-.012.228-.036.396.084.084.126.162.126.234 0 .036-.012.078-.036.126l.072.072-.072.288.126.324-.018.126.234.108-.126.234-.108.468c-.012.072-.036.18-.072.324.036.072.054.234.054.486l-.036.144.054.144-.09.288c0 .108-.018.216-.054.324l-.018.054c.06.06.126.138.198.234l-.198.378.054.216-.036.108c0 .096-.018.21-.054.342l.018.072-.018.198-.018.27-.054.576.234.054.036-.558.126-.378.072.036.108-.27c.048-.216.144-.42.288-.612.024-.048.06-.096.108-.144l.054-.054v.036l.072-.216.216-.234.126-.126.018-.072.108-.144c0-.156.054-.27.162-.342l.036-.144.234-.072.09-.054.036-.108-.018-.252.27-.054.144-.054-.126-.126.288-.072.306-.234h.558l.342.198.108.018.306.432.018.18.144.018.054.378.18.144v.27l.108.126.126.072.072.576v.054c0 .06.036.14.108.243.072.102.108.19.108.26 0 .073-.018.145-.054.217l.216.09c-.024.168-.066.3-.126.396l.054.396c.048.12.072.21.072.27 0 .036-.012.102-.036.198l-.018.774.072.162-.072.288.09.324zm-1.206-1.35l-.036-.324v-.306l-.126-.828-.162-.594-.234-.522-.396-.63-.09.036-.072.09h-.09c-.048.216-.18.33-.396.342-.096.132-.222.312-.378.54l-.216.198-.072.27-.18.216-.18.45c0 .204-.078.426-.234.666l-.108.162.018.288-.288.396-.144.63-.126.072c0 .012.006.036.018.072v.09c0 .216-.054.432-.162.648l.108.324-.216.09-.036.072-.144.144.396.09.234.126.36-.054.324.144v.252l.072.072h.432l.288-.054c.072-.108.18-.162.324-.162h.054l.144-.054-.072-.216h.504c.108-.312.306-.588.594-.828v-.18l.216-.396v-.414l.054-.468-.036-.288.054-.162zm8.568 2.682c0 .144-.108.324-.324.54-.06.192-.15.348-.27.468l-.108.018-.198.342-.324.054-.342.216-.18.324-.198-.036c-.132.06-.24.096-.324.108l-.108.162c-.036-.012-.09-.018-.162-.018-.156 0-.306.108-.45.324l-.252-.216c-.048.012-.12.018-.216.018-.156 0-.288-.024-.396-.072h-.306l-.144-.09c-.456-.072-.744-.246-.864-.522v-.054l-.216-.108-.108-.306-.216-.144v-.27l-.216-.792.036-.648.072-.288v-.378l.09-.288-.018-.126.126-.216-.036.036c0-.108.03-.222.09-.342v-.09l-.054-.432c0-.204.09-.384.27-.54.012-.024.018-.06.018-.108s-.02-.147-.063-.297-.064-.255-.064-.315c0-.144.036-.294.108-.45.096.144.234.216.414.216h.054c.024-.048.078-.102.162-.162.096-.3.228-.552.396-.756l.072-.072c0-.048.036-.186.108-.414h.144l.036-.09.144-.036c.06-.096.1-.153.117-.17.02-.02.148-.094.388-.226.048-.084.12-.162.216-.234.048-.024.108-.048.18-.072l.072-.108c.324-.108.528-.162.612-.162.096 0 .186.024.27.072l.09-.018.126.072c.144.108.288.198.432.27l.306.234v.072c.276.216.414.522.414.918l-.054.18.054.594-.162.108-.18.468-.342.378-.018.288c-.384.276-.738.498-1.062.666-.108.168-.276.252-.504.252h-.054l-.342.216h-.288l-.432.18-.324-.162h-.036c-.024.096-.048.24-.072.432l-.144.108-.018.216-.108.306c.036.288.054.474.054.558l-.072.054c0 .156-.006.27-.018.342 0 .012-.006.03-.018.054v.054c0 .096.048.174.144.234.036.144.096.234.18.27l.126.108.396.108v.054l.144.036.612.036.36-.054.18-.126.108-.036.18-.27.09-.018.45-.144c.048-.084.126-.156.234-.216l.054-.09c.24-.048.378-.174.414-.378.168-.168.384-.252.648-.252h.072c.228.264.342.48.342.648zm-1.782-5.184c0-.036-.018-.108-.054-.216l-.09-.018-.036.018h-.072c-.024.012-.048.018-.072.018-.012 0-.03-.006-.054-.018h-.054l-.18.126-.162.018-.09.036-.306.396-.198.144-.288.504-.162.108c-.036.204-.12.378-.252.522l-.072.126c.132-.084.282-.126.45-.126l.126-.054.054-.162.252.018.144-.216h.108l.198.072.09-.27h.126v-.198l.234-.054.054-.054.036-.162.234-.342c.024-.06.036-.132.036-.216zm7.902 4.698c0 .132-.048.24-.144.324-.096.144-.252.294-.468.45l-.18.126-.162.216-.162.072-.252.162-.18.018-.072.072c-.24.072-.426.192-.558.36-.084.06-.162.09-.234.09-.048 0-.09-.006-.126-.018-.204.12-.468.18-.792.18-.276 0-.456-.024-.54-.072l-.324-.18-.108-.18v-.054c0-.156-.066-.282-.198-.378l-.072-.36-.144-.162-.09-.666-.018-.396.018-.288.036-.108c-.036-.072-.054-.15-.054-.234.06-.504.09-.822.09-.954l-.162-.324.162-.27.054-.45-.036-.306.108-.27-.108-.36.162-.252.018-.162v-.63l.054-.126-.018-.756.054-.774-.072-.144-.018-.54.054-.486-.054-.18.108-1.08c.504-.12.726-.18.666-.18.192 0 .348.102.468.306l.036.144.27.27-.144.378.036.072c-.024.228-.054.378-.09.45l.036.378.09.342-.126.378c0 .204-.03.39-.09.558 0 .06-.012.156-.036.288l-.018.108.162.198-.072.198c.024.096.036.162.036.198 0 .072-.024.168-.072.288l.036.162-.108.576v.378l-.126.378.072.342-.072.792.054.09-.09.414-.036.504c-.024.072-.036.114-.036.126 0 .204-.006.372-.018.504l.09.252-.036.27.108.234-.018.09c.072.06.138.156.198.288h.162l.234.072.108-.144.162-.018c.072-.024.126-.036.162-.036h.054c.12-.024.216-.084.288-.18l.108-.054c.084-.132.222-.222.414-.27.06-.048.174-.144.342-.288 0-.168.102-.294.306-.378.18 0 .3-.03.36-.09.24.036.393.1.46.19.065.09.098.26.098.512zm7.218-2.25l-.108.324c0 .312-.018.558-.054.738l-.108.18v.198l-.09.126-.054.252-.198.198-.126.45-.144.054-.072.198-.216.126-.144.306-.216.108-.018.216-.342.126c-.156.216-.348.354-.576.414l-.072.018c-.168.252-.39.378-.666.378-.12.072-.258.108-.414.108l-.18.126-.18.054-.234.18-.234-.018-.252.072-.306-.126-.774-.054-.27-.414-.396-.414.09-.288-.27-.612.126-.234-.09-.432.09-.27c-.024-.168-.036-.288-.036-.36 0-.228.06-.396.18-.504.012-.12.09-.318.234-.594h.09l-.036-.126.054-.252v-.27c.096-.108.15-.18.162-.216l-.054-.252v-.072c.084-.168.126-.342.126-.522l.378-.522.045-.036c.03-.024.057-.048.08-.072l-.017-.072h.072l.27-.306.018-.414.45-.162c.168-.108.276-.288.324-.54h.234c.132-.072.252-.108.36-.108.108 0 .21.024.306.072l.198.018.468-.18.252.234.198.126h.144l.27.144h.144c.156.144.336.342.54.594l.036.09.126.072.378.486.342.846v.18l.162.63zm-1.188.432l-.018-.09c-.084-.084-.132-.174-.144-.27l.054-.09-.162-.342.036-.342-.072-.09c-.156-.12-.24-.216-.252-.288-.108-.048-.162-.168-.162-.36l-.108-.018-.216-.36-.162-.126-.378-.144-.144-.036c-.072 0-.12-.024-.144-.072l-.36.396-.234.504-.378.198-.054.198-.18.09-.072.468-.216.108c-.048.168-.072.324-.072.468l-.288.27.09.054c0 .144-.054.27-.162.378-.036.108-.084.228-.144.36v.144l-.054.072.018.216-.198.486.036.09v.504l-.072.252.018.252.162.234.252.09.09.036.144-.072.468.036.072-.18h.072c.072 0 .114.018.126.054l.162-.054.144.054.234-.162.036-.054.162-.036c.084-.132.282-.264.594-.396l.036-.09.36-.252.198-.288.288-.144.018-.09.09-.198v-.234l.216-.18.072-.126.09-.108c-.048-.144-.072-.246-.072-.306 0-.108.036-.222.108-.342l.072-.072zm13.95-3.492l-.09.342.036.18-.216.702-.036.252-.252.27-.09.342-.198.288-.288.63-.342.576-.522.774-.09.234-.27.486-.306.63-.54.972-.108.432-.288.414-.54-.18-.306-.18-.288-.846-.36-.612v-.18l-.216-.504-.09-.108-.756-1.584-.234-.378-.198.306-.288.234-.414.576-.288.306-.162.468-.396.486-.036.162-.27.558v.27l-.18.252-.018.252-.18.054-.396.414.072-.036c-.12.072-.282.12-.486.144l-.126-.144-.27-.108v-.198l-.108-.144-.108-.486-.144-.324v-.234l-.018-.072-.27-.774-.072-.486-.18-.198.036-.234-.18-.432v-.162l-.144-.396-.252-.342.036-.396-.018-.126-.198-.468-.036-.288-.108-.18c-.072-.12-.126-.24-.162-.36l-.306-.774.252-.324c.072-.132.222-.216.45-.252l.378-.054.126.18.234.108.162.324.144.126-.054.288.072.18-.054.162.18.288-.036.27.234.81-.036.198.108.486.252.576.108.684.18.216v.432l.126.378.018.144.252-.162.414-.666.126-.306.144-.252c0-.12.024-.21.072-.27h.108l.054-.324.198-.036c.024-.096.078-.168.162-.216v-.036c0-.072.036-.144.108-.216l-.036-.126.09-.036-.018-.108c.108-.192.228-.336.36-.432v-.36l.252-.144.072-.054.036-.036c-.06-.12-.09-.252-.09-.396 0-.216.096-.426.288-.63.108-.048.24-.072.396-.072.096 0 .168.006.216.018l.342.306.18.27.108.432.162.288-.036.198.126.396v.162l.306.54v.054l.072.054.36.864.018.234.18.198.414.936.09-.162.324-.666.198-.162.144-.378.18-.09v-.27c.072-.06.168-.12.288-.18.072-.036.108-.066.108-.09l-.018-.378.216-.216.09-.054.27-.45v-.054c.024-.132.102-.282.234-.45l-.036-.198.324-.396.162-.396c-.132-.36-.198-.666-.198-.918 0-.372.192-.582.576-.63l.486.144.072-.108.126.162.18.126-.054.198.216.252zm3.366 6.822l-.126.054v.126l-.198.144-.162.216-.342.018-.108.018c-.048.024-.12.036-.216.036-.12 0-.246-.036-.378-.108-.048-.012-.108-.04-.18-.08-.072-.043-.126-.118-.162-.226l-.144-.108-.072-.018v-.504c0-.192.144-.348.432-.468.096-.084.234-.186.414-.306l.306.09.054.054.054-.054.108.072h.09c.144 0 .246.048.306.144l.126.234.198.252-.036.252.036.162z" fill="#000" fill-rule="evenodd" fill-opacity=".84"/></svg>