<svg width="214" height="37" viewBox="0 0 214 37" xmlns="http://www.w3.org/2000/svg"><title>To cite a new source</title><path d="M38.754 4.234l-.45.846-.414.054h-.558l-.306.054-.234-.054-1.134.09-.324-.072-.072.018c-.12.048-.324.096-.612.144h-.648l-.144-.054h-.054c-.12 0-.294.03-.522.09-.18.048-.402.072-.666.072l-.288-.072-.054.216h-.216l-.054.846.09.144-.036.27v.468c0 .492-.048.822-.144.99l.144.198-.108.522.108.144-.198.288v.144l-.108.198.072.396-.054.756-.108.342c.012.012.018.042.018.09 0-.024-.018.054-.054.234 0 .012.006.036.018.072v.09c0 .132-.042.258-.126.378l.054.252c0 .084-.006.138-.018.162l-.018.054c-.024.072-.036.144-.036.216 0 .228.024.42.072.576-.264.048-.414.072-.45.072-.108 0-.198-.012-.27-.036l-.036-.018c-.312-.072-.468-.36-.468-.864.012-.06.018-.144.018-.252 0-.096-.012-.23-.036-.405-.024-.174-.036-.303-.036-.387 0-.12.018-.222.054-.306l.072-.738c-.096-.132-.144-.24-.144-.324 0-.024.012-.072.036-.144-.048-.096-.072-.168-.072-.216 0-.096.03-.174.09-.234 0-.108.048-.258.144-.45-.024-.096-.036-.198-.036-.306.084 0 .126-.042.126-.126 0-.024-.012-.063-.036-.117-.024-.054-.036-.11-.036-.17l.054.07-.072-.16c0-.23.03-.427.09-.595v-.522l-.09-.378.09-.702-.09-.522.036-.18-.27.018-.198.108-.144-.018v.072c-.252 0-.498-.018-.738-.054l-.054.144-.702-.234-.936-.018-.594.162c-.48-.408-.72-.702-.72-.882 0-.108.018-.216.054-.324v.054l.396-.342.342.018 1.206.216.306-.09.918.018.72.09.468-.18.162-.468.72.18.036-.036.036.054.252.306.072.018.252-.09.522.126c.516-.096.822-.144.918-.144.144 0 .294.03.45.09.036 0 .108.006.216.018.168-.024.276-.036.324-.036h.126l.612-.072.522.09.072.036.27-.09.378.09.9-.036.396.054h.954zm5.79 4.554l-.108.324c0 .312-.018.558-.054.738l-.108.18v.198l-.09.126-.054.252-.198.198-.126.45-.144.054-.072.198-.216.126-.144.306-.216.108-.018.216-.342.126c-.156.216-.348.354-.576.414l-.072.018c-.168.252-.39.378-.666.378-.12.072-.258.108-.414.108l-.18.126-.18.054-.234.18-.234-.018-.252.072-.306-.126-.774-.054-.27-.414-.396-.414.09-.288-.27-.612.126-.234-.09-.432.09-.27c-.024-.168-.036-.288-.036-.36 0-.228.06-.396.18-.504.012-.12.09-.318.234-.594h.09l-.036-.126.054-.252v-.27c.096-.108.15-.18.162-.216l-.054-.252V8.23c.084-.168.126-.342.126-.522l.378-.522.045-.036c.03-.024.056-.048.08-.072l-.018-.072h.072l.27-.306.018-.414.45-.162c.168-.108.276-.288.324-.54h.234c.132-.072.252-.108.36-.108.108 0 .21.024.306.072l.198.018.468-.18.252.234.198.126h.144l.27.144h.144c.156.144.336.342.54.594l.036.09.126.072.378.486.342.846v.18l.162.63zm-1.188.432l-.018-.09c-.084-.084-.132-.174-.144-.27l.054-.09-.162-.342.036-.342-.072-.09c-.156-.12-.24-.216-.252-.288-.108-.048-.162-.168-.162-.36l-.108-.018-.216-.36-.162-.126-.378-.144-.144-.036c-.072 0-.12-.024-.144-.072l-.36.396-.234.504-.378.198-.054.198-.18.09-.072.468-.216.108c-.048.168-.072.324-.072.468l-.288.27.09.054c0 .144-.054.27-.162.378-.036.108-.084.228-.144.36v.144l-.054.072.018.216-.198.486.036.09v.504l-.072.252.018.252.162.234.252.09.09.036.144-.072.468.036.072-.18h.072c.072 0 .114.018.126.054l.162-.054.144.054.234-.162.036-.054.162-.036c.084-.132.282-.264.594-.396l.036-.09.36-.252.198-.288.288-.144.018-.09.09-.198v-.234l.216-.18.072-.126.09-.108c-.048-.144-.072-.246-.072-.306 0-.108.036-.222.108-.342l.072-.072zm14.406.972l-.342.324-.018.108c-.036.216-.138.39-.306.522-.288.54-.69.936-1.206 1.188l-.27.216-.234.036-.288.216-.198.018-.45.288-.288-.036-.324.144-.252-.072-.126.108-.342-.054-.342.054-.126-.108-.36-.072-.522-.396-.288-.36c-.18-.228-.27-.42-.27-.576v-.054l-.18-.27v-.234c-.036-.144-.054-.276-.054-.396v-.126l-.09-.306.09-.216-.072-.144.216-.342-.054-.288.144-.468.072-.108.072-.432-.036-.072.216-.234.036-.18.144-.414.234-.504.324-.288.072-.162.108-.198.036-.18.288-.342c.072-.024.156-.048.252-.072.048-.228.348-.36.9-.396.468.096.768.222.9.378.132.024.234.078.306.162l.378.018.252.324c.06.12.102.24.126.36l.144.144-.054.27c.012.084.018.216.018.396l.09.072v.27l.072.558c-.252.252-.54.396-.864.432-.168-.312-.378-.546-.63-.702l-.036-.594-.108-.198V7.06l-.18-.216-.09-.072-.162.054h-.234c-.156.036-.306.15-.45.342-.144.192-.288.396-.432.612l-.018.18-.108.09v.324l-.234.252-.288.792.018.216-.144.324.054.396-.108.054-.036.504.018.09.216.216.09.378.252.072.018.144.306.054.234.054c.084-.048.186-.072.306-.072h.126c.144-.06.276-.09.396-.09.084-.036.192-.072.324-.108.144-.192.348-.288.612-.288h.108c.06 0 .102-.03.126-.09.132-.204.342-.336.63-.396.336-.3.528-.54.576-.72.168-.096.276-.246.324-.45l.108-.072.054-.414c.552.084.828.36.828.828v.144zM62.22.832c0 .144-.096.276-.288.396v.036c-.228.276-.426.432-.594.468l-.27.324-.18.234-.414.108-.18.252-.288.144-.468.414-.288-.27.054-.45.198-.324c.012-.168.108-.312.288-.432V1.66l.108-.072.018-.27.288-.072v-.162l.216-.036c.048-.24.15-.414.306-.522L60.78.49l.108-.108.144-.432c.792.192 1.188.486 1.188.882zm1.836 9.54c0 .276-.048.45-.144.522l-.09.072-.09.252-.288.09c-.084.192-.21.342-.378.45l-.162.054-.234.252-.216.054c-.084.216-.258.33-.522.342-.024.036-.078.108-.162.216-.18.12-.366.192-.558.216l-.09.018-.126.162h-.36l-.288.216-.738-.54-.342-.702-.018-.882-.072-.216.216-1.584.072-.072c-.036-.18-.054-.354-.054-.522 0-.108.036-.33.108-.666l.09-.414c-.024-.072-.072-.15-.144-.234l.108-.342.036-.414.036-.054c-.048-.108-.078-.228-.09-.36.012-.024.024-.057.036-.1.012-.04.018-.074.018-.098-.036-.108-.054-.21-.054-.306 0-.288.162-.42.486-.396l.216.018c.144-.072.234-.108.27-.108.24 0 .402.132.486.396v.072c.048.144.072.282.072.414 0 .108-.012.186-.036.234l-.126.9.126.252c0 .216-.072.408-.216.576l.072.216-.234.684c-.024.3-.054.528-.09.684v.45l-.108.252.018.18-.036.414.036.324.27.216.216-.036.036-.054.144.018.234-.072.198-.198.072-.108.126-.018.036-.09.054-.072.108.072.18-.18.108.018.036-.126h.036l.054-.144.162-.072.342-.162c.276-.192.546-.288.81-.288h.072c.132.084.222.192.27.324zm6.852-3.834c0 .108-.108.21-.324.306-.048.06-.138.114-.27.162-.168.072-.288.132-.36.18l-.378-.126c-.192.144-.438.216-.738.216l-.216-.054-.162.144h-.486l-.306.198c-.132-.048-.258-.072-.378-.072-.036.024-.12.048-.252.072-.06 0-.126-.018-.198-.054l-.054.684.018.504-.054.63.036.684.054.324v.252l.252.54c-.036.036-.054.078-.054.126 0 .084.132.15.396.198l.036.216.126.054.216.144.144.108c.12-.024.204-.036.252-.036.108 0 .216.018.324.054.048-.024.15-.108.306-.252.108-.096.21-.144.306-.144h.054c.024.012.042.018.054.018.108-.228.3-.378.576-.45.252 0 .462.078.63.234v.126c0 .408-.144.666-.432.774-.108.252-.336.414-.684.486l-.216.198h-.234l-.414.108c-.096.024-.234.036-.414.036-.096 0-.198-.024-.306-.072h-.234l-.63-.342-.162-.054-.378-.504-.216-.234-.396-.9-.144-.846.036-.216-.144-.198.09-.252-.09-.396.126-.126.036-.234-.054-.216.036-.324-.072-.288.09-.09v-.288l-.126-.054-.342.072-.324-.234h-.054c-.36 0-.54-.192-.54-.576V6.7l-.216-.342.342-.324.45.072.234-.036.342.09h.378V5.8l-.234-.504.234-.126-.09-.27.018-.558-.144-.234c-.084-.132-.126-.252-.126-.36 0-.132.03-.24.09-.324l.054-.252.144-.144c.324-.06.54-.09.648-.09.384 0 .594.174.63.522l-.054.09c.072.108.108.21.108.306 0 .012-.006.042-.018.09l-.036.108-.018.126.072.234-.018.09.036.252-.162.216.09.36-.072.432.144.162-.144.324.558-.072.99.09.792-.126.27.018.09-.018h.702c.372 0 .558.132.558.396zm6.744 4.986c0 .144-.108.324-.324.54-.06.192-.15.348-.27.468l-.108.018-.198.342-.324.054-.342.216-.18.324-.198-.036c-.132.06-.24.096-.324.108l-.108.162c-.036-.012-.09-.018-.162-.018-.156 0-.306.108-.45.324l-.252-.216c-.048.012-.12.018-.216.018-.156 0-.288-.024-.396-.072h-.306l-.144-.09c-.456-.072-.744-.246-.864-.522v-.054l-.216-.108-.108-.306-.216-.144v-.27l-.216-.792.036-.648.072-.288v-.378l.09-.288-.018-.126.126-.216-.036.036c0-.108.03-.222.09-.342v-.09l-.054-.432c0-.204.09-.384.27-.54.012-.024.018-.06.018-.108s-.02-.147-.063-.297c-.04-.15-.062-.255-.062-.315 0-.144.036-.294.108-.45.096.144.234.216.414.216h.054c.024-.048.078-.102.162-.162.096-.3.228-.552.396-.756l.072-.072c0-.048.036-.186.108-.414h.144l.036-.09.144-.036c.06-.096.1-.153.117-.17.018-.02.147-.094.387-.226.048-.084.12-.162.216-.234.048-.024.108-.048.18-.072l.072-.108c.324-.108.528-.162.612-.162.096 0 .186.024.27.072l.09-.018.126.072c.144.108.288.198.432.27l.306.234v.072c.276.216.414.522.414.918l-.054.18.054.594-.162.108-.18.468-.342.378-.018.288c-.384.276-.738.498-1.062.666-.108.168-.276.252-.504.252h-.054l-.342.216h-.288l-.432.18-.324-.162h-.036c-.024.096-.048.24-.072.432l-.144.108-.018.216-.108.306c.036.288.054.474.054.558l-.072.054c0 .156-.006.27-.018.342 0 .012-.006.03-.018.054v.054c0 .096.048.174.144.234.036.144.096.234.18.27l.126.108.396.108v.054l.144.036.612.036.36-.054.18-.126.108-.036.18-.27.09-.018.45-.144c.048-.084.126-.156.234-.216l.054-.09c.24-.048.378-.174.414-.378.168-.168.384-.252.648-.252h.072c.228.264.342.48.342.648zM75.87 6.34c0-.036-.018-.108-.054-.216l-.09-.018-.036.018h-.072c-.024.012-.048.018-.072.018-.012 0-.03-.006-.054-.018h-.054l-.18.126-.162.018-.09.036-.306.396-.198.144-.288.504-.162.108c-.036.204-.12.378-.252.522l-.072.126c.132-.084.282-.126.45-.126l.126-.054.054-.162.252.018.144-.216h.108l.198.072.09-.27h.126v-.198l.234-.054.054-.054.036-.162.234-.342c.024-.06.036-.132.036-.216zm15.252-.63l-.18.234.144.432-.234.27-.09.378-.054.09.036.09c0 .168-.042.294-.126.378l-.036.054v.072c.036.084.054.162.054.234 0 .06-.006.102-.018.126l.018.072-.072.198.054.216-.144.144.054.252.108.126-.162.144v.288l-.126.288.09.288-.108.144.18.126-.252.414-.018.054.18.036-.126.414v.072c0 .084-.006.15-.018.198l.018.054.288.036.234.36-.126.27.198-.018c.072.144.114.27.126.378l-.27.27c-.084.084-.204.168-.36.252l-.306.162-.09-.09-.18.108-.558-.648v-.306c-.072-.24-.108-.462-.108-.666v-.108l-.108-1.062.144-.756-.108-.432-.306.504-.162.468-.144.072-.252.396-.45.414-.126.216-.396.342-.09.234-.576.36-.612.684-.342.072-.234.18c-.3-.012-.528-.126-.684-.342-.54-.264-.822-.642-.846-1.134l.09-.054-.018-.108-.018-.216-.108-.234.108-.252.036-.378.126-.594v-.072c-.012-.024-.018-.048-.018-.072 0-.048.012-.108.036-.18-.012-.024-.018-.072-.018-.144 0-.084.036-.222.108-.414l.126-.054c-.072-.06-.108-.126-.108-.198 0-.048.006-.084.018-.108-.012-.036-.018-.078-.018-.126 0-.144.072-.252.216-.324.036-.12.102-.24.198-.36l-.09-.144.216-.27v-.072c0-.228.078-.438.234-.63l-.018-.324.072-.072v-.054c-.012-.024-.018-.042-.018-.054 0-.072.024-.132.072-.18v-.108c.048-.12.174-.3.378-.54.204-.24.354-.45.45-.63l.09.09.198-.09.09-.036.594-.27 1.386.072v.126l.432.09c.276 0 .456.09.54.27 0-.036.006-.078.018-.126V4.9l.378.342.342.072.648-.162.234.45.27.108zm-1.71.936l-.072-.126-.144-.036-.558-.45-.36-.054h-.288l-.036-.036-.144.054-.162-.09h-.468l.054.072-.414.144-.072.09-.054.018c-.216.18-.366.33-.45.45l-.126.432-.072.162.18.252-.306.234.036.072c-.132.228-.198.45-.198.666l-.144.18v.324l-.144.162-.036.162-.054.036v.252l-.054.09c0 .144-.012.258-.036.342l.036.09-.162.342.072.108-.126.18.126.342-.198.252.036.342v.054l.072.036.09-.018c.06-.06.12-.114.18-.162l-.036-.144.252-.036.054-.126 1.062-.864.108-.036.126-.306c.072-.024.174-.072.306-.144l.108-.288h.144l-.054-.306.252-.036c.024-.048.063-.108.117-.18.054-.072.11-.138.17-.198l.92-1.224.143-.27-.018-.072.126-.198.036-.198.162-.144.018-.198zm12.084 2.646l.33-.37c-.063.067-.13.143-.207.227l-.016.016v.036l.036-.126.234-.27.162-.306v-.18l.27-.09.036-.234.072-.072.018-.09v-.126l.252-.252v-.09c-.012-.036-.018-.06-.018-.072 0-.216.12-.336.36-.36.108-.216.27-.342.486-.378l.108-.162.036-.036c.108-.156.27-.264.486-.324l.162-.198h.432l.216.252.198.108.018.054.126.036.036.378.306.18-.126.396.198.432v.504l.144.684.036.648.162.378.108.468c.072.072.126.174.162.306l.324.09v.36l.18.198v.054l.072.018.072.108.072-.09c-.024 0 .006.006.09.018.132 0 .27-.12.414-.36l.216-.054.054-.09c.036-.096.108-.168.216-.216l.126.018.072-.072.018-.09.054-.072c.12-.084.198-.21.234-.378l.198-.216.036-.162.126-.288.342-.126.486.162.162.522c0 .012.006.024.018.036v.054c0 .096-.078.222-.234.378l-.198.306-.072.36-.162.054-.036.108c-.192.06-.33.21-.414.45-.132.168-.276.288-.432.36-.06.06-.114.102-.162.126l-.09.162-.162.036-.468.252-.612.072-.162-.036-.27.054-.108-.126c-.168-.084-.288-.168-.36-.252-.144-.036-.252-.15-.324-.342-.204-.24-.306-.432-.306-.576v-.054l-.126-.216-.036-.036-.108-.324-.162-.342.036-.414-.18-.234-.27-1.548c-.036-.204-.054-.378-.054-.522l-.036-.09-.09-.126-.162.216-.648.684-.234.378-.126.252-.198.288-.144.144.018.09-.252.558-.144.18-.18.036-.162.162c0 .24-.114.396-.342.468l-.036.036c-.108.264-.228.426-.36.486l-.162.252c-.264.24-.438.39-.522.45-.036.12-.102.222-.198.306-.024.036-.066.084-.126.144-.036.204-.204.348-.504.432l-.198.054c-.24-.012-.438-.15-.594-.414l-.27-.45.09-.432-.036-.234.036-.036.018-.234-.198-.432.144-.216-.072-.234.126-.252.036-.414-.072-.072.144-.252-.054-.126-.018-.288.072-.54c-.024-.12-.036-.198-.036-.234 0-.024.006-.048.018-.072v-.072l-.09-.144.054-.576-.018-.198.054-.288-.072-.486.324-.54c.372.06.63.14.774.243.144.102.216.285.216.55v.16l.126.217-.054.378.072.72-.126.342.054.378v.306l-.144.198.108.324-.108.198-.018.198.108.198-.144.378-.054.162v.162l.09.18.306-.306c0-.18.06-.3.18-.36.012-.12.06-.21.144-.27l-.054-.054.234-.216.054-.072v-.162l.288-.216.072-.18.162-.108zm14.952 2.232c0 .144-.108.324-.324.54-.06.192-.15.348-.27.468l-.108.018-.198.342-.324.054-.342.216-.18.324-.198-.036c-.132.06-.24.096-.324.108l-.108.162c-.036-.012-.09-.018-.162-.018-.156 0-.306.108-.45.324l-.252-.216c-.048.012-.12.018-.216.018-.156 0-.288-.024-.396-.072h-.306l-.144-.09c-.456-.072-.744-.246-.864-.522v-.054l-.216-.108-.108-.306-.216-.144v-.27l-.216-.792.036-.648.072-.288v-.378l.09-.288-.018-.126.126-.216-.036.036c0-.108.03-.222.09-.342v-.09l-.054-.432c0-.204.09-.384.27-.54.012-.024.018-.06.018-.108s-.02-.147-.063-.297c-.042-.15-.063-.255-.063-.315 0-.144.036-.294.108-.45.096.144.234.216.414.216h.054c.024-.048.078-.102.162-.162.096-.3.228-.552.396-.756l.072-.072c0-.048.036-.186.108-.414h.144l.036-.09.144-.036c.06-.096.1-.153.117-.17.017-.02.146-.094.386-.226.048-.084.12-.162.216-.234.048-.024.108-.048.18-.072l.072-.108c.324-.108.528-.162.612-.162.096 0 .186.024.27.072l.09-.018.126.072c.144.108.288.198.432.27l.306.234v.072c.276.216.414.522.414.918l-.054.18.054.594-.162.108-.18.468-.342.378-.018.288c-.384.276-.738.498-1.062.666-.108.168-.276.252-.504.252h-.054l-.342.216h-.288l-.432.18-.324-.162h-.036c-.024.096-.048.24-.072.432l-.144.108-.018.216-.108.306c.036.288.054.474.054.558l-.072.054c0 .156-.006.27-.018.342 0 .012-.006.03-.018.054v.054c0 .096.048.174.144.234.036.144.096.234.18.27l.126.108.396.108v.054l.144.036.612.036.36-.054.18-.126.108-.036.18-.27.09-.018.45-.144c.048-.084.126-.156.234-.216l.054-.09c.24-.048.378-.174.414-.378.168-.168.384-.252.648-.252h.072c.228.264.342.48.342.648zm-1.782-5.184c0-.036-.018-.108-.054-.216l-.09-.018-.036.018h-.072c-.024.012-.048.018-.072.018-.012 0-.03-.006-.054-.018h-.054l-.18.126-.162.018-.09.036-.306.396-.198.144-.288.504-.162.108c-.036.204-.12.378-.252.522l-.072.126c.132-.084.282-.126.45-.126l.126-.054.054-.162.252.018.144-.216h.108l.198.072.09-.27h.126v-.198l.234-.054.054-.054.036-.162.234-.342c.024-.06.036-.132.036-.216zm14.61-.612l-.09.342.036.18-.216.702-.036.252-.252.27-.09.342-.198.288-.288.63-.342.576-.522.774-.09.234-.27.486-.306.63-.54.972-.108.432-.288.414-.54-.18-.306-.18-.288-.846-.36-.612v-.18l-.216-.504-.09-.108-.756-1.584-.234-.378-.198.306-.288.234-.414.576-.288.306-.162.468-.396.486-.036.162-.27.558v.27l-.18.252-.018.252-.18.054-.396.414.072-.036c-.12.072-.282.12-.486.144l-.126-.144-.27-.108v-.198l-.108-.144-.108-.486-.144-.324v-.234l-.018-.072-.27-.774-.072-.486-.18-.198.036-.234-.18-.432V9.13l-.144-.396-.252-.342.036-.396-.018-.126-.198-.468-.036-.288-.108-.18c-.072-.12-.126-.24-.162-.36l-.306-.774.252-.324c.072-.132.222-.216.45-.252l.378-.054.126.18.234.108.162.324.144.126-.054.288.072.18-.054.162.18.288-.036.27.234.81-.036.198.108.486.252.576.108.684.18.216v.432l.126.378.018.144.252-.162.414-.666.126-.306.144-.252c0-.12.024-.21.072-.27h.108l.054-.324.198-.036c.024-.096.078-.168.162-.216v-.036c0-.072.036-.144.108-.216l-.036-.126.09-.036-.018-.108c.108-.192.228-.336.36-.432v-.36l.252-.144.072-.054.036-.036c-.06-.12-.09-.252-.09-.396 0-.216.096-.426.288-.63.108-.048.24-.072.396-.072.096 0 .168.006.216.018l.342.306.18.27.108.432.162.288-.036.198.126.396v.162l.306.54v.054l.072.054.36.864.018.234.18.198.414.936.09-.162.324-.666.198-.162.144-.378.18-.09v-.27c.072-.06.168-.12.288-.18.072-.036.108-.066.108-.09l-.018-.378.216-.216.09-.054.27-.45v-.054c.024-.132.102-.282.234-.45l-.036-.198.324-.396.162-.396c-.132-.36-.198-.666-.198-.918 0-.372.192-.582.576-.63l.486.144.072-.108.126.162.18.126-.054.198.216.252zm9.09 7.442l-.588.046-.054-.018-.144-.018-.234.126c-.072-.048-.204-.102-.396-.162-.264-.024-.438-.036-.522-.036h-.144c-.084-.012-.174-.018-.27-.018-.096 0-.192.024-.288.072l-.252-.162-.144-.036c-.036 0-.102-.018-.198-.054-.444-.048-.666-.42-.666-1.116v-.162l.342-.252.432-.162.324.162h.252v.054c.12.048.216.144.288.288l.144.018v.234l.234.054.054.036 2.304-.144.558-.09h.054l.036-.09.252-.036.036-.054c.252-.036.486-.108.702-.216l.018-.09c-.012-.012-.036-.054-.072-.126l-.09.018-.234-.18h-.162l-.09-.126.054-.072-.198.036-.144-.162c-.036.012-.096.018-.18.018-.156 0-.312-.03-.468-.09h-.162l-.126-.054-.252.09-.144-.162h-.054l-.252-.198-.558-.216-.18-.144-.684-.126-.072-.126-.504-.324-.27-.594-.216-.306-.072-.936.072-.108c.024-.276.12-.516.288-.72.18-.096.27-.234.27-.414l.27-.054c.048-.096.144-.186.288-.27l.27-.216 1.134-.432.198-.054.36-.036.594-.162 1.134.072.036.09c.108.036.228.132.36.288v.09l.288.18-.126.432-.036.162c-.072.3-.24.45-.504.45-.216 0-.378-.102-.486-.306v-.054l-.216-.018-.252.072-.234-.162-.126.09c-.156 0-.3.048-.432.144-.18 0-.354.072-.522.216h-.234l-.162.126-.252.054-.036.036-.108.054-.162.162-.054.018-.162.252-.198.108c-.048.156-.078.288-.09.396.012.168.033.28.063.333.03.054.11.11.242.17v.09l.234.127c.192.072.336.15.432.234h.36l.234.198.414.054.162.108.702.198.09.198.072-.126c.156 0 .366.072.63.216l.324.054.036.126h.288l.504.288c.06.156.192.3.396.432l.198.126-.054.216c.084.12.126.246.126.378v.054l-.216.252-.198.468-.144.108-.126.252-.36.036-.234.234h-.36l-.216.18-.198-.054-.234.054v.144l-.666-.054-.288.018-.216.108-.167-.1zm11.7-4.382l-.108.324c0 .312-.018.558-.054.738l-.108.18v.198l-.09.126-.054.252-.198.198-.126.45-.144.054-.072.198-.216.126-.144.306-.216.108-.018.216-.342.126c-.156.216-.348.354-.576.414l-.072.018c-.168.252-.39.378-.666.378-.12.072-.258.108-.414.108l-.18.126-.18.054-.234.18-.234-.018-.252.072-.306-.126-.774-.054-.27-.414-.396-.414.09-.288-.27-.612.126-.234-.09-.432.09-.27c-.024-.168-.036-.288-.036-.36 0-.228.06-.396.18-.504.012-.12.09-.318.234-.594h.09L144 9.292l.054-.252v-.27c.096-.108.15-.18.162-.216l-.054-.252V8.23c.084-.168.126-.342.126-.522l.378-.522.045-.036c.03-.024.058-.048.082-.072l-.018-.072h.072l.27-.306.018-.414.45-.162c.168-.108.276-.288.324-.54h.234c.132-.072.252-.108.36-.108.108 0 .21.024.306.072l.198.018.468-.18.252.234.198.126h.144l.27.144h.144c.156.144.336.342.54.594l.036.09.126.072.378.486.342.846v.18l.162.63zm-1.188.432l-.018-.09c-.084-.084-.132-.174-.144-.27l.054-.09-.162-.342.036-.342-.072-.09c-.156-.12-.24-.216-.252-.288-.108-.048-.162-.168-.162-.36l-.108-.018-.216-.36-.162-.126-.378-.144-.144-.036c-.072 0-.12-.024-.144-.072l-.36.396-.234.504-.378.198-.054.198-.18.09-.072.468-.216.108c-.048.168-.072.324-.072.468l-.288.27.09.054c0 .144-.054.27-.162.378-.036.108-.084.228-.144.36v.144l-.054.072.018.216-.198.486.036.09v.504l-.072.252.018.252.162.234.252.09.09.036.144-.072.468.036.072-.18h.072c.072 0 .114.018.126.054l.162-.054.144.054.234-.162.036-.054.162-.036c.084-.132.282-.264.594-.396l.036-.09.36-.252.198-.288.288-.144.018-.09.09-.198v-.234l.216-.18.072-.126.09-.108c-.048-.144-.072-.246-.072-.306 0-.108.036-.222.108-.342l.072-.072zm12.882 2.736c0 .144-.108.318-.324.522l-.144.054-.126.162-.324.09c-.06.084-.12.126-.18.126-.012 0-.024-.006-.036-.018h-.054c-.264.132-.582.198-.954.198h-.144l-.45-.09-.306-.144-.684-.576-.144-.486-.288-.234c.036-.048.054-.126.054-.234 0-.072-.048-.192-.144-.36l.054-.432v-.072c0-.144-.042-.33-.126-.558l.108-.54-.234.468-.27.036-.036.378c-.096.048-.21.072-.342.072l-.198.432-.234.27c-.096.108-.18.168-.252.18l-.054.036-.648.666h-.072l-.342.396-.324.162-.18.234-.414.126-.594.234-.36-.18c-.24 0-.408-.108-.504-.324l-.162-.09c0-.036.006-.084.018-.144v-.126l-.288-.252.072-.108-.216-.504.072-.072-.036-.036v-.108c-.012-.036-.018-.066-.018-.09 0-.132.018-.258.054-.378l.018-.468-.072-.378c.06-.096.09-.18.09-.252 0-.084-.036-.162-.108-.234l.198-.144V8.95l-.072-.594.198-1.152c0-.192-.054-.474-.162-.846.036-.384.288-.594.756-.63l.144.054.252.036.324.36-.108.468-.036.774.054.594-.108.216.054.144-.09.288v.18l-.036.054c.012.036.018.09.018.162 0 .156-.024.318-.072.486l.09.126-.072.27.036.216v.252c.06.072.09.162.09.27 0 .096-.024.192-.072.288v.072c.06.204.09.336.09.396l.162.162c.072-.048.156-.108.252-.18.036-.12.12-.198.252-.234v-.18c.072 0 .186-.018.342-.054l.036-.162.306-.126.054-.054c.084-.084.222-.162.414-.234V10.3l.342-.252c.084-.228.234-.378.45-.45.132-.132.222-.21.27-.234l.234-.306v-.054l.072-.036.162-.072.09-.252.378-.162.072-.018.126-.126v-.162l.108-.036c.036-.192.132-.336.288-.432l.27-.612.09-.324.036-.072h.072l.126-.09-.108-.036c.132-.216.234-.444.306-.684l.522-.018.414.342.18.288-.198.774-.27.36-.216.702-.18.108v.27l-.108.198.054.324-.144.126.072.576.036.81h.09v.468l.252.306.234.126.018.09c.084.012.186.042.306.09l.45.036.27-.072.486-.234c.096-.048.216-.072.36-.072.36 0 .54.156.54.468zm8.22-5.652l-.144.594-.666.09-.36.234-.234-.108-.252.144-.27.108-.18.126v.072l-.378.18-.252.324h-.126c-.192.204-.33.33-.414.378l-.252.414-.09.036c-.036.096-.078.24-.126.432l-.252.09-.108.216-.144.18-.036.27-.144.054v.27l-.054.054c.036.06.078.126.126.198l-.27.108-.036.234-.18.306.108.234-.234.324c.024.12.036.204.036.252v.072c-.012.036-.018.066-.018.09l.036.162.306.324-.234.414-.216.162-.504.252-.666-.27v-.414l-.072-.162.054-.27c-.024-.192-.036-.336-.036-.432 0-.036.006-.084.018-.144v-.126l-.018-.18c-.084-.084-.126-.18-.126-.288 0-.096.042-.204.126-.324 0-.06-.012-.24-.036-.54l.054-.054-.054-.234.036-.216-.036-.126.054-.414-.108-.18.072-.198-.072-.234c.012-.072.018-.168.018-.288 0-.18-.024-.3-.072-.36l.072-.108-.072-.324-.162-.234.09-.288-.072-.108-.072-.432v-.144c-.06-.072-.09-.162-.09-.27 0-.24.264-.444.792-.612l.45.09.09.342.18.234-.054.486c.036.24.078.504.126.792l.054.288c.012.024.024.09.036.198 0 .072-.03.15-.09.234l.054.36-.036.396-.072.18.054.072.036.18c.072-.084.114-.174.126-.27l.072-.27c.036-.072.09-.126.162-.162l.072-.27.252-.144.036-.216.198-.216.144-.27c.156-.168.306-.276.45-.324l.036-.054.162-.252.18-.036.054-.054.072-.108.198-.108.108-.126.108.018.144-.072.072-.108.216-.108.306-.198.432-.144c.168-.024.258-.036.27-.036v.018c-.012 0-.018.006-.018.018h.018c.048 0 .12-.024.216-.072.06-.048.144-.072.252-.072.048 0 .132.012.252.036.312.012.486.156.522.432zm7.176 3.888l-.342.324-.018.108c-.036.216-.138.39-.306.522-.288.54-.69.936-1.206 1.188l-.27.216-.234.036-.288.216-.198.018-.45.288-.288-.036-.324.144-.252-.072-.126.108-.342-.054-.342.054-.126-.108-.36-.072-.522-.396-.288-.36c-.18-.228-.27-.42-.27-.576v-.054l-.18-.27v-.234c-.036-.144-.054-.276-.054-.396v-.126l-.09-.306.09-.216-.072-.144.216-.342-.054-.288.144-.468.072-.108.072-.432-.036-.072.216-.234.036-.18.144-.414.234-.504.324-.288.072-.162.108-.198.036-.18.288-.342c.072-.024.156-.048.252-.072.048-.228.348-.36.9-.396.468.096.768.222.9.378.132.024.234.078.306.162l.378.018.252.324c.06.12.102.24.126.36l.144.144-.054.27c.012.084.018.216.018.396l.09.072v.27l.072.558c-.252.252-.54.396-.864.432-.168-.312-.378-.546-.63-.702l-.036-.594-.108-.198V7.06l-.18-.216-.09-.072-.162.054h-.234c-.156.036-.306.15-.45.342-.144.192-.288.396-.432.612l-.018.18-.108.09v.324l-.234.252-.288.792.018.216-.144.324.054.396-.108.054-.036.504.018.09.216.216.09.378.252.072.018.144.306.054.234.054c.084-.048.186-.072.306-.072h.126c.144-.06.276-.09.396-.09.084-.036.192-.072.324-.108.144-.192.348-.288.612-.288h.108c.06 0 .102-.03.126-.09.132-.204.342-.336.63-.396.336-.3.528-.54.576-.72.168-.096.276-.246.324-.45l.108-.072.054-.414c.552.084.828.36.828.828v.144zm7.05 1.332c0 .144-.108.324-.324.54-.06.192-.15.348-.27.468l-.108.018-.198.342-.324.054-.342.216-.18.324-.198-.036c-.132.06-.24.096-.324.108l-.108.162c-.036-.012-.09-.018-.162-.018-.156 0-.306.108-.45.324l-.252-.216c-.048.012-.12.018-.216.018-.156 0-.288-.024-.396-.072h-.306l-.144-.09c-.456-.072-.744-.246-.864-.522v-.054l-.216-.108-.108-.306-.216-.144v-.27l-.216-.792.036-.648.072-.288v-.378l.09-.288-.018-.126.126-.216-.036.036c0-.108.03-.222.09-.342v-.09l-.054-.432c0-.204.09-.384.27-.54.012-.024.018-.06.018-.108s-.02-.147-.063-.297c-.042-.15-.063-.255-.063-.315 0-.144.036-.294.108-.45.096.144.234.216.414.216h.054c.024-.048.078-.102.162-.162.096-.3.228-.552.396-.756l.072-.072c0-.048.036-.186.108-.414h.144l.036-.09.144-.036c.06-.096.1-.153.117-.17.018-.02.147-.094.387-.226.048-.084.12-.162.216-.234.048-.024.108-.048.18-.072l.072-.108c.324-.108.528-.162.612-.162.096 0 .186.024.27.072l.09-.018.126.072c.144.108.288.198.432.27l.306.234v.072c.276.216.414.522.414.918l-.054.18.054.594-.162.108-.18.468-.342.378-.018.288c-.384.276-.738.498-1.062.666-.108.168-.276.252-.504.252h-.054l-.342.216h-.288l-.432.18-.324-.162h-.036c-.024.096-.048.24-.072.432l-.144.108-.018.216-.108.306c.036.288.054.474.054.558l-.072.054c0 .156-.006.27-.018.342 0 .012-.006.03-.018.054v.054c0 .096.048.174.144.234.036.144.096.234.18.27l.126.108.396.108v.054l.144.036.612.036.36-.054.18-.126.108-.036.18-.27.09-.018.45-.144c.048-.084.126-.156.234-.216l.054-.09c.24-.048.378-.174.414-.378.168-.168.384-.252.648-.252h.072c.228.264.342.48.342.648zm-1.782-5.184c0-.036-.018-.108-.054-.216l-.09-.018-.036.018h-.072c-.024.012-.048.018-.072.018-.012 0-.03-.006-.054-.018h-.054l-.18.126-.162.018-.09.036-.306.396-.198.144-.288.504-.162.108c-.036.204-.12.378-.252.522l-.072.126c.132-.084.282-.126.45-.126l.126-.054.054-.162.252.018.144-.216h.108l.198.072.09-.27h.126v-.198l.234-.054.054-.054.036-.162.234-.342c.024-.06.036-.132.036-.216zm5.916 5.904l-.27.414-.252.126-.108.144-.27.234-.108.144-.324.198-.612.612-.324.144c-.084.168-.198.306-.342.414l-.072.054-.126.234-.252.234c-.204.06-.354.09-.45.09-.036 0-.126-.012-.27-.036-.012-.048-.018-.12-.018-.216 0-.108.024-.24.072-.396l.054-.18.054-.072c.036-.192.156-.336.36-.432l.018-.054.18-.252.072-.252.09-.126.198-.09.036-.072c.012-.072.06-.132.144-.18l.108-.072v-.18l.162-.036c0-.132.036-.27.108-.414l.18-.144c0-.036.012-.09.036-.162 0-.024.006-.054.018-.09v-.09l.108-.144c.168-.216.39-.324.666-.324.192 0 .414.054.666.162l.054.072.342.09.072.648zM7.785 32.192l-.342.324-.018.108c-.036.216-.138.39-.306.522-.29.54-.69.936-1.207 1.188l-.27.216-.234.036-.29.216-.197.018-.45.288-.288-.036-.324.144-.25-.072-.127.108-.342-.054-.34.054-.127-.108-.36-.072-.522-.396-.287-.36c-.18-.228-.27-.42-.27-.576v-.054l-.18-.27v-.234c-.036-.144-.054-.276-.054-.396v-.126l-.09-.306.09-.216-.073-.144.216-.342-.054-.288.143-.468.072-.108.072-.432-.036-.072.217-.234.036-.18.144-.414.234-.504.325-.288.072-.162.108-.198.036-.18.29-.342c.07-.024.155-.048.25-.072.05-.228.35-.36.9-.396.47.096.77.222.9.378.133.024.235.078.307.162l.378.018.252.324c.06.12.102.24.126.36l.144.144-.054.27c.012.084.018.216.018.396l.09.072v.27l.073.558c-.252.252-.54.396-.864.432-.17-.312-.38-.546-.63-.702l-.037-.594-.108-.198v-.144l-.18-.216-.09-.072-.162.054H3.88c-.157.036-.307.15-.45.342-.145.192-.29.396-.433.612l-.018.18-.11.09v.324l-.233.252-.288.792.017.216-.144.324.054.396-.108.054-.037.504.018.09.217.216.09.378.252.072.017.144.306.054.234.054c.084-.048.186-.072.306-.072H3.7c.143-.06.275-.09.395-.09.084-.036.192-.072.324-.108.143-.192.347-.288.61-.288h.11c.06 0 .1-.03.125-.09.132-.204.342-.336.63-.396.336-.3.528-.54.576-.72.17-.096.277-.246.325-.45l.108-.072.054-.414c.552.084.828.36.828.828v.144zm6.384.846c0 .132-.05.24-.145.324-.096.144-.252.294-.468.45l-.18.126-.162.216-.162.072-.252.162-.18.018-.07.072c-.24.072-.427.192-.56.36-.083.06-.16.09-.233.09-.048 0-.09-.006-.126-.018-.203.12-.467.18-.79.18-.277 0-.457-.024-.54-.072l-.325-.18-.108-.18v-.054c0-.156-.066-.282-.198-.378l-.073-.36-.144-.162-.09-.666-.018-.396.018-.288.036-.108c-.037-.072-.055-.15-.055-.234.06-.504.09-.822.09-.954l-.162-.324.162-.27.054-.45-.037-.306.108-.27-.107-.36.162-.252.018-.162v-.63l.054-.126-.018-.756.053-.774-.072-.144-.017-.54.054-.486-.054-.18.108-1.08c.505-.12.727-.18.667-.18.192 0 .348.102.468.306l.036.144.27.27-.143.378.036.072c-.024.228-.054.378-.09.45l.036.378.09.342-.127.378c0 .204-.03.39-.09.558 0 .06-.012.156-.036.288l-.018.108.16.198-.07.198c.023.096.035.162.035.198 0 .072-.024.168-.072.288l.036.162-.11.576v.378l-.125.378.072.342-.072.792.054.09-.09.414-.037.504c-.024.072-.036.114-.036.126 0 .204-.006.372-.018.504l.09.252-.037.27.108.234-.017.09c.072.06.138.156.198.288h.163l.234.072.108-.144.162-.018c.072-.024.126-.036.162-.036h.053c.12-.024.216-.084.288-.18l.11-.054c.083-.132.22-.222.413-.27.06-.048.174-.144.342-.288 0-.168.102-.294.306-.378.18 0 .3-.03.36-.09.24.036.394.1.46.19s.1.26.1.512zm4.26-10.206c0 .144-.097.276-.29.396v.036c-.227.276-.425.432-.593.468l-.27.324-.18.234-.414.108-.18.252-.288.144-.468.414-.288-.27.053-.45.198-.324c.013-.168.11-.312.29-.432v-.072l.107-.072.018-.27.288-.072v-.162l.216-.036c.047-.24.15-.414.305-.522l.054-.036.107-.108.144-.432c.793.192 1.19.486 1.19.882zm1.835 9.54c0 .276-.048.45-.144.522l-.09.072-.09.252-.287.09c-.084.192-.21.342-.378.45l-.162.054-.234.252-.217.054c-.084.216-.258.33-.522.342-.023.036-.077.108-.16.216-.18.12-.367.192-.56.216l-.09.018-.125.162h-.36l-.288.216-.738-.54-.343-.702-.018-.882-.073-.216.216-1.584.072-.072c-.036-.18-.054-.354-.054-.522 0-.108.037-.33.11-.666l.09-.414c-.025-.072-.073-.15-.145-.234l.108-.342.036-.414.035-.054c-.048-.108-.078-.228-.09-.36.012-.024.024-.057.036-.1.013-.04.02-.074.02-.098-.037-.108-.055-.21-.055-.306 0-.288.162-.42.486-.396l.217.018c.144-.072.234-.108.27-.108.24 0 .402.132.486.396v.072c.048.144.072.282.072.414 0 .108-.012.186-.036.234l-.127.9.126.252c0 .216-.073.408-.217.576l.072.216-.234.684c-.023.3-.053.528-.09.684v.45l-.107.252.018.18-.035.414.036.324.27.216.217-.036.036-.054.144.018.234-.072.2-.198.07-.108.127-.018.036-.09.054-.072.108.072.18-.18.108.018.036-.126h.035l.054-.144.16-.072.343-.162c.276-.192.546-.288.81-.288h.072c.132.084.222.192.27.324zm7.968-.18l-.342.324-.017.108c-.036.216-.138.39-.306.522-.288.54-.69.936-1.206 1.188l-.27.216-.233.036-.288.216-.2.018-.45.288-.287-.036-.324.144-.253-.072-.126.108-.34-.054-.343.054-.126-.108-.36-.072-.52-.396-.29-.36c-.18-.228-.27-.42-.27-.576v-.054l-.18-.27v-.234c-.035-.144-.053-.276-.053-.396v-.126l-.09-.306.09-.216-.072-.144.216-.342-.053-.288.144-.468.073-.108.072-.432-.036-.072.215-.234.036-.18.145-.414.234-.504.323-.288.072-.162.108-.198.036-.18.287-.342c.072-.024.156-.048.252-.072.047-.228.347-.36.9-.396.467.096.767.222.9.378.13.024.233.078.305.162l.378.018.252.324c.06.12.102.24.126.36l.145.144-.054.27c.013.084.02.216.02.396l.09.072v.27l.07.558c-.25.252-.54.396-.863.432-.168-.312-.378-.546-.63-.702l-.036-.594-.107-.198v-.144l-.18-.216-.09-.072-.162.054h-.233c-.156.036-.306.15-.45.342-.144.192-.288.396-.432.612l-.018.18-.108.09v.324l-.235.252-.288.792.018.216-.144.324.055.396-.108.054-.036.504.02.09.215.216.09.378.252.072.018.144.306.054.235.054c.084-.048.186-.072.306-.072h.127c.144-.06.276-.09.396-.09.084-.036.192-.072.324-.108.144-.192.348-.288.612-.288h.107c.06 0 .102-.03.126-.09.132-.204.342-.336.63-.396.336-.3.528-.54.576-.72.167-.096.275-.246.323-.45l.108-.072.055-.414c.552.084.828.36.828.828v.144zm11.964 1.476l-.108.198c0 .348-.12.618-.36.81 0 .12-.043.216-.127.288l-.09.198-.234.162-.11.198-.72.378-.34.09-.523.036-.288-.126-.235.018-.234-.162-.18-.018-.72-.378-.647-.54c-.192-.168-.48-.408-.864-.72l-.397-.54-.324-.27-.055-.126-.162-.198c-.156-.192-.342-.396-.558-.612l-.306-.108-.343-.684.054-.27c.073-.384.265-.6.577-.648l.342.108.287.288.306.198h.288l.073.054c.096 0 .174.006.234.018.12-.06.33-.126.63-.198l.162-.036.107-.234h.432c.13-.108.27-.168.413-.18h.036c.035-.084.083-.186.143-.306l.342-.162.144-.144.27-.45h.125c.048-.12.096-.288.144-.504l.16-.108-.125-.072.072-.306c-.024-.048-.09-.09-.198-.126l-.217.072-.072-.144-.18-.072-.053-.072c-.18-.024-.438-.048-.774-.072v-.072l-.108.072c-.096-.024-.168-.036-.216-.036-.157 0-.385.084-.685.252h-.252c-.456.156-.714.27-.774.342l-.397.126-.558.45-.522.522v.072l-.342.594-.107.342-.072.036v.072c-.035.072-.065.138-.09.198l-.107.054.036.054-.055.09c-.012.024-.018.054-.018.09 0 .06.024.114.072.162 0 .252-.06.414-.18.486-.025.048-.037.096-.037.144 0 .036.006.066.018.09 0 .204-.04.372-.125.504-.06.06-.096.102-.108.126l.054.27-.053.36.018.288c-.096.216-.144.39-.144.522.025.12.037.186.037.198 0 .132-.075.27-.225.414-.15.144-.29.216-.423.216-.17 0-.343-.102-.523-.306l-.198-.558.053-.324-.054-.702.053-.18v-.576l.036-.234v-.198c0-.24.01-.483.035-.73.024-.245.036-.374.036-.386v-.306l.02-.162v-.504l.053-.144-.054-.216.07-.594v-.63l-.07-.36.09-.144-.02-.072-.07-.972-.127-.594v-.162l.108-.612-.07-.234-.037-.432c-.024-.288-.036-.414-.036-.378 0-.42.33-.642.99-.666l.396-.216-.072.882.073.504-.126.522.036.576.09.324-.054.306.035.432-.054.36.09.378-.035.09.072.18-.09.504v.108l.09.342c-.06.024-.09.114-.09.27l-.054.432.036.162.215-.378.108-.414.252-.414c0-.12.042-.228.126-.324h.2l.143-.306.414-.198c.168-.168.36-.288.576-.36l.108-.09.29-.144.233-.054c.252-.216.798-.36 1.638-.432l1.405.108.288.162.144.018.306.324.018-.108c.157.072.27.186.343.342.06-.012.084-.018.072-.018.048 0 .096.018.144.054l.377.774-.018.09c.06.12.09.228.09.324 0 .168-.067.336-.2.504v.108l-.25.666-.38.522-.107.018-.216.288c-.132 0-.234-.036-.306-.108v.288l-.143.09-.108.198-.325.09c-.048.012-.102.066-.162.162-.828.324-1.29.486-1.386.486-.036 0-.105-.01-.207-.027-.102-.018-.19-.027-.26-.027-.05 0-.085.006-.11.018.013.036.08.168.2.396l.233.144.324.576.486.288.036.072.16.09.235.27.432.342.576.234.324.09.234-.018.127-.054c.24-.036.468-.132.684-.288l.307-.558.18-.216.108-.324c.18-.06.324-.09.432-.09.276 0 .456.156.54.468zm11.436-5.13c0 .108-.108.21-.324.306-.05.06-.14.114-.27.162-.17.072-.29.132-.36.18l-.38-.126c-.19.144-.437.216-.737.216l-.216-.054-.162.144H48.7l-.307.198c-.132-.048-.258-.072-.378-.072-.036.024-.12.048-.252.072-.06 0-.126-.018-.198-.054l-.054.684.02.504-.055.63.036.684.055.324v.252l.252.54c-.036.036-.054.078-.054.126 0 .084.132.15.396.198l.035.216.126.054.217.144.144.108c.12-.024.205-.036.253-.036.108 0 .216.018.324.054.048-.024.15-.108.306-.252.108-.096.21-.144.306-.144h.053c.024.012.042.018.054.018.108-.228.3-.378.576-.45.252 0 .462.078.63.234v.126c0 .408-.144.666-.432.774-.107.252-.335.414-.683.486l-.216.198h-.233l-.414.108c-.096.024-.234.036-.414.036-.097 0-.2-.024-.307-.072h-.234l-.63-.342-.163-.054-.378-.504-.217-.234-.396-.9-.144-.846.036-.216-.145-.198.09-.252-.09-.396.126-.126.037-.234-.054-.216.036-.324-.073-.288.09-.09v-.288l-.126-.054-.34.072-.325-.234h-.054c-.36 0-.54-.192-.54-.576V28.7l-.215-.342.342-.324.45.072.234-.036.343.09h.378v-.36l-.233-.504.234-.126-.09-.27.02-.558-.145-.234c-.084-.132-.126-.252-.126-.36 0-.132.03-.24.09-.324l.053-.252.144-.144c.324-.06.54-.09.648-.09.384 0 .594.174.63.522l-.054.09c.073.108.11.21.11.306 0 .012-.007.042-.02.09l-.035.108-.018.126.072.234-.02.09.037.252-.162.216.09.36-.072.432.144.162-.144.324.558-.072.99.09.793-.126.27.018.09-.018h.702c.372 0 .558.132.558.396zm8.706 6.282c0 .48-.26.72-.775.72-.252 0-.438-.102-.558-.306-.12-.168-.222-.486-.306-.954v-.252c.037-.06.055-.12.055-.18 0-.024-.006-.054-.018-.09l-.252-.378.18-.342-.072-.378.072-.216v-.234l.036-.216-.07-.324.07-.162v-.594l.02-.774-.127-.594.072-.216-.126-.45-.145.126-.396.162-.54.684-.217-.018-.324.522-.055.216-.198.09-.198.306-.09.198-.2.63-.323.396-.072.252-.18.144-.072.432-.36.324-.054.666h-.163l-.054.108-.324.558-.307.324-.27.36-.288-.09h-.234l-.215-.288-.198-.648-.036-.954-.053-.306.054-.36-.035-.846.144-.036.09-1.242.07-.234-.053-.378.09-.054.072-.576.07-.198-.07-.252.053-.09-.036-.054.054-.504-.143-.126.126-.252-.018-.522-.198-.522.144-.162-.125-.486v-.288l-.054-.126-.09-.576-.09-.27-.27-.522.2-.252.18-.306h.16c.265 0 .463.096.595.288l.252.198.108.324.27.234-.054.252.127.378-.018.036.035.036-.018.594.018.792.126.504-.09.216.037.306-.09.252.054.432-.09.36.037.072-.036 1.098.055.252-.108.126-.054.594-.072.27.073.486-.072.144-.017.36c.132-.036.198-.108.198-.216l.145-.144.126-.234.037-.342.198-.288.108-.36.27-.288.072-.342.18-.018v-.162l.018-.216.216-.126v-.144l.18-.036.035-.288-.018-.144.324-.144.09-.072-.035-.18.162-.054.126-.306h.216l.197-.126c0-.084.006-.144.018-.18l.198-.09c.216-.18.42-.288.612-.324v-.036c.312-.156.528-.234.648-.234.18 0 .342.084.486.252.13.048.215.138.25.27l.163.108.054.252.27.414v1.44l-.018.63.07.162v1.332l-.053.234v.36l.054.396-.07.342c.047.18.077.33.09.45l.197.198v.144l.072.054c.06.204.09.348.09.432zm7.93-1.296c0 .144-.107.324-.323.54-.06.192-.15.348-.27.468l-.108.018-.2.342-.323.054-.342.216-.18.324-.198-.036c-.132.06-.24.096-.324.108l-.108.162c-.036-.012-.09-.018-.162-.018-.156 0-.306.108-.45.324l-.252-.216c-.047.012-.12.018-.215.018-.156 0-.288-.024-.396-.072h-.307l-.144-.09c-.457-.072-.745-.246-.865-.522v-.054l-.216-.108-.11-.306-.215-.144v-.27l-.216-.792.035-.648.072-.288v-.378l.09-.288-.018-.126.125-.216-.036.036c0-.108.03-.222.09-.342v-.09l-.055-.432c0-.204.09-.384.27-.54.012-.024.018-.06.018-.108s-.02-.147-.063-.297c-.042-.15-.063-.255-.063-.315 0-.144.036-.294.108-.45.096.144.234.216.414.216h.053c.024-.048.078-.102.162-.162.096-.3.228-.552.396-.756l.073-.072c0-.048.036-.186.108-.414h.145l.036-.09.145-.036c.06-.096.1-.153.117-.17.018-.02.147-.094.387-.226.047-.084.12-.162.215-.234.048-.024.108-.048.18-.072l.072-.108c.324-.108.528-.162.612-.162.095 0 .185.024.27.072l.09-.018.125.072c.144.108.288.198.432.27l.306.234v.072c.276.216.414.522.414.918l-.054.18.054.594-.162.108-.18.468-.342.378-.018.288c-.384.276-.738.498-1.062.666-.108.168-.276.252-.504.252h-.055l-.342.216h-.288l-.432.18-.324-.162h-.037c-.024.096-.048.24-.072.432l-.143.108-.018.216-.11.306c.037.288.055.474.055.558l-.072.054c0 .156-.006.27-.018.342 0 .012-.006.03-.018.054v.054c0 .096.048.174.144.234.037.144.097.234.18.27l.127.108.396.108v.054l.144.036.612.036.36-.054.18-.126.107-.036.18-.27.09-.018.45-.144c.048-.084.126-.156.234-.216l.055-.09c.24-.048.378-.174.414-.378.167-.168.383-.252.647-.252h.072c.227.264.34.48.34.648zm-1.78-5.184c0-.036-.02-.108-.055-.216l-.09-.018-.036.018h-.073c-.024.012-.048.018-.072.018-.012 0-.03-.006-.054-.018h-.053l-.18.126-.162.018-.09.036-.306.396-.2.144-.287.504-.162.108c-.035.204-.12.378-.25.522l-.073.126c.132-.084.282-.126.45-.126l.126-.054.054-.162.252.018.143-.216h.108l.2.072.09-.27h.125v-.198l.234-.054.053-.054.036-.162.233-.342c.024-.06.036-.132.036-.216zm14.207-3.132l-.054.18c0 .228-.084.402-.252.522l-.107.216-.09.072.018.324-.18.108-.017.054c0 .06-.03.132-.09.216l.018.18-.107.108c0 .012.006.03.018.054v.072c0 .036-.01.114-.035.234-.024.024-.066.072-.126.144l.017.036.018.108-.18.324c-.108.252-.33.378-.666.378-.18 0-.367-.024-.56-.072l-.035-.036-.288-.09-.126-.216-.09-.288.235-.432.036-.288.127-.054.18-.162-.072-.072c.072-.024.126-.066.162-.126l.252-.216.233-.306.198-.288c.06-.048.15-.114.27-.198v-.054c.05-.156.145-.288.29-.396l.017-.252.252-.234c.13-.12.287-.18.467-.18.096 0 .168.006.216.018l.054.612zm-2.808 0l-.037.18c-.024.24-.114.414-.27.522v.198l-.054.108-.127.09.054.162-.216.162-.017.09c-.012.036-.042.09-.09.162l-.018.324-.108.18-.108.27-.037.234-.09.234c-.108.276-.33.414-.666.414-.18 0-.372-.024-.576-.072l-.035-.036-.36-.018-.072-.288-.09-.324.108-.324.09-.324.18-.09.253-.216.054-.162.252-.198.43-.612c.097-.06.18-.126.253-.198.012-.168.108-.312.288-.432l.037-.234.216-.252c.204-.108.426-.162.666-.162l.09.612zm16.103 5.04H89.35V35h-1.243v-4.752h-4.644v-1.224h4.644v-4.752h1.242v4.752h4.643v1.224zm9.444-4.59l-.126.306-.09.342-.18.09-.25.216-.055.144-.252.198-.216.324-.216.306-.25.18c-.013.18-.11.33-.29.45l-.035.234-.198.252c-.18.096-.408.144-.684.144l-.09-.594.036-.18.017-.036c0-.204.084-.366.252-.486l.017-.198.036-.108.126-.09-.055-.18.216-.144.037-.09c.036-.084.066-.138.09-.162v-.342l.108-.162.108-.27.054-.234.09-.234c.108-.276.33-.414.666-.414.18 0 .366.024.558.072l.055.036.36.018.054.288.107.324zm-2.826-.054l-.215.45-.054.288-.107.054-.198.162.072.072c-.048 0-.096.042-.144.126l-.27.198-.234.324-.2.288-.25.198v.054c-.05.156-.145.288-.29.396l-.035.252-.252.234c-.132.12-.294.18-.486.18-.024 0-.054-.006-.09-.018h-.108l-.037-.612.036-.198c0-.216.09-.384.27-.504l.09-.216.107-.072-.036-.324.18-.108.02-.072c.023-.084.053-.15.09-.198l-.02-.18.11-.126v-.072c0-.036.01-.126.035-.27.048-.072.084-.12.108-.144l-.018-.036-.018-.108.18-.324c.096-.252.318-.378.666-.378.18 0 .366.024.558.072l.037.036.288.09.144.216.07.27zm16.08 6.588l-.16.162.053.432-.414.504v.216l-.145.144.108.162-.36.342-.234.396-.38.216c-.143.144-.3.222-.467.234l-.144.324-.18-.162-.18.234c0-.06-.05-.138-.145-.234l-.126-.072-.145.162h-.054l-.143.18-.234-.144-.378.162-.234-.216c-.035.012-.09.018-.16.018-.193 0-.433-.054-.72-.162l-.253-.126-.09-.09-.288-.108-.127-.378c-.204-.012-.414-.06-.63-.144l-.378-.81.054-.126-.09-.144v-.324l-.11-.18.073-.216c-.036-.132-.054-.246-.054-.342 0-.024.005-.048.017-.072v-.63l.072-.18.017-1.062.054-.252-.09-.108.163-.504-.054-.162v-.396l.09-.108-.02-.252-.07-.18.16-.576-.125-.72.054-.054v-.234c.01-.06.017-.156.017-.288 0-.168-.012-.3-.036-.396l.037-.126-.144-.522c.024-.084.066-.144.126-.18l-.09-.126c.035-.072.053-.144.053-.216 0-.096-.042-.204-.126-.324 0-.108.018-.204.054-.288l-.07-.18.09-.198-.29-.612.29-.054v-.036l.63-.324.323.378.036.18.27.198-.02.27c0 .096-.01.228-.035.396.084.084.126.162.126.234 0 .036-.01.078-.035.126l.072.072-.072.288.126.324-.017.126.234.108-.126.234-.107.468c-.012.072-.036.18-.072.324.037.072.055.234.055.486l-.036.144.053.144-.09.288c0 .108-.018.216-.054.324l-.02.054c.06.06.127.138.2.234l-.2.378.055.216-.036.108c0 .096-.02.21-.055.342l.018.072-.018.198-.018.27-.054.576.234.054.036-.558.126-.378.07.036.11-.27c.047-.216.143-.42.287-.612.024-.048.06-.096.108-.144l.054-.054v.036l.07-.216.217-.234.126-.126.018-.072.11-.144c0-.156.053-.27.16-.342l.037-.144.234-.072.09-.054.037-.108-.018-.252.27-.054.143-.054-.126-.126.288-.072.306-.234h.56l.34.198.11.018.305.432.018.18.144.018.054.378.18.144v.27l.11.126.125.072.072.576v.054c0 .06.036.14.108.243.072.102.108.19.108.26 0 .073-.018.145-.054.217l.215.09c-.024.168-.066.3-.126.396l.053.396c.048.12.072.21.072.27 0 .036-.012.102-.036.198l-.02.774.073.162-.072.288.09.324zm-1.205-1.35l-.036-.324v-.306l-.127-.828-.162-.594-.233-.522-.396-.63-.09.036-.07.09h-.09c-.05.216-.18.33-.397.342-.096.132-.222.312-.378.54l-.216.198-.073.27-.18.216-.18.45c0 .204-.078.426-.234.666l-.108.162.018.288-.288.396-.144.63-.125.072c0 .012.006.036.018.072v.09c0 .216-.054.432-.162.648l.11.324-.217.09-.036.072-.144.144.396.09.233.126.36-.054.324.144v.252l.072.072h.43l.29-.054c.07-.108.18-.162.323-.162h.054l.144-.054-.07-.216h.503c.108-.312.306-.588.594-.828v-.18l.216-.396v-.414l.054-.468-.036-.288.055-.162zm13.242 3.114c0 .144-.108.318-.324.522l-.144.054-.127.162-.324.09c-.06.084-.12.126-.18.126-.013 0-.025-.006-.037-.018h-.054c-.265.132-.583.198-.955.198h-.144l-.45-.09-.305-.144-.684-.576-.143-.486-.288-.234c.035-.048.053-.126.053-.234 0-.072-.048-.192-.144-.36l.053-.432v-.072c0-.144-.042-.33-.126-.558l.108-.54-.234.468-.27.036-.035.378c-.096.048-.21.072-.342.072l-.198.432-.234.27c-.095.108-.18.168-.25.18l-.055.036-.648.666h-.072l-.342.396-.324.162-.18.234-.415.126-.594.234-.36-.18c-.24 0-.407-.108-.503-.324l-.162-.09c0-.036.006-.084.018-.144v-.126l-.288-.252.072-.108-.216-.504.073-.072-.036-.036v-.108c-.012-.036-.018-.066-.018-.09 0-.132.017-.258.053-.378l.018-.468-.07-.378c.06-.096.09-.18.09-.252 0-.084-.037-.162-.11-.234l.2-.144v-.216l-.073-.594.198-1.152c0-.192-.054-.474-.162-.846.036-.384.288-.594.756-.63l.143.054.252.036.324.36-.11.468-.035.774.054.594-.11.216.055.144-.09.288v.18l-.036.054c.01.036.017.09.017.162 0 .156-.024.318-.072.486l.09.126-.072.27.036.216v.252c.06.072.09.162.09.27 0 .096-.025.192-.073.288v.072c.06.204.09.336.09.396l.162.162c.07-.048.155-.108.25-.18.037-.12.12-.198.253-.234v-.18c.072 0 .186-.018.342-.054l.036-.162.307-.126.054-.054c.085-.084.223-.162.415-.234V32.3l.342-.252c.084-.228.234-.378.45-.45.132-.132.222-.21.27-.234l.234-.306v-.054l.073-.036.162-.072.09-.252.378-.162.072-.018.126-.126v-.162l.11-.036c.035-.192.13-.336.287-.432l.27-.612.09-.324.036-.072h.072l.126-.09-.107-.036c.132-.216.234-.444.306-.684l.52-.018.415.342.18.288-.198.774-.27.36-.216.702-.18.108v.27l-.107.198.054.324-.144.126.072.576.036.81h.09v.468l.253.306.234.126.018.09c.084.012.186.042.306.09l.45.036.27-.072.487-.234c.096-.048.216-.072.36-.072.36 0 .54.156.54.468zm6.942-5.418c0 .108-.11.21-.325.306-.048.06-.138.114-.27.162-.168.072-.288.132-.36.18l-.378-.126c-.192.144-.438.216-.738.216l-.217-.054-.162.144h-.485l-.306.198c-.133-.048-.26-.072-.38-.072-.035.024-.12.048-.25.072-.06 0-.127-.018-.2-.054l-.053.684.018.504-.054.63.037.684.054.324v.252l.253.54c-.036.036-.054.078-.054.126 0 .084.13.15.395.198l.036.216.127.054.216.144.144.108c.12-.024.204-.036.252-.036.107 0 .215.018.323.054.048-.024.15-.108.306-.252.107-.096.21-.144.305-.144h.054c.023.012.04.018.053.018.108-.228.3-.378.576-.45.25 0 .46.078.63.234v.126c0 .408-.145.666-.433.774-.108.252-.336.414-.684.486l-.216.198h-.234l-.414.108c-.097.024-.235.036-.415.036-.096 0-.198-.024-.306-.072h-.235l-.63-.342-.162-.054-.378-.504-.216-.234-.397-.9-.144-.846.035-.216-.144-.198.09-.252-.09-.396.127-.126.036-.234-.054-.216.035-.324-.072-.288.09-.09v-.288l-.126-.054-.342.072-.324-.234h-.053c-.36 0-.54-.192-.54-.576V28.7l-.216-.342.343-.324.45.072.234-.036.342.09h.377v-.36l-.234-.504.234-.126-.09-.27.018-.558-.144-.234c-.083-.132-.125-.252-.125-.36 0-.132.03-.24.09-.324l.054-.252.143-.144c.324-.06.54-.09.648-.09.385 0 .595.174.63.522l-.053.09c.072.108.108.21.108.306 0 .012-.006.042-.018.09l-.036.108-.017.126.072.234-.018.09.036.252-.162.216.09.36-.07.432.143.162-.144.324.557-.072.99.09.792-.126.27.018.09-.018h.7c.373 0 .56.132.56.396zm6.635 0c0 .108-.108.21-.324.306-.047.06-.137.114-.27.162-.167.072-.287.132-.36.18l-.377-.126c-.192.144-.438.216-.738.216l-.216-.054-.163.144h-.486l-.305.198c-.132-.048-.258-.072-.378-.072-.036.024-.12.048-.252.072-.06 0-.126-.018-.198-.054l-.054.684.018.504-.053.63.036.684.054.324v.252l.252.54c-.037.036-.055.078-.055.126 0 .084.132.15.396.198l.037.216.126.054.216.144.143.108c.12-.024.204-.036.252-.036.108 0 .216.018.324.054.047-.024.15-.108.305-.252.108-.096.21-.144.306-.144h.055c.024.012.042.018.054.018.107-.228.3-.378.575-.45.252 0 .462.078.63.234v.126c0 .408-.144.666-.432.774-.108.252-.336.414-.684.486l-.217.198h-.234l-.415.108c-.096.024-.234.036-.414.036-.095 0-.197-.024-.305-.072h-.234l-.63-.342-.16-.054-.38-.504-.215-.234-.396-.9-.145-.846.036-.216-.143-.198.09-.252-.09-.396.126-.126.036-.234-.055-.216.036-.324-.07-.288.09-.09v-.288l-.127-.054-.342.072-.323-.234h-.054c-.36 0-.54-.192-.54-.576V28.7l-.216-.342.342-.324.45.072.233-.036.342.09h.378v-.36l-.234-.504.233-.126-.09-.27.018-.558-.143-.234c-.084-.132-.126-.252-.126-.36 0-.132.03-.24.09-.324l.055-.252.144-.144c.323-.06.54-.09.647-.09.384 0 .594.174.63.522l-.054.09c.072.108.108.21.108.306 0 .012-.005.042-.017.09l-.036.108-.018.126.07.234-.017.09.036.252-.163.216.09.36-.072.432.144.162-.145.324.558-.072.99.09.792-.126.27.018.09-.018h.702c.372 0 .558.132.558.396zm7.41 2.25l-.108.324c0 .312-.018.558-.054.738l-.108.18v.198l-.09.126-.054.252-.197.198-.126.45-.144.054-.072.198-.215.126-.144.306-.215.108-.018.216-.342.126c-.156.216-.348.354-.576.414l-.073.018c-.168.252-.39.378-.666.378-.12.072-.257.108-.413.108l-.18.126-.18.054-.234.18-.234-.018-.253.072-.306-.126-.773-.054-.27-.414-.396-.414.09-.288-.27-.612.127-.234-.09-.432.09-.27c-.024-.168-.036-.288-.036-.36 0-.228.06-.396.18-.504.013-.12.09-.318.235-.594h.09l-.036-.126.053-.252v-.27c.096-.108.15-.18.162-.216l-.054-.252v-.072c.085-.168.127-.342.127-.522l.378-.522.045-.036c.03-.024.057-.048.08-.072l-.017-.072h.072l.27-.306.018-.414.45-.162c.168-.108.276-.288.324-.54h.234c.133-.072.253-.108.36-.108.11 0 .21.024.307.072l.198.018.468-.18.252.234.198.126h.144l.27.144h.144c.157.144.337.342.54.594l.037.09.126.072.378.486.343.846v.18l.162.63zm-1.188.432l-.018-.09c-.085-.084-.133-.174-.145-.27l.054-.09-.163-.342.036-.342-.072-.09c-.155-.12-.24-.216-.25-.288-.11-.048-.163-.168-.163-.36l-.108-.018-.217-.36-.162-.126-.377-.144-.144-.036c-.073 0-.12-.024-.145-.072l-.36.396-.234.504-.377.198-.054.198-.18.09-.073.468-.216.108c-.047.168-.07.324-.07.468l-.29.27.09.054c0 .144-.053.27-.16.378-.037.108-.085.228-.145.36v.144l-.054.072.02.216-.2.486.037.09v.504l-.072.252.018.252.162.234.252.09.09.036.144-.072.47.036.07-.18h.073c.072 0 .114.018.126.054l.16-.054.145.054.234-.162.035-.054.162-.036c.084-.132.282-.264.594-.396l.037-.09.36-.252.198-.288.288-.144.018-.09.09-.198v-.234l.217-.18.072-.126.09-.108c-.05-.144-.073-.246-.073-.306 0-.108.036-.222.108-.342l.072-.072zm5.916.072l.33-.37c-.063.067-.13.143-.207.227l-.015.016v.036l.037-.126.234-.27.163-.306v-.18l.27-.09.036-.234.07-.072.02-.09v-.126l.25-.252v-.09c-.01-.036-.017-.06-.017-.072 0-.216.12-.336.36-.36.108-.216.27-.342.486-.378l.107-.162.036-.036c.108-.156.27-.264.486-.324l.16-.198h.433l.216.252.197.108.018.054.126.036.037.378.306.18-.126.396.198.432v.504l.144.684.035.648.162.378.108.468c.072.072.126.174.162.306l.324.09v.36l.18.198v.054l.073.018.072.108.072-.09c-.024 0 .006.006.09.018.132 0 .27-.12.414-.36l.217-.054.054-.09c.037-.096.11-.168.217-.216l.126.018.072-.072.018-.09.054-.072c.12-.084.198-.21.234-.378l.2-.216.035-.162.126-.288.343-.126.486.162.16.522c0 .012.007.024.02.036v.054c0 .096-.08.222-.235.378l-.198.306-.072.36-.162.054-.036.108c-.192.06-.33.21-.414.45-.132.168-.276.288-.432.36-.06.06-.113.102-.16.126l-.09.162-.163.036-.468.252-.613.072-.162-.036-.27.054-.108-.126c-.168-.084-.288-.168-.36-.252-.144-.036-.252-.15-.324-.342-.204-.24-.306-.432-.306-.576v-.054l-.126-.216-.035-.036-.108-.324-.162-.342.036-.414-.18-.234-.27-1.548c-.035-.204-.053-.378-.053-.522l-.036-.09-.09-.126-.16.216-.65.684-.233.378-.126.252-.197.288-.144.144.017.09-.252.558-.144.18-.18.036-.16.162c0 .24-.115.396-.343.468l-.036.036c-.107.264-.227.426-.36.486l-.16.252c-.265.24-.44.39-.523.45-.036.12-.102.222-.198.306-.025.036-.067.084-.127.144-.036.204-.204.348-.504.432l-.2.054c-.24-.012-.437-.15-.593-.414l-.27-.45.09-.432-.036-.234.037-.036.018-.234-.198-.432.144-.216-.07-.234.125-.252.036-.414-.07-.072.143-.252-.054-.126-.02-.288.073-.54c-.024-.12-.036-.198-.036-.234 0-.024.006-.048.018-.072v-.072l-.09-.144.054-.576-.02-.198.055-.288-.072-.486.324-.54c.372.06.63.14.774.243.145.102.217.285.217.55v.16l.126.217-.054.378.07.72-.125.342.054.378v.306l-.145.198.108.324-.108.198-.018.198.108.198-.144.378-.053.162v.162l.09.18.306-.306c0-.18.06-.3.18-.36.012-.12.06-.21.144-.27l-.054-.054.234-.216.054-.072v-.162l.29-.216.07-.18.163-.108zm21.21.9l-.162.162.055.432-.414.504v.216l-.143.144.108.162-.36.342-.234.396-.377.216c-.144.144-.3.222-.468.234l-.144.324-.18-.162-.18.234c0-.06-.047-.138-.143-.234l-.126-.072-.143.162h-.054l-.144.18-.235-.144-.378.162-.234-.216c-.036.012-.09.018-.162.018-.19 0-.43-.054-.72-.162l-.25-.126-.09-.09-.29-.108-.125-.378c-.204-.012-.414-.06-.63-.144l-.378-.81.054-.126-.09-.144v-.324l-.107-.18.072-.216c-.036-.132-.054-.246-.054-.342 0-.024.007-.048.02-.072v-.63l.07-.18.02-1.062.053-.252-.09-.108.162-.504-.054-.162v-.396l.09-.108-.017-.252-.072-.18.163-.576-.126-.72.054-.054v-.234c.013-.06.02-.156.02-.288 0-.168-.013-.3-.037-.396l.036-.126-.145-.522c.024-.084.066-.144.126-.18-.023-.036-.053-.078-.09-.126.037-.072.055-.144.055-.216 0-.096-.042-.204-.126-.324 0-.108.017-.204.053-.288l-.072-.18.09-.198-.287-.612.288-.054v-.036l.63-.324.325.378.036.18.27.198-.017.27c0 .096-.012.228-.036.396.084.084.126.162.126.234 0 .036-.012.078-.036.126l.072.072-.073.288.126.324-.018.126.234.108-.127.234-.108.468c-.012.072-.036.18-.072.324.036.072.054.234.054.486l-.036.144.055.144-.09.288c0 .108-.018.216-.054.324l-.017.054c.06.06.126.138.198.234l-.197.378.054.216-.036.108c0 .096-.017.21-.053.342l.018.072-.018.198-.018.27-.055.576.234.054.035-.558.126-.378.073.036.108-.27c.05-.216.145-.42.29-.612.023-.048.06-.096.107-.144l.054-.054v.036l.073-.216.216-.234.125-.126.018-.072.108-.144c0-.156.055-.27.163-.342l.036-.144.233-.072.09-.054.036-.108-.02-.252.27-.054.145-.054-.126-.126.287-.072.306-.234h.558l.343.198.108.018.307.432.018.18.144.018.053.378.18.144v.27l.108.126.127.072.072.576v.054c0 .06.035.14.107.243.072.102.108.19.108.26 0 .073-.018.145-.054.217l.217.09c-.024.168-.066.3-.126.396l.055.396c.048.12.072.21.072.27 0 .036-.012.102-.036.198l-.017.774.072.162-.072.288.09.324zm-1.206-1.35l-.036-.324v-.306l-.125-.828-.162-.594-.234-.522-.397-.63-.09.036-.072.09h-.09c-.047.216-.18.33-.395.342-.096.132-.222.312-.378.54l-.216.198-.07.27-.18.216-.18.45c0 .204-.08.426-.235.666l-.108.162.018.288-.288.396-.144.63-.126.072c0 .012.006.036.018.072v.09c0 .216-.054.432-.162.648l.108.324-.215.09-.036.072-.145.144.396.09.235.126.36-.054.324.144v.252l.07.072h.433l.288-.054c.073-.108.18-.162.325-.162h.054l.143-.054-.072-.216h.505c.108-.312.306-.588.594-.828v-.18l.215-.396v-.414l.054-.468-.037-.288.054-.162zm8.868 2.682c0 .144-.108.324-.324.54-.06.192-.15.348-.27.468l-.107.018-.198.342-.324.054-.34.216-.18.324-.2-.036c-.13.06-.24.096-.323.108l-.108.162c-.037-.012-.09-.018-.163-.018-.156 0-.306.108-.45.324l-.252-.216c-.048.012-.12.018-.216.018-.157 0-.29-.024-.397-.072h-.306l-.144-.09c-.456-.072-.744-.246-.864-.522v-.054l-.217-.108-.108-.306-.216-.144v-.27l-.217-.792.036-.648.07-.288v-.378l.09-.288-.017-.126.126-.216-.037.036c0-.108.03-.222.09-.342v-.09l-.054-.432c0-.204.09-.384.27-.54.01-.024.017-.06.017-.108s-.02-.147-.063-.297c-.042-.15-.063-.255-.063-.315 0-.144.037-.294.11-.45.095.144.233.216.413.216h.054c.024-.048.078-.102.162-.162.095-.3.227-.552.395-.756l.072-.072c0-.048.036-.186.108-.414h.144l.035-.09.144-.036c.06-.096.098-.153.116-.17.018-.02.147-.094.387-.226.048-.084.12-.162.216-.234.047-.024.107-.048.18-.072l.07-.108c.325-.108.53-.162.613-.162.096 0 .186.024.27.072l.09-.018.126.072c.143.108.287.198.43.27l.307.234v.072c.276.216.414.522.414.918l-.053.18.054.594-.16.108-.18.468-.343.378-.018.288c-.385.276-.74.498-1.063.666-.108.168-.276.252-.504.252h-.054l-.343.216h-.288l-.433.18-.324-.162h-.036c-.024.096-.048.24-.072.432l-.144.108-.017.216-.108.306c.036.288.054.474.054.558l-.073.054c0 .156-.006.27-.018.342 0 .012-.007.03-.02.054v.054c0 .096.05.174.145.234.036.144.096.234.18.27l.126.108.397.108v.054l.144.036.613.036.36-.054.18-.126.108-.036.18-.27.09-.018.45-.144c.05-.084.127-.156.235-.216l.054-.09c.24-.048.377-.174.413-.378.168-.168.384-.252.648-.252h.073c.228.264.342.48.342.648zm-1.782-5.184c0-.036-.018-.108-.054-.216l-.09-.018-.037.018h-.072c-.023.012-.047.018-.07.018-.013 0-.03-.006-.055-.018h-.054l-.18.126-.16.018-.09.036-.307.396-.198.144-.288.504-.162.108c-.036.204-.12.378-.252.522l-.072.126c.133-.084.283-.126.45-.126l.127-.054.054-.162.253.018.144-.216h.108l.198.072.09-.27h.126v-.198l.233-.054.054-.054.036-.162.234-.342c.024-.06.036-.132.036-.216zm8.202 4.698c0 .132-.048.24-.144.324-.095.144-.25.294-.467.45l-.18.126-.162.216-.16.072-.253.162-.18.018-.072.072c-.24.072-.426.192-.558.36-.084.06-.162.09-.234.09-.048 0-.09-.006-.126-.018-.204.12-.468.18-.792.18-.276 0-.456-.024-.54-.072l-.324-.18-.107-.18v-.054c0-.156-.066-.282-.198-.378l-.072-.36-.144-.162-.09-.666-.02-.396.02-.288.035-.108c-.036-.072-.054-.15-.054-.234.06-.504.09-.822.09-.954l-.16-.324.16-.27.055-.45-.036-.306.107-.27-.108-.36.16-.252.02-.162v-.63l.053-.126-.018-.756.054-.774-.073-.144-.018-.54.053-.486-.054-.18.107-1.08c.504-.12.726-.18.666-.18.192 0 .348.102.468.306l.037.144.27.27-.144.378.036.072c-.025.228-.055.378-.09.45l.035.378.09.342-.126.378c0 .204-.03.39-.09.558 0 .06-.013.156-.037.288l-.018.108.162.198-.072.198c.024.096.036.162.036.198 0 .072-.023.168-.07.288l.035.162-.108.576v.378l-.126.378.073.342-.072.792.055.09-.09.414-.036.504c-.025.072-.037.114-.037.126 0 .204-.006.372-.018.504l.09.252-.036.27.107.234-.018.09c.07.06.137.156.197.288h.162l.233.072.108-.144.163-.018c.072-.024.126-.036.162-.036h.054c.12-.024.215-.084.287-.18l.108-.054c.084-.132.222-.222.414-.27.06-.048.173-.144.34-.288 0-.168.103-.294.307-.378.18 0 .3-.03.36-.09.24.036.393.1.46.19.065.09.098.26.098.512zm7.518-2.25l-.108.324c0 .312-.018.558-.054.738l-.107.18v.198l-.09.126-.054.252-.2.198-.125.45-.144.054-.07.198-.217.126-.144.306-.217.108-.018.216-.342.126c-.156.216-.348.354-.576.414l-.072.018c-.168.252-.39.378-.666.378-.12.072-.26.108-.415.108l-.18.126-.18.054-.234.18-.233-.018-.252.072-.306-.126-.775-.054-.27-.414-.396-.414.09-.288-.27-.612.125-.234-.09-.432.09-.27c-.024-.168-.036-.288-.036-.36 0-.228.06-.396.18-.504.01-.12.09-.318.233-.594h.09l-.036-.126.054-.252v-.27c.097-.108.15-.18.163-.216l-.054-.252v-.072c.083-.168.125-.342.125-.522l.378-.522.045-.036c.03-.024.057-.048.08-.072l-.017-.072h.073l.27-.306.018-.414.45-.162c.17-.108.277-.288.325-.54h.234c.13-.072.25-.108.36-.108.107 0 .21.024.305.072l.198.018.468-.18.253.234.198.126h.145l.27.144h.144c.155.144.335.342.54.594l.035.09.126.072.38.486.34.846v.18l.163.63zm-1.188.432l-.018-.09c-.084-.084-.132-.174-.144-.27l.054-.09-.162-.342.036-.342-.07-.09c-.157-.12-.24-.216-.253-.288-.108-.048-.162-.168-.162-.36l-.108-.018-.216-.36-.16-.126-.38-.144-.143-.036c-.072 0-.12-.024-.144-.072l-.36.396-.234.504-.38.198-.053.198-.18.09-.072.468-.216.108c-.05.168-.073.324-.073.468l-.288.27.09.054c0 .144-.055.27-.163.378-.036.108-.084.228-.144.36v.144l-.054.072.017.216-.198.486.035.09v.504l-.072.252.018.252.163.234.252.09.09.036.144-.072.467.036.072-.18h.07c.073 0 .115.018.127.054l.162-.054.143.054.234-.162.036-.054.162-.036c.084-.132.282-.264.594-.396l.035-.09.36-.252.198-.288.288-.144.02-.09.09-.198v-.234l.215-.18.072-.126.09-.108c-.048-.144-.072-.246-.072-.306 0-.108.036-.222.108-.342l.072-.072zm14.25-3.492l-.09.342.036.18-.215.702-.036.252-.253.27-.09.342-.198.288-.29.63-.34.576-.523.774-.09.234-.27.486-.306.63-.54.972-.107.432-.288.414-.54-.18-.306-.18-.29-.846-.36-.612v-.18l-.215-.504-.09-.108-.756-1.584-.235-.378-.198.306-.288.234-.415.576-.288.306-.162.468-.396.486-.037.162-.27.558v.27l-.18.252-.018.252-.18.054-.396.414.07-.036c-.12.072-.28.12-.485.144l-.126-.144-.27-.108v-.198l-.11-.144-.107-.486-.144-.324v-.234l-.02-.072-.27-.774-.07-.486-.18-.198.035-.234-.18-.432v-.162l-.144-.396-.25-.342.035-.396-.018-.126-.198-.468-.037-.288-.108-.18c-.072-.12-.126-.24-.162-.36l-.306-.774.252-.324c.07-.132.22-.216.45-.252l.377-.054.126.18.234.108.162.324.143.126-.054.288.07.18-.053.162.18.288-.036.27.235.81-.036.198.107.486.252.576.107.684.18.216v.432l.126.378.018.144.253-.162.414-.666.126-.306.144-.252c0-.12.024-.21.072-.27h.107l.054-.324.2-.036c.023-.096.077-.168.16-.216v-.036c0-.072.037-.144.11-.216l-.037-.126.09-.036-.018-.108c.108-.192.228-.336.36-.432v-.36l.252-.144.072-.054.035-.036c-.06-.12-.09-.252-.09-.396 0-.216.096-.426.288-.63.108-.048.24-.072.396-.072.095 0 .167.006.215.018l.342.306.18.27.108.432.162.288-.036.198.127.396v.162l.306.54v.054l.072.054.36.864.018.234.18.198.414.936.09-.162.324-.666.2-.162.143-.378.18-.09v-.27c.072-.06.168-.12.288-.18.073-.036.11-.066.11-.09l-.02-.378.217-.216.09-.054.27-.45v-.054c.024-.132.102-.282.234-.45l-.035-.198.324-.396.16-.396c-.13-.36-.197-.666-.197-.918 0-.372.192-.582.576-.63l.485.144.072-.108.126.162.18.126-.054.198.215.252zm3.666 6.822l-.125.054v.126l-.198.144-.162.216-.342.018-.108.018c-.048.024-.12.036-.216.036-.12 0-.247-.036-.38-.108-.047-.012-.107-.04-.18-.08-.07-.043-.125-.118-.16-.226l-.145-.108-.072-.018v-.504c0-.192.144-.348.432-.468.096-.084.234-.186.414-.306l.305.09.054.054.053-.054.108.072h.09c.145 0 .247.048.307.144l.126.234.198.252-.035.252.036.162z" fill="#000" fill-rule="evenodd" fill-opacity=".87"/></svg>