<svg xmlns="http://www.w3.org/2000/svg" width="23" height="22.524" data-name="Group 737">
    <defs>
        <clipPath id="a">
            <path d="M0 0h23v22.524H0z" data-name="Rectangle 311"/>
        </clipPath>
    </defs>
    <g clip-path="url(#a)" data-name="Group 736" fill="#FFFFFF">
        <path d="M9.967 13.057H1.456A1.457 1.457 0 0 0 0 14.513v6.546a1.457 1.457 0 0 0 1.456 1.456h8.511a1.457 1.457 0 0 0 1.456-1.456v-6.546a1.457 1.457 0 0 0-1.456-1.456m-1.491 6.518H2.947v-3.578h5.529Z"
              data-name="Path 11358"/>
        <path d="M21.593 0a1.421 1.421 0 0 0-1.408 1.434v14.644h-3.131l1.649-1.65a1.043 1.043 0 0 0-1.459-1.491l-.016.016-3.9 3.9a1.022 1.022 0 0 0-.3.738 1.071 1.071 0 0 0 .3.738l3.887 3.9a1.078 1.078 0 0 0 .737.3 1.064 1.064 0 0 0 .738-.3 1.046 1.046 0 0 0 0-1.475L16.844 18.9h4.831a1.323 1.323 0 0 0 1.324-1.323V1.434A1.421 1.421 0 0 0 21.593 0"
              data-name="Path 11359"/>
        <path d="M15.526 0H1.456A1.456 1.456 0 0 0 0 1.456V8a1.456 1.456 0 0 0 1.456 1.458h14.07A1.456 1.456 0 0 0 16.982 8V1.456A1.456 1.456 0 0 0 15.526 0"
              data-name="Path 11360"/>
    </g>
</svg>