<svg xmlns="http://www.w3.org/2000/svg" width="23" height="22.524" data-name="Group 737">
    <defs>
        <clipPath id="a">
            <path d="M0 0h23v22.524H0z" data-name="Rectangle 311"/>
        </clipPath>
    </defs>
    <g clip-path="url(#a)" data-name="Group 736" fill="#18FFFF">
        <path
                d="M 15.526,13.057 H 1.456 C 0.65210198,13.057552 5.5155973e-4,13.709102 0,14.513 v 6.546 c 5.5155973e-4,0.803898 0.65210198,1.455448 1.456,1.456 h 14.07 c 0.803898,-5.52e-4 1.558448,-0.652102 1.559,-1.456 v -6.546 c -5.51e-4,-0.803898 -0.755102,-1.455448 -1.559,-1.456 m -1.491,6.518 H 2.947 v -3.578 h 11.088 z"
                data-name="Path 11358"
                id="path31"/>
        <path
                d="M 21.593,22.529 A 1.421,1.421 0 0 1 20.185,21.095 V 6.451 h -3.131 l 1.649,1.65 a 1.0430439,1.0430439 0 0 1 -1.459,1.491 l -0.016,-0.016 -3.9,-3.9 a 1.022,1.022 0 0 1 -0.3,-0.738 1.071,1.071 0 0 1 0.3,-0.738 l 3.887,-3.9 a 1.078,1.078 0 0 1 0.737,-0.3 1.064,1.064 0 0 1 0.738,0.3 1.046,1.046 0 0 1 0,1.475 l -1.846,1.854 h 4.831 a 1.323,1.323 0 0 1 1.324,1.323 v 16.143 a 1.421,1.421 0 0 1 -1.406,1.434"
                data-name="Path 11359"
                id="path33"/>
        <path
                d="M 10.443615,0 H 0.97938274 A 0.97938319,1.456 0 0 0 -4.4965229e-7,1.456 V 8 A 0.97938319,1.456 0 0 0 0.97938274,9.458 H 10.443615 A 0.97938319,1.456 0 0 0 11.422998,8 V 1.456 A 0.97938319,1.456 0 0 0 10.443615,0"
                data-name="Path 11360"
                id="path35"
                style="stroke-width:0.820154"/>
    </g>
</svg>