<?xml version="1.0" encoding="utf-8"?>
<!-- Generator: Adobe Illustrator 15.1.0, SVG Export Plug-In . SVG Version: 6.00 Build 0)  -->
<!DOCTYPE svg PUBLIC "-//W3C//DTD SVG 1.1 Basic//EN" "http://www.w3.org/Graphics/SVG/1.1/DTD/svg11-basic.dtd">
<svg version="1.1" baseProfile="basic" id="Layer_1"
	 xmlns="http://www.w3.org/2000/svg" xmlns:xlink="http://www.w3.org/1999/xlink" x="0px" y="0px" width="261px" height="67.5px"
	 viewBox="0 0 261 67.5" xml:space="preserve">
<g>
	<g>
		<path fill="#FFFFFF" d="M82.46,56.129c-2.499-0.829-4.668-1.922-6.738-3.46L68.18,40.855l-2.314-11.111
			c0.204-1.657,0.635-3.14,1.154-4.677l7.673-9.496L86.74,9.618l12.364,1.772l11.251,9.558l2.964,8.682l1.038,5.901
			c-0.15,1.472-0.32,2.475-0.719,3.858l-7.707,10.786L93.43,57.112c-1.156,0.168-3.553,0.228-3.674,0.228l-3.382-1.012L82.46,56.129
			L82.46,56.129z"/>
		
			<linearGradient id="SVGID_1_" gradientUnits="userSpaceOnUse" x1="301.0352" y1="-37.335" x2="402.1826" y2="-37.335" gradientTransform="matrix(0.5 0 0 0.5 -87.9873 67.251)">
			<stop  offset="0.0056" style="stop-color:#C29809"/>
			<stop  offset="1" style="stop-color:#F9F5E6"/>
		</linearGradient>
		<path fill-rule="evenodd" clip-rule="evenodd" fill="url(#SVGID_1_)" d="M113.104,57.665c-6.612,5.629-16.232,6.91-22.263,6.592
			c-16.476-0.862-29.131-14.916-28.269-31.392c-0.792,15.13,10.872,28.039,26.002,28.831c5.856,0.307,13.787-1.216,20.897-7.177
			L113.104,57.665L113.104,57.665z"/>
		
			<linearGradient id="SVGID_2_" gradientUnits="userSpaceOnUse" x1="359.9277" y1="-92.9922" x2="324.8262" y2="-78.9517" gradientTransform="matrix(0.5 0 0 0.5 -87.9873 67.251)">
			<stop  offset="0.0056" style="stop-color:#C29809"/>
			<stop  offset="1" style="stop-color:#F9F5E6"/>
		</linearGradient>
		<path fill-rule="evenodd" clip-rule="evenodd" fill="url(#SVGID_2_)" d="M67.349,8.764c6.612-5.626,16.232-6.906,22.263-6.592
			c16.477,0.866,29.132,14.92,28.269,31.395c0.792-15.13-10.87-28.039-26-28.831c-5.858-0.306-13.788,1.216-20.899,7.173
			L67.349,8.764L67.349,8.764z"/>
		<path fill-rule="evenodd" clip-rule="evenodd" fill="#8E3693" d="M66.625,39.727L66.625,39.727
			c-0.626-2.157-0.963-4.44-0.963-6.803c0-1.078,0.069-2.14,0.205-3.179c11.298,4.423,12.49,6.614,11.42,9.984v-0.002l0,0
			c-0.297,0.949-0.774,1.988-1.256,3.193c-2.146,5.373-0.309,9.749-0.309,9.749c-4.319-3.146-7.572-7.68-9.097-12.94V39.727z"/>
		<path fill-rule="evenodd" clip-rule="evenodd" fill="#8E3693" d="M81.429,39.727L81.429,39.727l-1.711-0.93
			c-1.327-0.838-0.793-4.073,2.001-3.648c2.081,0.312,4.089,1.331,6.056,2.137c1.258-0.758,2.62-1.221,4.39-1.855
			c-0.329-0.79-0.517-1.655-0.517-2.562c0-0.671,0.098-1.317,0.282-1.929c-2.715,0.842-5.419,1.421-7.627,1.34
			c-7.384-0.27-15.137-5.474-17.282-7.21c3.258-9.63,12.319-16.562,23.056-16.562c13.485,0,24.419,10.934,24.419,24.418
			c0,0.879-0.047,1.75-0.139,2.606c-0.098-0.09-0.326-0.23-0.935-0.261c-1.332-0.07-5.918,2.614-10.196,4.454v0.003l0,0
			c-2.213,0.949-4.342,1.674-5.895,1.674c-1.597,0-3.855-0.732-6.161-1.674c-1.279-0.52-2.574-1.104-3.779-1.663
			c-1.952-0.804-3.696-1.71-5.75-2.083c-2.046-0.375-2.16,1.842-1.337,2.26l2.713,1.486l0,0l1.594,0.873
			c2.563,1.225,5.335,2.693,6.391,3.331c0.71,0.427,0.792,1.138,0.427,1.852c-1.795,3.502-2.283,7.659-1.674,11.558
			c-2.542-0.037-4.999-0.456-7.296-1.211c-1.902-4.027-1.09-10.429,1.695-14.922L81.429,39.727z"/>
		<path fill-rule="evenodd" clip-rule="evenodd" fill="#8E3693" d="M113.542,39.727L113.542,39.727
			c-2.646,9.136-10.49,16.064-20.112,17.386c0.214-5.668,3.089-9.309,5.667-11.667c2.205-2.018,10.76-4.475,13.806-5.722v0.003l0,0
			c0.303-0.127,0.553-0.238,0.735-0.338c-0.03,0.115-0.064,0.229-0.096,0.34V39.727z"/>
		<path fill-rule="evenodd" clip-rule="evenodd" fill="#FFFFFF" d="M92.416,32.868c0,3.269,2.648,5.916,5.917,5.916
			s5.917-2.646,5.917-5.916c0-3.266-2.648-5.915-5.917-5.915S92.416,29.602,92.416,32.868L92.416,32.868z"/>
		<path fill-rule="evenodd" clip-rule="evenodd" fill="#FFFFFF" d="M80.013,22.344c0,3.93,3.184,7.112,7.112,7.112
			c3.929,0,7.111-3.182,7.111-7.112c0-3.927-3.182-7.111-7.111-7.111C83.197,15.232,80.013,18.417,80.013,22.344L80.013,22.344z"/>
		<path fill-rule="evenodd" clip-rule="evenodd" fill="#FFFFFF" d="M104.834,31.295c1.622-0.657,2.856-1.306,3.518-2.109
			c1.548-1.882-0.09-4.087-1.735-3.882c-0.828,0.104-2.547,0.809-4.873,1.8C103.28,28.012,104.41,29.514,104.834,31.295
			L104.834,31.295z"/>
		<path fill-rule="evenodd" clip-rule="evenodd" fill="#C29809" d="M4.5,40.493h2.935c4.564,0,8.17-2.376,8.17-7.306
			c0-4.816-3.682-7.156-8.114-7.156H4.5V40.493L4.5,40.493z M6.304,27.683h0.632c3.684,0,6.867,1.362,6.867,5.581
			c0,4.199-3.184,5.58-6.867,5.58H6.304V27.683L6.304,27.683z"/>
		<path fill-rule="evenodd" clip-rule="evenodd" fill="#C29809" d="M28.758,25.726c-4.143,0-7.578,3.393-7.578,7.538
			c0,4.295,3.396,7.539,7.578,7.539c4.181,0,7.575-3.244,7.575-7.539C36.333,29.118,32.901,25.726,28.758,25.726L28.758,25.726z
			 M28.758,39.113c-3.127,0-5.774-2.553-5.774-5.85c0-3.185,2.378-5.85,5.774-5.85c3.395,0,5.773,2.666,5.773,5.85
			C34.532,36.561,31.885,39.113,28.758,39.113L28.758,39.113z"/>
		<polygon fill="#C29809" points="42.701,40.493 44.501,40.493 44.501,29.714 55.357,41.088 55.357,26.031 53.556,26.031 
			53.556,36.715 42.701,25.343 42.701,40.493 		"/>
		<path fill="#C29809" d="M127.344,26.031v9.188c0,1.48,0.04,3.895-2.034,3.895c-0.517,0-1.036-0.174-1.438-0.479l-0.901,1.533
			c0.711,0.422,1.42,0.636,2.264,0.636c3.376,0,3.913-2.801,3.913-5.584v-9.188H127.344L127.344,26.031z"/>
		<path fill-rule="evenodd" clip-rule="evenodd" fill="#C29809" d="M143.01,25.726c-4.141,0-7.574,3.393-7.574,7.538
			c0,4.295,3.396,7.539,7.574,7.539c4.184,0,7.578-3.244,7.578-7.539C150.588,29.118,147.154,25.726,143.01,25.726L143.01,25.726z
			 M143.01,39.113c-3.125,0-5.771-2.553-5.771-5.85c0-3.185,2.377-5.85,5.771-5.85c3.396,0,5.775,2.666,5.775,5.85
			C148.785,36.561,146.139,39.113,143.01,39.113L143.01,39.113z"/>
		<polygon fill="#C29809" points="158.775,31.862 158.775,26.031 156.969,26.031 156.969,40.493 158.775,40.493 158.775,33.55 
			165.66,33.55 165.66,40.493 167.463,40.493 167.463,26.031 165.66,26.031 165.66,31.862 158.775,31.862 		"/>
		<polygon fill="#C29809" points="174.689,40.493 176.496,40.493 176.496,29.714 187.348,41.088 187.348,26.031 185.547,26.031 
			185.547,36.715 174.689,25.343 174.689,40.493 		"/>
		<path fill="#C29809" d="M202.576,27.913c-0.785-1.401-2.111-2.188-3.723-2.188c-2.186,0-4.258,1.401-4.258,3.738
			c0,2.017,1.496,2.955,3.146,3.665l0.998,0.421c1.246,0.52,2.494,1.191,2.494,2.745c0,1.514-1.113,2.818-2.668,2.818
			c-1.553,0-2.82-1.15-2.799-2.74l-1.824,0.382c0.309,2.32,2.129,4.048,4.471,4.048c2.588,0,4.623-1.88,4.623-4.508
			c0-2.418-1.537-3.551-3.586-4.354l-1.037-0.404c-0.902-0.346-2.014-0.938-2.014-2.073c0-1.264,1.266-2.05,2.414-2.05
			c1.094,0,1.785,0.46,2.322,1.362L202.576,27.913L202.576,27.913z"/>
		<polygon fill="#C29809" points="213.695,27.683 217.131,27.683 217.131,26.031 208.461,26.031 208.461,27.683 211.893,27.683 
			211.893,40.493 213.695,40.493 213.695,27.683 		"/>
		<path fill-rule="evenodd" clip-rule="evenodd" fill="#C29809" d="M229.898,25.726c-4.141,0-7.574,3.393-7.574,7.538
			c0,4.295,3.393,7.539,7.574,7.539s7.578-3.244,7.578-7.539C237.477,29.118,234.043,25.726,229.898,25.726L229.898,25.726z
			 M229.898,39.113c-3.127,0-5.773-2.553-5.773-5.85c0-3.185,2.381-5.85,5.773-5.85c3.396,0,5.771,2.666,5.771,5.85
			C235.67,36.561,233.025,39.113,229.898,39.113L229.898,39.113z"/>
		<polygon fill="#C29809" points="243.842,40.493 245.643,40.493 245.643,29.714 256.5,41.088 256.5,26.031 254.695,26.031 
			254.695,36.715 243.842,25.343 243.842,40.493 		"/>
	</g>
	<g>
		<path fill="#C39909" d="M112.562,51.193c0-0.842,0.687-1.465,1.494-1.465c0.801,0,1.488,0.623,1.488,1.465
			c0,0.852-0.688,1.476-1.488,1.476C113.249,52.669,112.562,52.045,112.562,51.193z M114.056,52.424c0.666,0,1.191-0.522,1.191-1.23
			c0-0.696-0.525-1.222-1.191-1.222c-0.674,0-1.198,0.525-1.198,1.222C112.858,51.901,113.382,52.424,114.056,52.424z
			 M113.745,52.045h-0.256v-1.693h0.646c0.401,0,0.598,0.146,0.598,0.479c0,0.302-0.189,0.437-0.438,0.47l0.48,0.744h-0.286
			l-0.447-0.735h-0.298V52.045z M114.051,51.096c0.219,0,0.414-0.02,0.414-0.278c0-0.21-0.192-0.249-0.369-0.249h-0.352v0.527
			H114.051z"/>
	</g>
</g>
</svg>
