<svg xmlns="http://www.w3.org/2000/svg" width="252" height="62" viewBox="0 0 252 62">
  <g fill="#2047DB" fill-rule="evenodd" transform="translate(13)">
    <g transform="translate(72.831 25.771)">
      <path d="M1.46783133 14.691759C2.14759036 15.4462169 2.98421687 16.0703253 3.97659036 16.5666988 4.96896386 17.0634458 6.06218072 17.3114458 7.25736145 17.3114458 8.74610843 17.3114458 9.8393253 16.9640964 10.5381325 16.2697711 11.2361928 15.5754458 11.5857831 14.7649639 11.5857831 13.8383253 11.5857831 13.0935783 11.3788675 12.4844096 10.9654096 12.0115663 10.5519518 11.5383494 10.041759 11.1712048 9.43520482 10.9093855 8.8286506 10.6475663 7.9920241 10.3551205 6.92644578 10.0331687 5.56618072 9.69777108 4.47707229 9.37171084 3.65949398 9.05386747 2.84154217 8.7360241 2.14310843 8.25533735 1.56456627 7.61180723.985650602 6.96827711.696192771 6.10812048.696192771 5.03171084.696192771 4.0793012.971831325 3.23259036 1.52310843 2.49157831 2.07438554 1.75056627 2.82772289 1.17277108 3.78386747.758192771 4.73926506.343987952 5.81455422.136325301 7.00936145.136325301 9.74781928.136325301 11.9256627.93560241 13.5432651 2.53453012L12.1646988 4.216C11.503241 3.48133735 10.7125542 2.92968675 9.79375904 2.56179518 8.87459036 2.1946506 7.89155422 2.01051807 6.84390361 2.01051807 5.7409759 2.01051807 4.836 2.29063855 4.12822892 2.85013253 3.42045783 3.41037349 3.06675904 4.13607229 3.06675904 5.02760241 3.06675904 5.61622892 3.26396386 6.10438554 3.65949398 6.49356627 4.0546506 6.88274699 4.53720482 7.1860241 5.10678313 7.40414458 5.67598795 7.62263855 6.4849759 7.874 7.53262651 8.15860241 8.89251807 8.52724096 9.99992771 8.8910241 10.8548554 9.24995181 11.7094096 9.60925301 12.4399639 10.1530602 13.0465181 10.881 13.6530723 11.6089398 13.9563494 12.5710602 13.9563494 13.7688554 13.9563494 14.726494 13.7262771 15.6157831 13.267253 16.4359759 12.8078554 17.2557952 12.0679639 17.9191205 11.0479518 18.4259518 10.0279398 18.9320361 8.73677108 19.186012 7.17444578 19.186012 5.64872289 19.186012 4.29368675 18.9447349 3.10821687 18.4636747 1.92274699 17.982241.925518072 17.3039759.116903614 16.428506L1.46783133 14.691759zM26.2794096 10.0342892C26.2794096 8.9033494 26.0220723 8.10071084 25.5073976 7.62749398 24.9927229 7.1546506 24.2573133 6.91785542 23.3019157 6.91785542 22.5299036 6.91785542 21.7810482 7.12178313 21.0549759 7.53001205 20.3289036 7.93824096 19.7634337 8.43013253 19.3593133 9.00493976L19.3593133 18.8274578 17.2916506 18.8274578 17.2916506 5.5116506 19.3593133 5.5116506 19.3593133 7.44149398C19.8736145 6.83493976 20.5627108 6.30681928 21.4269759 5.85638554 22.290494 5.4063253 23.1816506 5.18073494 24.1011928 5.18073494 26.9311566 5.18073494 28.3466988 6.61420482 28.3466988 9.48151807L28.3466988 18.8267108 26.2790361 18.8267108 26.2790361 10.0342892 26.2794096 10.0342892z"/>
      <path fill-rule="nonzero" d="M40.8075783 17.3114458C39.6863494 18.5611566 38.2162771 19.1863855 36.396988 19.1863855 35.6063012 19.1863855 34.8570723 19.0156988 34.1500482 18.6750723 33.4419036 18.3336988 32.862988 17.8268675 32.4129277 17.1542048 31.962494 16.4807952 31.7372771 15.6833855 31.7372771 14.7616024 31.7372771 13.8211446 31.962494 13.0196265 32.4129277 12.3559277 32.862988 11.6922289 33.4419036 11.1943614 34.1500482 10.8626988 34.8570723 10.5306627 35.6059277 10.3644578 36.396988 10.3644578 38.2891084 10.3644578 39.7599277 10.971012 40.8075783 12.183747L40.8075783 9.75715663C40.8075783 8.83238554 40.4953373 8.1096747 39.8701084 7.5890241 39.2456265 7.06874699 38.4366386 6.80804819 37.4446386 6.80804819 36.6356506 6.80804819 35.900241 6.95968675 35.2387831 7.26296386 34.5773253 7.56624096 33.9528434 8.03049398 33.3642169 8.6553494L32.3991084 7.22187952C33.1162169 6.51298795 33.911012 5.9953253 34.784241 5.66963855 35.6567229 5.3443253 36.6356506 5.18148193 37.7202771 5.18148193 39.2456265 5.18148193 40.4856265 5.54937349 41.4413976 6.28440964 42.3971687 7.01981928 42.8756145 8.15001205 42.8756145 9.67498795L42.8756145 18.8278313 40.8075783 18.8278313 40.8075783 17.3114458zM40.8075783 13.5742651C40.421759 13.0636988 39.9022289 12.6726506 39.2501084 12.3996265 38.597241 12.1269759 37.8946988 11.9902771 37.1413614 11.9902771 36.1855904 11.9902771 35.4001325 12.2498554 34.784241 12.7686386 34.1679759 13.2881687 33.8605904 13.9604578 33.8605904 14.787747 33.8605904 15.5974819 34.1676024 16.2611807 34.784241 16.7807108 35.399759 17.299494 36.1855904 17.5590723 37.1413614 17.5590723 37.8950723 17.5590723 38.597241 17.422747 39.2501084 17.1497229 39.9022289 16.8774458 40.421759 16.4860241 40.8075783 15.9750843L40.8075783 13.5742651zM47.0105663 23.8998795L47.0105663 5.5116506 49.0782289 5.5116506 49.0782289 7.49639759C49.5742289 6.79796386 50.2173855 6.23772289 51.0076988 5.81492771 51.7976386 5.39250602 52.6521928 5.18073494 53.5717349 5.18073494 54.7295663 5.18073494 55.7585422 5.46160241 56.6594096 6.02333735 57.5595301 6.58507229 58.2583373 7.39518072 58.7543373 8.45403614 59.2507108 9.51289157 59.4987108 10.7510241 59.4987108 12.1688072 59.4987108 13.5869639 59.2507108 14.8254699 58.7543373 15.8846988 58.2583373 16.9431807 57.5595301 17.7581446 56.6594096 18.3292169 55.7589157 18.8995422 54.7295663 19.1856386 53.5717349 19.1856386 52.6708675 19.1856386 51.8301325 18.9828313 51.0491566 18.5787108 50.2674337 18.1745904 49.6104578 17.5960482 49.0782289 16.8419639L49.0782289 23.899506 47.0105663 23.899506 47.0105663 23.8998795zM56.1634096 8.38606024C55.3913976 7.40750602 54.3527108 6.91785542 53.0480964 6.91785542 52.2574096 6.91785542 51.490253 7.12962651 50.7458795 7.55316867 50.0018795 7.97671084 49.445747 8.48951807 49.0782289 9.09196386L49.0782289 15.2467711C49.4453735 15.8682651 50.0018795 16.3904096 50.7458795 16.8135783 51.490253 17.237494 52.2574096 17.4488916 53.0480964 17.4488916 54.3527108 17.4488916 55.3910241 16.9543855 56.1634096 15.966494 56.9350482 14.9782289 57.321241 13.7124578 57.321241 12.1688072 57.321241 10.6262771 56.9350482 9.36498795 56.1634096 8.38606024zM77.6385663 18.8270843L74.7988916 18.8270843C74.247241 18.3310843 73.5764458 17.6875542 72.7861325 16.8976145 71.2424819 18.4229639 69.4683855 19.186012 67.4657108 19.186012 65.811506 19.186012 64.446759 18.7389398 63.3718434 17.8444217 62.2965542 16.9506506 61.7590964 15.683759 61.7590964 14.043 61.7590964 12.7342771 62.1176506 11.6657108 62.8343855 10.8354337 63.5511205 10.0066506 64.543494 9.24136145 65.8118795 8.54031325 64.8744096 6.93727711 64.4056747 5.56393976 64.4056747 4.42104819 64.4056747 3.61056627 64.6077349 2.87777108 65.0122289 2.22303614 65.4163494 1.5686747 65.9721084 1.05736145 66.680253.688722892 67.3876506.320084337 68.1731084.135951807 69.0373735.135951807 70.2504819.135951807 71.2473373.457903614 72.0286867 1.10255422 72.8096627 1.74683133 73.2003373 2.62977108 73.2003373 3.75249398 73.2003373 4.61787952 72.9889398 5.35889157 72.5665181 5.97515663 72.1433494 6.59179518 71.6245663 7.10236145 71.0086747 7.50722892 70.3927831 7.91209639 69.5613855 8.39091566 68.5137349 8.94331325 68.9914337 9.62456627 69.6992048 10.4985422 70.6366747 11.5656145L72.8145181 14.0232048C73.6418072 12.7533253 74.3032651 11.3542169 74.7992651 9.82662651L76.5636506 10.599759C75.7180602 12.6240964 74.8911446 14.2069639 74.0825301 15.347988 74.8911446 16.2141205 76.076241 17.3734458 77.6385663 18.8270843zM71.5461325 15.6042048C70.2041687 14.2611205 69.3496145 13.3684699 68.9824699 12.927747 68.0633012 11.843494 67.3095904 10.8694217 66.7217108 10.0055301 65.8578193 10.5388795 65.1870241 11.1129398 64.7089518 11.7284578 64.2308795 12.3439759 63.9922169 13.0932048 63.9922169 13.9753976 63.9922169 15.0099759 64.355253 15.8245663 65.0813253 16.4191687 65.8070241 17.0137711 66.6757711 17.3114458 67.6864458 17.3114458 69.0463373 17.3114458 70.3333976 16.742241 71.5461325 15.6042048zM67.6311687 7.57931325C68.8442771 6.97275904 69.7541084 6.3986988 70.3606627 5.85638554 70.9672169 5.31444578 71.270494 4.65074699 71.270494 3.86491566 71.270494 3.27180723 71.0680602 2.81427711 70.6643133 2.49307229 70.2598193 2.17186747 69.7447711 2.01051807 69.1202892 2.01051807 68.3848795 2.01051807 67.7693614 2.23760241 67.2733614 2.6906506 66.776988 3.1436988 66.528988 3.71663855 66.528988 4.40909639 66.5286145 5.23638554 66.895759 6.29337349 67.6311687 7.57931325z"/>
    </g>
    <path fill-rule="nonzero" d="M7.14045783 11.8651566L4.27314458 11.8651566 4.27314458 18.4539639.358927711 18.4539639.358927711.0657349398 8.96012048.0657349398C10.2098313.0657349398 11.3030482.318590361 12.2405181.823927711 13.177988 1.32963855 13.8947229 2.03255422 14.3910964 2.9326747 14.8870964 3.83354217 15.1350964 4.85355422 15.1350964 5.99271084 15.1350964 7.50013253 14.7444217 8.72220482 13.9634458 9.6596747 13.1820964 10.5967711 12.2308072 11.193988 11.1099518 11.4513253L15.2452771 18.4535904 10.7517711 18.4535904 7.14045783 11.8651566zM10.352506 3.97285542C9.82886747 3.46378313 9.17114458 3.20868675 8.38120482 3.20868675L4.27351807 3.20868675 4.27351807 8.72257831 8.38120482 8.72257831C9.17114458 8.72257831 9.82886747 8.46785542 10.352506 7.95803614 10.8761446 7.44896386 11.1383373 6.78489157 11.1383373 5.96544578 11.1379639 5.14637349 10.8761446 4.4823012 10.352506 3.97285542zM17.2303976 8.27401205C17.8182771 7.21553012 18.6366024 6.3733012 19.6838795 5.74695181 20.7315301 5.12060241 21.917 4.80724096 23.2402892 4.80724096 24.5449036 4.80724096 25.7027349 5.11537349 26.7137831 5.73089157 27.7244578 6.34678313 28.5102892 7.2106747 29.0712771 8.32256627 29.6315181 9.43483133 29.912012 10.7073253 29.912012 12.1407952L29.912012 12.9124337 20.0147952 12.9124337C20.1253494 13.8730602 20.520506 14.6742048 21.2002651 15.314747 21.8800241 15.9560361 22.7625904 16.2761205 23.8468434 16.2761205 24.4903735 16.2761205 25.138012 16.1566024 25.790506 15.9171928 26.4426265 15.6785301 26.9804578 15.3569518 27.403253 14.9528313L28.9469036 17.1295542C28.2854458 17.6823253 27.4723494 18.1013855 26.507241 18.3848675 25.542506 18.6694699 24.5266024 18.8125181 23.4610241 18.8125181 22.1190602 18.8125181 20.9063253 18.5223133 19.8220723 17.9422771 18.7374458 17.362241 17.8873735 16.5424217 17.2722289 15.4839398 16.6563373 14.4247108 16.3485783 13.1962892 16.3485783 11.7956867 16.3482048 10.507506 16.6421446 9.33286747 17.2303976 8.27401205zM20.9246265 8.26504819C20.3729759 8.87944578 20.058494 9.58273494 19.9804337 10.3760361L26.5210602 10.3760361C26.4661566 9.60178313 26.166988 8.90260241 25.6254217 8.27886747 25.0831084 7.65587952 24.2883133 7.34401205 23.2406627 7.34401205 22.2479157 7.34401205 21.4759036 7.6510241 20.9246265 8.26504819zM40.4426747 17.0757711C39.9832771 17.6091205 39.3812048 18.0315422 38.6368313 18.3437831 37.8928313 18.6560241 37.0883253 18.8128916 36.2248072 18.8128916 35.4707229 18.8128916 34.7401687 18.6466867 34.0331446 18.3153976 33.325 17.9833614 32.7416024 17.481012 32.2822048 16.8076024 31.8228072 16.1349398 31.5931084 15.3281928 31.5931084 14.3873614 31.5931084 13.4106747 31.8224337 12.6046747 32.2822048 11.967494 32.7412289 11.3321807 33.3201446 10.8668072 34.0189518 10.5713735 34.717012 10.2766867 35.4524217 10.1284096 36.2244337 10.1284096 37.1245542 10.1284096 37.9428795 10.2662289 38.6779157 10.5418675 39.4125783 10.817506 40.0012048 11.222 40.4423012 11.7549759L40.4423012 9.87816867C40.4423012 9.10690361 40.1756265 8.49138554 39.6426506 8.03273494 39.1093012 7.57371084 38.4022771 7.34438554 37.5197108 7.34438554 36.0675663 7.34438554 34.7722892 7.8680241 33.632759 8.9156747L32.3094699 6.66163855C33.0994096 6.04387952 33.9954217 5.58037349 34.9971325 5.27149398 35.9988434 4.96261446 37.0416386 4.80798795 38.1262651 4.80798795 39.8353735 4.80798795 41.2318675 5.20351807 42.3168675 5.99345783 43.400747 6.78414458 43.9430602 8.07083133 43.9430602 9.85277108L43.9430602 18.4539639 40.4419277 18.4539639 40.4419277 17.0757711 40.4426747 17.0757711zM40.4426747 13.7180602C40.1670361 13.3837831 39.7763614 13.1249518 39.2710241 12.9404458 38.7653133 12.7566867 38.2188916 12.6648072 37.6302651 12.6648072 36.9135301 12.6648072 36.3159398 12.832506 35.8386145 13.1667831 35.3605422 13.5010602 35.121506 13.9443976 35.121506 14.4960482 35.121506 15.0484458 35.3605422 15.4824458 35.8386145 15.8002892 36.3159398 16.117759 36.9135301 16.276494 37.6302651 16.276494 38.2185181 16.276494 38.7649398 16.1846145 39.2710241 16.0008554 39.7763614 15.8170964 40.1666627 15.5571446 40.4426747 15.223241L40.4426747 13.7180602zM56.5705181 16.7721205C56.0367952 17.4156506 55.4167952 17.915759 54.7097711 18.2746867 54.0016265 18.6328675 53.2531446 18.8121446 52.4628313 18.8121446 51.3412289 18.8121446 50.3305542 18.535012 49.4300602 17.9826145 48.5295663 17.4302169 47.8266506 16.6294458 47.3213133 15.5795542 46.8156024 14.5304096 46.563494 13.2780843 46.563494 11.8225783 46.563494 10.4047952 46.8159759 9.16666265 47.3213133 8.10743373 47.8270241 7.04895181 48.5250843 6.23436145 49.4166145 5.66328916 50.3077711 5.09259036 51.3229277 4.80686747 52.4628313 4.80686747 53.2527711 4.80686747 54.0064819 4.98166265 54.7232169 5.33050602 55.4403253 5.68009639 56.0554699 6.18543373 56.5705181 6.84689157L56.5705181.0657349398 60.0989157.0657349398 60.0989157 18.4535904 56.5705181 18.4535904 56.5705181 16.7721205zM56.5705181 9.17562651C56.2575301 8.68298795 55.8212892 8.27737349 55.2606747 7.95915663 54.7000602 7.64056627 54.1256265 7.48145783 53.537747 7.48145783 52.5453735 7.48145783 51.7363855 7.88184337 51.1119036 8.68298795 50.4866747 9.48413253 50.1744337 10.5314096 50.1744337 11.8255663 50.1744337 13.0984337 50.4866747 14.136 51.1119036 14.9367711 51.7363855 15.7379157 52.5453735 16.1383012 53.537747 16.1383012 54.1256265 16.1383012 54.7000602 15.9791928 55.2606747 15.6606024 55.8212892 15.3423855 56.2575301 14.9367711 56.5705181 14.443759L56.5705181 9.17562651z" transform="translate(152.759 26.145)"/>
    <path fill-rule="nonzero" d="M217.517289,32.2754819 L216.745651,32.2754819 L216.745651,27.092506 L215.036542,27.092506 L215.036542,26.2103133 L219.227145,26.2103133 L219.227145,27.092506 L217.517663,27.092506 L217.517663,32.2754819 L217.517289,32.2754819 Z M225.346843,27.2579639 L223.279181,32.2754819 L223.058819,32.2754819 L220.991157,27.2579639 L220.991157,32.2754819 L220.219518,32.2754819 L220.219518,26.2103133 L221.404988,26.2103133 L223.169373,30.6212771 L224.933759,26.2103133 L226.119602,26.2103133 L226.119602,32.2754819 L225.34759,32.2754819 L225.34759,27.2579639 L225.346843,27.2579639 Z"/>
    <path d="M24.9329639 33.9013012C26.7044458 33.9013012 28.1409036 35.341494 28.1409036 37.1174578 28.1409036 38.8937952 26.7040723 40.3343614 24.9329639 40.3343614 23.1611084 40.3343614 21.7242771 38.8937952 21.7242771 37.1174578 21.7242771 35.341494 23.1611084 33.9013012 24.9329639 33.9013012M57.1707229 27.6889759C53.7024578 16.7433614 44.6911687 8.06112048 33.6510602 5.03021687L35.0150602.0455662651C47.7220723 3.534 58.094747 13.5279518 62.0832892 26.1244096L57.1684819 27.6889759 57.1707229 27.6889759z"/>
    <path d="M48.7402169,29.915 C46.2538675,21.8800241 39.6710361,15.5422048 31.5632289,13.3759398 L32.891747,8.37821687 C42.6970843,10.9941687 50.656988,18.6593855 53.663988,28.3799398 L48.7402169,29.9067831 L48.7402169,29.915 Z"/>
    <path fill-rule="nonzero" d="M49.3307108,32.9141566 L49.3273494,32.9107952 L46.1048434,33.7238916 C44.6493373,24.6263253 37.4629398,17.419759 28.3829277,15.9336265 L29.1870602,12.7271807 C27.8129759,12.493 26.3574699,12.3708675 24.9120482,12.3708675 C23.4871687,12.3708675 22.0824578,12.493 20.7180843,12.7271807 L20.7180843,12.7372651 L21.5225904,15.9437108 C12.4108313,17.4085542 5.21285542,24.615494 3.7386747,33.7227711 L0.563228916,32.9276024 C0.321578313,34.3102771 0.196457831,35.7654096 0.196457831,37.2138193 C0.196457831,38.6491566 0.318590361,40.0538675 0.55239759,41.4279518 L0.556879518,41.4320602 L3.74091566,40.6316627 C5.21696386,49.7423012 12.4138193,56.9488675 21.5083976,58.4140843 L20.7042651,61.6209036 C22.0783494,61.8588193 23.5338554,61.9843133 24.9792771,61.9843133 C26.4146145,61.9843133 27.8163373,61.8621807 29.1833253,61.6276265 L29.1833253,61.625012 L28.3791928,58.4084819 C37.4588313,56.9122651 44.642988,49.7116747 46.1111928,40.611494 L49.3318313,41.418988 C49.5760964,40.0344458 49.6982289,38.5785663 49.6982289,37.1331446 C49.6982289,35.6981807 49.5757229,34.2930964 49.3415422,32.9216265 L49.3307108,32.9141566 Z M26.5378675,51.0345904 L24.9366988,44.6258072 L23.3344096,51.0383253 C16.9218916,50.3118795 11.811747,45.200988 11.0688675,38.7727831 L17.4918434,37.1619036 L11.0688675,35.5435542 C11.811747,29.1134819 16.9218916,24.0033373 23.344494,23.2705422 L24.9531325,29.6938916 L26.5613976,23.2705422 C32.9642048,24.0137952 38.0534337,29.1239398 38.7862289,35.5435542 L32.4039639,37.1417349 L38.7862289,38.7391687 C38.0429759,45.1621446 32.9533735,50.2722892 26.5509398,51.0151687 L26.5378675,51.0345904 Z"/>
  </g>
</svg>
